<svg xmlns="http://www.w3.org/2000/svg" version="1.1" width="212" height="325"><defs><filter id="bevelFilter" x0="-50%" y0="-50%" width="200%" height="200%"><feGaussianBlur result="blur-1" in="SourceAlpha" stdDeviation="1 1"/><feFlood result="flood-2" in="undefined" flood-color="#fff" flood-opacity="0.15"/><feOffset result="offset-3" in="blur-1" dx="1" dy="1"/><feComposite result="comp-4" operator="arithmetic" in="SourceAlpha" in2="offset-3" k2="1" k3="-1"/><feComposite result="comp-5" operator="in" in="flood-2" in2="comp-4"/><feFlood result="flood-6" in="undefined" flood-color="#000" flood-opacity="0.7"/><feOffset result="offset-7" in="blur-1" dx="-1" dy="-1"/><feComposite result="comp-8" operator="arithmetic" in="SourceAlpha" in2="offset-7" k2="1" k3="-1"/><feComposite result="comp-9" operator="in" in="flood-6" in2="comp-8"/><feMerge result="merge-10"><feMergeNode in="SourceGraphic"/><feMergeNode in="comp-5"/><feMergeNode in="comp-9"/></feMerge></filter><filter id="inputBevelFilter" x0="-50%" y0="-50%" width="200%" height="200%"><feGaussianBlur result="blur-1" in="SourceAlpha" stdDeviation="1 1"/><feFlood result="flood-2" in="undefined" flood-color="#fff" flood-opacity="0.15"/><feOffset result="offset-3" in="blur-1" dx="-1" dy="-1"/><feComposite result="comp-4" operator="arithmetic" in="SourceAlpha" in2="offset-3" k2="1" k3="-1"/><feComposite result="comp-5" operator="in" in="flood-2" in2="comp-4"/><feFlood result="flood-6" in="undefined" flood-color="#000" flood-opacity="0.7"/><feOffset result="offset-7" in="blur-1" dx="1" dy="1"/><feComposite result="comp-8" operator="arithmetic" in="SourceAlpha" in2="offset-7" k2="1" k3="-1"/><feComposite result="comp-9" operator="in" in="flood-6" in2="comp-8"/><feMerge result="merge-10"><feMergeNode in="SourceGraphic"/><feMergeNode in="comp-5"/><feMergeNode in="comp-9"/></feMerge></filter><filter id="inputDarkFilter" x0="-50%" y0="-50%" width="200%" height="200%"><feFlood result="flood-1" in="undefined" flood-color="#000" flood-opacity="0.2"/><feComposite result="comp-2" operator="in" in="flood-1" in2="SourceAlpha"/><feMerge result="merge-3"><feMergeNode in="SourceGraphic"/><feMergeNode in="comp-2"/></feMerge></filter><path d="M1.504 21L0 19.493 4.567 0h1.948l-.5 2.418s1.002-.502 3.006 0c2.006.503 3.008 2.01 6.517 2.01 3.508 0 4.463-.545 4.463-.545l-.823 9.892s-2.137 1.005-5.144.696c-3.007-.307-3.007-2.007-6.014-2.51-3.008-.502-4.512.503-4.512.503L1.504 21z" fill="#3f8d15" id="greenFlag"/><path d="M6.724 0C3.01 0 0 2.91 0 6.5c0 2.316 1.253 4.35 3.14 5.5H5.17v-1.256C3.364 10.126 2.07 8.46 2.07 6.5 2.07 4.015 4.152 2 6.723 2c1.14 0 2.184.396 2.993 1.053L8.31 4.13c-.45.344-.398.826.11 1.08L15 8.5 13.858.992c-.083-.547-.514-.714-.963-.37l-1.532 1.172A6.825 6.825 0 0 0 6.723 0z" fill="#fff" id="turnRight"/><path d="M3.637 1.794A6.825 6.825 0 0 1 8.277 0C11.99 0 15 2.91 15 6.5c0 2.316-1.253 4.35-3.14 5.5H9.83v-1.256c1.808-.618 3.103-2.285 3.103-4.244 0-2.485-2.083-4.5-4.654-4.5-1.14 0-2.184.396-2.993 1.053L6.69 4.13c.45.344.398.826-.11 1.08L0 8.5 1.142.992c.083-.547.514-.714.963-.37l1.532 1.172z" fill="#fff" id="turnLeft"/><path d="M0 0L4 4L0 8Z" fill="#111" id="addInput"/><path d="M4 0L4 8L0 4Z" fill="#111" id="delInput"/><g id="loopArrow"><path d="M8 0l2 -2l0 -3l3 0l-4 -5l-4 5l3 0l0 3l-8 0l0 2" fill="#000" opacity="0.3"/><path d="M8 0l2 -2l0 -3l3 0l-4 -5l-4 5l3 0l0 3l-8 0l0 2" fill="#fff" opacity="0.9" transform="translate(-1 -1)"/></g><style><![CDATA[.sb-label{font-family:Lucida Grande,Verdana,Arial,DejaVu Sans,sans-serif;font-weight:700;fill:#fff;font-size:10px;word-spacing:+1px}.sb-obsolete{fill:#d42828}.sb-motion{fill:#4a6cd4}.sb-looks{fill:#8a55d7}.sb-sound{fill:#bb42c3}.sb-pen{fill:#0e9a6c}.sb-events{fill:#c88330}.sb-control{fill:#e1a91a}.sb-sensing{fill:#2ca5e2}.sb-operators{fill:#5cb712}.sb-variables{fill:#ee7d16}.sb-list{fill:#cc5b22}.sb-custom{fill:#632d99}.sb-custom-arg{fill:#5947b1}.sb-extension{fill:#4b4a60}.sb-grey{fill:#969696}.sb-bevel{filter:url(#bevelFilter)}.sb-input{filter:url(#inputBevelFilter)}.sb-input-number,.sb-input-number-dropdown,.sb-input-string{fill:#fff}.sb-literal-dropdown,.sb-literal-number,.sb-literal-number-dropdown,.sb-literal-string{font-weight:400;font-size:9px;word-spacing:0}.sb-literal-number,.sb-literal-number-dropdown,.sb-literal-string{fill:#000}.sb-darker{filter:url(#inputDarkFilter)}.sb-outline{stroke:#fff;stroke-opacity:.2;stroke-width:2;fill:none}.sb-define-hat-cap{stroke:#632d99;stroke-width:1;fill:#8e2ec2}.sb-comment{fill:#ffffa5;stroke:#d0d1d2;stroke-width:1}.sb-comment-line{fill:#ffff80}.sb-comment-label{font-family:Helevetica,Arial,DejaVu Sans,sans-serif;font-weight:700;fill:#5c5d5f;word-spacing:0;font-size:12px}]]></style></defs><g><g transform="translate(0 0)"><g transform="translate(2 0)"><rect x="0" y="0" width="0" height="2" class="sb-comment-line" transform="translate(0 9)"/><path d="M 6 0 L 51 0 A 6 6 0 0 1 57 6 L 57 14 A 6 6 0 0 1 51 20 L 6 20 A 6 6 0 0 1 0 14 L 0 6 A 6 6 0 0 1 6 0 Z" class="sb-comment"/><text x="0" y="10" class="sb-label sb-comment-label" transform="translate(8 4)"> Cercle</text></g></g><g transform="translate(0 33)"><g transform="translate(2 0)"><path d="M 0 12 L 0 12 A 80 80 0 0 1 80 10 L 205 10 L 208 13 L 208 30 L 205 33 L 27 33 L 24 36 L 16 36 L 13 33 L 3 33 L 0 30 Z" class="sb-control sb-bevel"/><text x="0" y="10" class="sb-label " transform="translate(6 16)">quand</text><text x="0" y="10" class="sb-label " transform="translate(44 16)">je</text><text x="0" y="10" class="sb-label " transform="translate(57 16)">commence</text><text x="0" y="10" class="sb-label " transform="translate(116 16)">comme</text><text x="0" y="10" class="sb-label " transform="translate(157 16)">un</text><text x="0" y="10" class="sb-label " transform="translate(175 16)">clone</text></g><g transform="translate(2 33)"><path d="M 0 3 L 3 0 L 13 0 L 16 3 L 24 3 L 27 0 L 126 0 L 129 3 L 129 19 L 126 22 L 27 22 L 24 25 L 16 25 L 13 22 L 3 22 L 0 19 Z" class="sb-control sb-bevel"/><text x="0" y="10" class="sb-label " transform="translate(6 5)">attendre</text><g transform="translate(55 4)"><path d="M 6.5 0 L 8.5 0 A 6.5 6.5 0 0 1 8.5 13 L 6.5 13 A 6.5 6.5 0 0 1 6.5 0 Z" class="sb-input sb-input-number"/><text x="0" y="10" class="sb-label sb-literal-number" transform="translate(5 0)">1</text></g><text x="0" y="10" class="sb-label " transform="translate(74 5)">secondes</text></g><g transform="translate(2 55)"><path d="M 0 3 L 3 0 L 13 0 L 16 3 L 24 3 L 27 0 L 85 0 L 88 3 L 88 19 L 85 22 L 27 22 L 24 25 L 16 25 L 13 22 L 3 22 L 0 19 Z" class="sb-motion sb-bevel"/><text x="0" y="10" class="sb-label " transform="translate(6 5)">aller</text><text x="0" y="10" class="sb-label " transform="translate(33 5)">à</text><g transform="translate(43 4)"><g width="39" height="14" class="sb-input sb-input-dropdown"><rect x="0" y="0" width="39" height="14" class="sb-motion sb-darker"/></g><text x="0" y="10" class="sb-label sb-literal-dropdown" transform="translate(4 0)">Chat</text><polygon points="7 0 3.5 4 0 0" fill="#000" opacity="0.6" transform="translate(29 5)"/></g></g><g transform="translate(2 77)"><path d="M 0 3 L 3 0 L 13 0 L 16 3 L 24 3 L 27 0 L 189 0 L 192 3 L 192 19 L 189 22 L 27 22 L 24 25 L 16 25 L 13 22 L 3 22 L 0 19 Z" class="sb-looks sb-bevel"/><text x="0" y="10" class="sb-label " transform="translate(6 5)">mettre</text><text x="0" y="10" class="sb-label " transform="translate(45 5)">à</text><g transform="translate(55 4)"><path d="M 6.5 0 L 14.5 0 A 6.5 6.5 0 0 1 14.5 13 L 6.5 13 A 6.5 6.5 0 0 1 6.5 0 Z" class="sb-input sb-input-number"/><text x="0" y="10" class="sb-label sb-literal-number" transform="translate(5 0)">10</text></g><text x="0" y="10" class="sb-label " transform="translate(80 5)">%</text><text x="0" y="10" class="sb-label " transform="translate(92 5)">de</text><text x="0" y="10" class="sb-label " transform="translate(109 5)">la</text><text x="0" y="10" class="sb-label " transform="translate(122 5)">taille</text><text x="0" y="10" class="sb-label " transform="translate(151 5)">initiale</text></g><g transform="translate(2 99)"><path d="M 0 3 L 3 0 L 13 0 L 16 3 L 24 3 L 27 0 L 165 0 L 168 3 L 168 19 L 165 22 L 27 22 L 24 25 L 16 25 L 13 22 L 3 22 L 0 19 Z" class="sb-looks sb-bevel"/><text x="0" y="10" class="sb-label " transform="translate(6 5)">mettre</text><text x="0" y="10" class="sb-label " transform="translate(45 5)">l'effet</text><g transform="translate(78 4)"><g width="55" height="14" class="sb-input sb-input-dropdown"><rect x="0" y="0" width="55" height="14" class="sb-looks sb-darker"/></g><text x="0" y="10" class="sb-label sb-literal-dropdown" transform="translate(4 0)">fantôme</text><polygon points="7 0 3.5 4 0 0" fill="#000" opacity="0.6" transform="translate(45 5)"/></g><text x="0" y="10" class="sb-label " transform="translate(137 5)">à</text><g transform="translate(147 4)"><path d="M 6.5 0 L 8.5 0 A 6.5 6.5 0 0 1 8.5 13 L 6.5 13 A 6.5 6.5 0 0 1 6.5 0 Z" class="sb-input sb-input-number"/><text x="0" y="10" class="sb-label sb-literal-number" transform="translate(5 0)">0</text></g></g><g transform="translate(2 121)"><path d="M 0 3 L 3 0 L 13 0 L 16 3 L 24 3 L 27 0 L 52 0 L 55 3 L 55 19 L 52 22 L 27 22 L 24 25 L 16 25 L 13 22 L 3 22 L 0 19 Z" class="sb-looks sb-bevel"/><text x="0" y="10" class="sb-label " transform="translate(6 5)">montrer</text></g><g transform="translate(2 143)"><path d="M 0 3 L 3 0 L 13 0 L 16 3 L 24 3 L 27 0 L 96 0 L 99 3 L 99 18 L 96 21 L 42 21 L 39 24 L 31 24 L 28 21 L 17 21 L 15 23 L 15 85 L 17 87 L 96 87 L 99 90 L 99 100 L 96 103 L 27 103 L 24 106 L 16 106 L 13 103 L 3 103 L 0 100" class="sb-control sb-bevel"/><text x="0" y="10" class="sb-label " transform="translate(6 4)">répéter</text><g transform="translate(49 3)"><path d="M 6.5 0 L 14.5 0 A 6.5 6.5 0 0 1 14.5 13 L 6.5 13 A 6.5 6.5 0 0 1 6.5 0 Z" class="sb-input sb-input-number"/><text x="0" y="10" class="sb-label sb-literal-number" transform="translate(5 0)">20</text></g><text x="0" y="10" class="sb-label " transform="translate(74 4)">fois</text><use a0:href="#loopArrow" xmlns:a0="http://www.w3.org/1999/xlink" transform="translate(84 100)"/><g transform="translate(15 21)"><g transform="translate(0 0)"><path d="M 0 3 L 3 0 L 13 0 L 16 3 L 24 3 L 27 0 L 135 0 L 138 3 L 138 19 L 135 22 L 27 22 L 24 25 L 16 25 L 13 22 L 3 22 L 0 19 Z" class="sb-control sb-bevel"/><text x="0" y="10" class="sb-label " transform="translate(6 5)">attendre</text><g transform="translate(55 4)"><path d="M 6.5 0 L 17.5 0 A 6.5 6.5 0 0 1 17.5 13 L 6.5 13 A 6.5 6.5 0 0 1 6.5 0 Z" class="sb-input sb-input-number"/><text x="0" y="10" class="sb-label sb-literal-number" transform="translate(5 0)">0.3</text></g><text x="0" y="10" class="sb-label " transform="translate(83 5)">secondes</text></g><g transform="translate(0 22)"><path d="M 0 3 L 3 0 L 13 0 L 16 3 L 24 3 L 27 0 L 117 0 L 120 3 L 120 19 L 117 22 L 27 22 L 24 25 L 16 25 L 13 22 L 3 22 L 0 19 Z" class="sb-looks sb-bevel"/><text x="0" y="10" class="sb-label " transform="translate(6 5)">ajouter</text><g transform="translate(47 4)"><path d="M 6.5 0 L 8.5 0 A 6.5 6.5 0 0 1 8.5 13 L 6.5 13 A 6.5 6.5 0 0 1 6.5 0 Z" class="sb-input sb-input-number"/><text x="0" y="10" class="sb-label sb-literal-number" transform="translate(5 0)">5</text></g><text x="0" y="10" class="sb-label " transform="translate(66 5)">à</text><text x="0" y="10" class="sb-label " transform="translate(76 5)">la</text><text x="0" y="10" class="sb-label " transform="translate(89 5)">taille</text></g><g transform="translate(0 44)"><path d="M 0 3 L 3 0 L 13 0 L 16 3 L 24 3 L 27 0 L 167 0 L 170 3 L 170 19 L 167 22 L 27 22 L 24 25 L 16 25 L 13 22 L 3 22 L 0 19 Z" class="sb-looks sb-bevel"/><text x="0" y="10" class="sb-label " transform="translate(6 5)">ajouter</text><text x="0" y="10" class="sb-label " transform="translate(47 5)">à</text><text x="0" y="10" class="sb-label " transform="translate(57 5)">l'effet</text><g transform="translate(90 4)"><g width="55" height="14" class="sb-input sb-input-dropdown"><rect x="0" y="0" width="55" height="14" class="sb-looks sb-darker"/></g><text x="0" y="10" class="sb-label sb-literal-dropdown" transform="translate(4 0)">fantôme</text><polygon points="7 0 3.5 4 0 0" fill="#000" opacity="0.6" transform="translate(45 5)"/></g><g transform="translate(149 4)"><path d="M 6.5 0 L 8.5 0 A 6.5 6.5 0 0 1 8.5 13 L 6.5 13 A 6.5 6.5 0 0 1 6.5 0 Z" class="sb-input sb-input-number"/><text x="0" y="10" class="sb-label sb-literal-number" transform="translate(5 0)">5</text></g></g></g></g><g transform="translate(2 246)"><path d="M 0 3 L 3 0 L 13 0 L 16 3 L 24 3 L 27 0 L 43 0 L 46 3 L 46 19 L 43 22 L 27 22 L 24 25 L 16 25 L 13 22 L 3 22 L 0 19 Z" class="sb-looks sb-bevel"/><text x="0" y="10" class="sb-label " transform="translate(6 5)">cacher</text></g><g transform="translate(2 268)"><path d="M 0 3 L 3 0 L 13 0 L 16 3 L 24 3 L 27 0 L 111 0 L 114 3 L 114 21 L 111 24 L 3 24 L 0 21 Z" class="sb-control sb-bevel"/><text x="0" y="10" class="sb-label " transform="translate(6 7)">supprimer</text><text x="0" y="10" class="sb-label " transform="translate(66 7)">ce</text><text x="0" y="10" class="sb-label " transform="translate(81 7)">clone</text></g></g></g></svg>