<?xml version="1.0" encoding="UTF-8" standalone="no"?>
<!-- Generator: Adobe Illustrator 16.0.0, SVG Export Plug-In . SVG Version: 6.00 Build 0)  -->

<svg
   xmlns:dc="http://purl.org/dc/elements/1.1/"
   xmlns:cc="http://creativecommons.org/ns#"
   xmlns:rdf="http://www.w3.org/1999/02/22-rdf-syntax-ns#"
   xmlns:svg="http://www.w3.org/2000/svg"
   xmlns="http://www.w3.org/2000/svg"
   xmlns:sodipodi="http://sodipodi.sourceforge.net/DTD/sodipodi-0.dtd"
   xmlns:inkscape="http://www.inkscape.org/namespaces/inkscape"
   version="1.1"
   id="Calque_1"
   x="0px"
   y="0px"
   width="108.414"
   height="108.398"
   viewBox="0 0 108.414 108.398"
   enable-background="new 0 0 420.5 128.5"
   xml:space="preserve"
   inkscape:version="0.91 r13725"
   sodipodi:docname="logoScratchAuCollege.svg"><metadata
     id="metadata3470"><rdf:RDF><cc:Work
         rdf:about=""><dc:format>image/svg+xml</dc:format><dc:type
           rdf:resource="http://purl.org/dc/dcmitype/StillImage" /><dc:title></dc:title></cc:Work></rdf:RDF></metadata><defs
     id="defs3468" /><sodipodi:namedview
     pagecolor="#ffffff"
     bordercolor="#666666"
     borderopacity="1"
     objecttolerance="10"
     gridtolerance="10"
     guidetolerance="10"
     inkscape:pageopacity="0"
     inkscape:pageshadow="2"
     inkscape:window-width="1855"
     inkscape:window-height="1056"
     id="namedview3466"
     showgrid="false"
     inkscape:zoom="4.0166468"
     inkscape:cx="63.8204"
     inkscape:cy="54.148"
     inkscape:window-x="65"
     inkscape:window-y="24"
     inkscape:window-maximized="1"
     inkscape:current-layer="Calque_1"
     fit-margin-top="0"
     fit-margin-left="0"
     fit-margin-right="0"
     fit-margin-bottom="0" /><g
     id="g3426"
     transform="translate(-10.001,-10)"><path
       style="fill:#7ac943"
       inkscape:connector-curvature="0"
       id="path3428"
       d="m 64.309,85.014 0,0 c -0.016,0 -0.047,0 -0.062,0 l 0.062,0 z" /><path
       style="fill:#7ac943"
       inkscape:connector-curvature="0"
       id="path3430"
       d="m 118.415,64.2 0,0 c 0,-0.279 -0.14,-0.559 -0.356,-0.761 -4.237,-3.849 -8.925,-7.17 -13.923,-9.949 1.692,-2.81 3.183,-5.728 4.486,-8.738 0.978,-2.235 1.831,-4.517 2.576,-6.845 0.093,-0.264 0.047,-0.559 -0.093,-0.807 -0.14,-0.248 -0.389,-0.419 -0.652,-0.481 -5.091,-1.102 -10.368,-1.645 -15.691,-1.645 -0.45,0 -0.9,0.015 -1.351,0.015 0.093,-5.743 -0.45,-11.47 -1.661,-17.088 -0.062,-0.28 -0.232,-0.667 -0.481,-0.667 l 0,0 0,0 c -0.248,0 -0.543,-0.155 -0.807,-0.078 -5.448,1.754 -10.679,4.144 -15.583,7.093 -2.778,-5.014 -6.115,-9.685 -9.949,-13.923 -0.14,-0.155 -0.341,-0.248 -0.543,-0.294 -0.031,0 -0.063,0 -0.109,-0.016 -0.031,0 -0.062,-0.016 -0.109,-0.016 -0.046,0 -0.077,0 -0.108,0.016 -0.031,0 -0.062,0 -0.109,0.016 -0.202,0.046 -0.388,0.14 -0.543,0.294 -3.818,4.269 -7.14,8.94 -9.918,13.954 -4.92,-2.949 -10.135,-5.324 -15.583,-7.093 -0.202,-0.062 -0.419,-0.062 -0.621,0 -0.046,0.016 -0.093,0.031 -0.14,0.047 -0.016,0.016 -0.046,0.016 -0.062,0.016 l 0,0 0,0 c -0.249,0 -0.419,0.388 -0.481,0.667 -1.21,5.603 -1.754,11.346 -1.661,17.073 -0.45,-0.015 -0.9,-0.015 -1.35,-0.015 -5.324,0 -10.632,0.559 -15.708,1.661 -0.279,0.062 -0.667,0.233 -0.667,0.481 l 0,0 0,0 c 0,0.249 -0.155,0.543 -0.062,0.807 1.754,5.448 4.144,10.647 7.078,15.568 -4.998,2.778 -9.67,6.115 -13.907,9.949 -0.202,0.171 -0.311,0.543 -0.326,0.807 0,0.016 0,0.171 0,0.171 l 0.093,0 0.14,0 0,-0.233 0,0 c 0,0.279 0,0.559 0.217,0.745 4.252,3.849 8.862,7.171 13.876,9.948 -2.949,4.922 -5.355,10.137 -7.109,15.584 -0.016,0.063 -0.046,0.141 -0.062,0.201 -0.016,0.219 0.016,0.42 0.124,0.605 0.14,0.248 0.373,0.42 0.652,0.482 5.091,1.102 10.368,1.66 15.692,1.66 l 0,0 c 0.45,0 0.9,0 1.351,-0.016 -0.093,5.727 0.45,11.439 1.661,17.027 0.062,0.279 0.233,0.527 0.481,0.666 l 0,0.016 0,0 c 0.155,0 0.326,0.125 0.496,0.125 0.109,0 0.202,-0.016 0.311,-0.047 5.448,-1.754 10.679,-4.145 15.583,-7.094 2.778,5.014 6.115,9.701 9.949,13.953 0.187,0.219 0.466,0.357 0.745,0.357 l 0,0 0,0 c 0.279,0 0.559,-0.139 0.745,-0.357 3.85,-4.252 7.171,-8.939 9.949,-13.938 4.92,2.949 10.135,5.324 15.583,7.078 0.093,0.031 0.202,0.047 0.311,0.047 0.171,0 0.342,-0.125 0.496,-0.125 l 0,0 0,0 c 0.249,-0.139 0.42,-0.387 0.481,-0.666 1.211,-5.588 1.754,-11.316 1.661,-17.043 0.45,0.016 0.9,0 1.351,0 l 0,0 0,0 0,0 c 5.323,0 10.601,-0.574 15.691,-1.66 0.202,-0.047 0.388,-0.156 0.527,-0.326 l -0.077,0 c 0.047,-0.047 0.047,-0.109 0.047,-0.156 l 0,0 0,0 c 0,-0.248 0.248,-0.543 0.154,-0.807 -1.753,-5.447 -4.098,-10.662 -7.046,-15.568 5.013,-2.793 9.716,-6.115 13.969,-9.979 0.202,-0.188 0.311,-0.436 0.326,-0.715 0.015,0.048 0.046,0.033 0.046,0.017 l 0,0 0,0 0,0 z M 49.393,38.652 c 1.583,0.326 3.151,0.699 4.703,1.133 0.575,0.155 1.149,0.326 1.708,0.497 -0.621,0.714 -1.242,1.443 -1.847,2.188 -0.45,0.543 -0.885,1.102 -1.319,1.661 -1.692,0.233 -3.368,0.512 -5.029,0.838 0.403,-1.708 0.869,-3.415 1.381,-5.076 0.139,-0.418 0.279,-0.837 0.403,-1.241 z m -9.701,10.43 c 1.738,-0.543 3.508,-1.024 5.293,-1.443 -0.078,0.419 -0.155,0.838 -0.233,1.257 -0.016,0.093 -0.031,0.186 -0.062,0.295 -0.031,0.202 -0.063,0.419 -0.109,0.621 -0.155,0.947 -0.311,1.894 -0.435,2.84 -1.35,1.04 -2.654,2.111 -3.927,3.229 -0.636,-2.126 -1.18,-4.284 -1.63,-6.441 0.373,-0.125 0.73,-0.249 1.103,-0.358 z m 17.616,-7.465 c 0.155,-0.171 0.311,-0.342 0.45,-0.512 0.047,-0.063 0.093,-0.109 0.14,-0.171 1.227,0.404 2.437,0.823 3.647,1.272 -0.946,0.419 -1.893,0.869 -2.825,1.319 -1.102,0.063 -2.188,0.155 -3.275,0.264 0.528,-0.652 1.071,-1.304 1.63,-1.94 0.094,-0.062 0.172,-0.154 0.233,-0.232 z m 23.158,31.989 c -0.839,1.459 -1.724,2.871 -2.624,4.252 -1.381,0.916 -2.793,1.785 -4.252,2.623 -1.413,0.822 -2.856,1.553 -4.315,2.281 -1.691,0.094 -3.384,0.125 -5.091,0.125 l 0,0 c -1.723,0 -3.445,-0.031 -5.153,-0.125 -1.428,-0.713 -2.856,-1.459 -4.253,-2.266 -1.443,-0.838 -2.856,-1.691 -4.222,-2.607 -0.916,-1.396 -1.816,-2.824 -2.654,-4.299 -0.838,-1.459 -1.63,-2.918 -2.375,-4.408 -0.093,-1.66 -0.155,-3.322 -0.155,-4.998 0,-1.676 0.047,-3.337 0.155,-4.998 0.745,-1.49 1.537,-2.949 2.375,-4.408 0.838,-1.459 1.723,-2.871 2.623,-4.253 1.381,-0.916 2.793,-1.785 4.252,-2.623 1.443,-0.838 2.918,-1.629 4.408,-2.375 1.661,-0.093 3.321,-0.155 4.998,-0.155 1.661,0 3.321,0.047 4.951,0.155 1.49,0.745 2.98,1.537 4.439,2.39 1.459,0.838 2.871,1.723 4.268,2.639 0.9,1.381 1.785,2.794 2.608,4.237 0.838,1.459 1.63,2.918 2.374,4.408 0.094,1.661 0.155,3.321 0.155,4.998 0,1.676 -0.046,3.338 -0.155,4.998 -0.728,1.491 -1.519,2.966 -2.357,4.409 z m -26.681,8.645 c 0.046,0.031 0.108,0.063 0.155,0.078 -0.093,-0.016 -0.171,-0.016 -0.264,-0.031 -0.062,-0.078 -0.108,-0.141 -0.155,-0.217 0.078,0.062 0.171,0.123 0.264,0.17 z m 20.798,0 c 0.093,-0.047 0.187,-0.107 0.279,-0.17 -0.047,0.076 -0.108,0.139 -0.155,0.217 -0.093,0.016 -0.187,0.016 -0.264,0.031 0.048,-0.016 0.094,-0.047 0.14,-0.078 z m 0,-36.055 c -0.108,-0.062 -0.218,-0.124 -0.326,-0.187 0.14,0.016 0.264,0.031 0.403,0.047 0.078,0.108 0.155,0.217 0.233,0.31 -0.093,-0.046 -0.201,-0.124 -0.31,-0.17 z m -20.798,0 c -0.109,0.062 -0.202,0.124 -0.311,0.186 0.078,-0.108 0.155,-0.217 0.233,-0.31 0.124,-0.016 0.264,-0.031 0.388,-0.047 -0.108,0.047 -0.201,0.109 -0.31,0.171 z m 28.42,7.605 c -0.063,-0.093 -0.109,-0.187 -0.171,-0.279 0.093,0.077 0.201,0.155 0.295,0.232 0.016,0.125 0.031,0.249 0.047,0.373 -0.047,-0.109 -0.11,-0.218 -0.171,-0.326 z M 46.351,53.49 c -0.062,0.108 -0.124,0.202 -0.187,0.311 -0.062,0.108 -0.124,0.217 -0.17,0.31 0.016,-0.124 0.031,-0.264 0.046,-0.388 0.093,-0.077 0.202,-0.155 0.311,-0.233 z m -2.934,10.353 c 0,0.124 0.031,0.249 0.031,0.357 l 0,0 0,0 c 0,0.124 -0.031,0.233 -0.031,0.357 -0.046,-0.124 -0.109,-0.233 -0.155,-0.357 0.046,-0.108 0.109,-0.233 0.155,-0.357 z m 2.577,10.445 c 0.062,0.109 0.124,0.219 0.17,0.311 0.063,0.125 0.14,0.234 0.202,0.357 -0.108,-0.078 -0.217,-0.17 -0.341,-0.248 -10e-4,-0.141 -0.016,-0.28 -0.031,-0.42 z m 39.019,-9.715 c 0,-0.124 0.031,-0.233 0.031,-0.357 l 0,0 0,0 c 0,-0.124 -0.031,-0.233 -0.031,-0.357 0.047,0.124 0.109,0.248 0.155,0.357 -0.045,0.108 -0.108,0.232 -0.155,0.357 z M 49.082,49.098 c -0.9,0.605 -1.785,1.211 -2.654,1.847 0.202,-1.273 0.435,-2.53 0.698,-3.787 1.257,-0.264 2.515,-0.497 3.787,-0.699 -0.62,0.869 -1.241,1.754 -1.831,2.639 z m -2.638,28.403 c 0.884,0.637 1.769,1.258 2.669,1.863 0.574,0.869 1.164,1.723 1.77,2.561 -1.257,-0.201 -2.515,-0.434 -3.756,-0.697 -0.264,-1.243 -0.497,-2.485 -0.683,-3.727 z m 35.574,-2.576 c 0.063,-0.107 0.124,-0.201 0.187,-0.311 0.062,-0.107 0.124,-0.217 0.171,-0.311 -0.016,0.125 -0.031,0.264 -0.047,0.389 -0.094,0.078 -0.203,0.156 -0.311,0.233 z m 4.175,-13.332 c -0.435,-0.978 -0.9,-1.956 -1.381,-2.918 0,-0.062 0,-0.125 -0.016,-0.187 -0.063,-1.009 -0.155,-2.018 -0.248,-3.011 0.108,0.093 0.232,0.186 0.341,0.279 0.885,0.729 1.738,1.459 2.577,2.219 -0.388,1.212 -0.823,2.422 -1.273,3.618 z M 81.242,47.158 c 0.265,1.257 0.497,2.514 0.698,3.787 -0.76,-0.559 -1.552,-1.102 -2.328,-1.63 -0.108,-0.078 -0.217,-0.14 -0.31,-0.217 -0.605,-0.9 -1.211,-1.785 -1.848,-2.654 0.373,0.063 0.745,0.125 1.118,0.187 0.886,0.17 1.785,0.34 2.67,0.527 z M 64.417,43.355 c -0.078,0 -0.155,-0.031 -0.233,-0.031 l 0,0 c -0.093,0 -0.17,0.031 -0.264,0.031 0.078,-0.031 0.155,-0.078 0.248,-0.109 0.079,0.032 0.171,0.062 0.249,0.109 z M 43.821,55.462 c -0.109,1.009 -0.187,2.018 -0.264,3.026 0,0.062 0,0.125 -0.016,0.187 -0.481,0.962 -0.931,1.94 -1.381,2.918 -0.465,-1.211 -0.885,-2.421 -1.288,-3.632 0.977,-0.854 1.955,-1.677 2.949,-2.499 z m -1.646,11.361 c 0.435,0.979 0.9,1.955 1.381,2.918 0.062,1.086 0.155,2.158 0.264,3.244 -1.009,-0.822 -1.987,-1.646 -2.949,-2.516 0.42,-1.224 0.838,-2.435 1.304,-3.646 z m 21.606,18.191 c 0.14,0 0.233,0 0.373,0 0.046,0 0.093,0 0.093,0 l 0,0 c 0.155,0 0.17,0 0.232,0 -0.124,0.045 -0.232,0.107 -0.357,0.154 -0.108,-0.046 -0.217,-0.109 -0.341,-0.154 z m 13.705,-3.105 c 0.605,-0.838 1.195,-1.691 1.77,-2.561 0.9,-0.605 1.8,-1.227 2.67,-1.863 -0.202,1.242 -0.435,2.484 -0.684,3.727 -1.242,0.263 -2.499,0.496 -3.756,0.697 z m 7.062,-8.955 c 0.108,-1.07 0.201,-2.143 0.264,-3.213 0.48,-0.963 0.931,-1.939 1.381,-2.918 0.466,1.211 0.885,2.422 1.289,3.633 -0.963,0.853 -1.94,1.676 -2.934,2.498 z M 84.222,52.637 c -0.233,-1.692 -0.513,-3.353 -0.838,-5.014 2.173,0.512 4.299,1.118 6.395,1.801 -0.45,2.157 -0.993,4.299 -1.63,6.441 -1.273,-1.102 -2.592,-2.188 -3.927,-3.228 z M 72.891,43.805 c -1.086,-0.109 -2.173,-0.202 -3.274,-0.264 -0.932,-0.466 -1.878,-0.9 -2.841,-1.335 1.211,-0.465 2.422,-0.884 3.647,-1.288 0.855,0.947 1.677,1.909 2.468,2.887 z M 39.273,59.45 c 0.543,1.599 1.133,3.182 1.785,4.765 -0.652,1.584 -1.242,3.166 -1.785,4.766 -1.614,-1.537 -3.167,-3.121 -4.641,-4.766 1.474,-1.644 3.011,-3.228 4.641,-4.765 z m 4.889,16.344 c 0.233,1.662 0.497,3.307 0.823,4.936 -2.158,-0.512 -4.284,-1.117 -6.379,-1.799 0.45,-2.143 0.993,-4.27 1.629,-6.381 1.257,1.132 2.577,2.205 3.927,3.244 z m 11.284,8.769 c 1.04,0.109 2.095,0.203 3.151,0.264 0.978,0.482 1.956,0.947 2.949,1.383 -1.195,0.449 -2.406,0.869 -3.616,1.271 -0.854,-0.947 -1.677,-1.924 -2.484,-2.918 z m 11.346,1.676 c 0.993,-0.449 1.987,-0.914 2.98,-1.396 1.056,-0.063 2.11,-0.154 3.15,-0.264 -0.807,1.01 -1.645,1.986 -2.499,2.934 -1.225,-0.405 -2.436,-0.823 -3.631,-1.274 z M 89.095,68.966 c -0.543,-1.6 -1.133,-3.182 -1.784,-4.75 0.636,-1.568 1.241,-3.151 1.784,-4.75 1.614,1.521 3.167,3.12 4.626,4.75 -1.459,1.644 -3.012,3.228 -4.626,4.75 z M 80.761,44.985 C 79.1,44.659 77.424,44.38 75.732,44.147 c -1.024,-1.319 -2.08,-2.623 -3.182,-3.865 2.126,-0.636 4.269,-1.18 6.426,-1.63 0.667,2.065 1.273,4.175 1.785,6.333 z M 47.608,83.399 c 1.661,0.326 3.321,0.605 5.013,0.838 1.04,1.336 2.111,2.639 3.213,3.896 -2.126,0.637 -4.269,1.18 -6.426,1.629 -0.683,-2.078 -1.288,-4.205 -1.8,-6.363 z m 24.911,4.766 c 1.117,-1.273 2.188,-2.576 3.229,-3.928 1.691,-0.232 3.368,-0.512 5.014,-0.838 -0.513,2.174 -1.118,4.299 -1.801,6.395 -2.173,-0.434 -4.316,-0.992 -6.442,-1.629 z M 84.207,75.794 c 1.351,-1.039 2.654,-2.125 3.927,-3.244 0.637,2.111 1.18,4.254 1.63,6.381 -2.096,0.682 -4.222,1.287 -6.379,1.799 0.324,-1.614 0.604,-3.274 0.822,-4.936 z M 95.071,62.679 c -1.66,-1.847 -3.43,-3.632 -5.276,-5.339 0.745,-2.406 1.381,-4.827 1.909,-7.264 3.306,1.179 6.519,2.576 9.607,4.175 -1.894,2.949 -3.974,5.759 -6.24,8.428 z M 68.95,39.304 c -1.6,0.543 -3.198,1.149 -4.766,1.785 -1.583,-0.652 -3.166,-1.242 -4.765,-1.785 1.536,-1.629 3.12,-3.182 4.765,-4.656 1.646,1.49 3.244,3.042 4.766,4.656 z M 38.574,57.34 c -1.847,1.708 -3.616,3.492 -5.277,5.339 -2.282,-2.685 -4.361,-5.495 -6.224,-8.428 3.089,-1.599 6.302,-2.996 9.607,-4.175 0.513,2.452 1.15,4.873 1.894,7.264 z m -5.277,8.397 c 1.676,1.846 3.43,3.631 5.277,5.338 -0.745,2.391 -1.366,4.797 -1.894,7.203 -3.306,-1.18 -6.519,-2.563 -9.592,-4.16 1.863,-2.902 3.943,-5.711 6.209,-8.381 z m 26.138,23.404 c 1.599,-0.543 3.182,-1.133 4.749,-1.783 1.567,0.635 3.151,1.24 4.75,1.783 -1.521,1.615 -3.104,3.152 -4.75,4.627 -1.645,-1.474 -3.228,-3.027 -4.749,-4.627 z M 89.794,71.075 c 1.847,-1.707 3.601,-3.492 5.276,-5.338 2.267,2.67 4.347,5.463 6.209,8.381 -3.073,1.598 -6.286,2.98 -9.576,4.16 -0.543,-2.406 -1.163,-4.812 -1.909,-7.203 z m -6.876,-25.64 c -0.543,-2.437 -1.211,-4.827 -1.972,-7.171 3.446,-0.636 6.923,-1.024 10.399,-1.179 -0.155,3.461 -0.543,6.907 -1.18,10.353 -2.373,-0.792 -4.779,-1.444 -7.247,-2.003 z M 71.06,38.621 c -1.707,-1.863 -3.492,-3.617 -5.354,-5.293 2.669,-2.282 5.494,-4.361 8.428,-6.224 1.614,3.088 3.011,6.317 4.19,9.638 -2.452,0.513 -4.873,1.134 -7.264,1.879 z m -13.752,0 c -2.39,-0.745 -4.812,-1.366 -7.248,-1.894 1.18,-3.322 2.577,-6.535 4.19,-9.639 2.934,1.878 5.743,3.958 8.413,6.224 -1.862,1.693 -3.647,3.447 -5.355,5.309 z M 45.45,45.435 c -2.452,0.559 -4.874,1.227 -7.249,1.987 -0.621,-3.43 -1.024,-6.891 -1.179,-10.337 3.477,0.155 6.953,0.559 10.383,1.179 -0.759,2.344 -1.411,4.734 -1.955,7.171 z M 31.962,64.216 c -2.437,2.84 -4.656,5.836 -6.643,8.955 -4.579,-2.529 -8.878,-5.541 -12.805,-8.986 3.927,-3.446 8.21,-6.441 12.774,-8.971 2.003,3.15 4.222,6.146 6.674,9.002 z M 45.435,82.95 c 0.543,2.436 1.211,4.842 1.971,7.201 -3.445,0.637 -6.922,1.025 -10.399,1.18 0.155,-3.461 0.543,-6.922 1.18,-10.367 2.39,0.775 4.795,1.427 7.248,1.986 z m 11.904,6.875 c 1.708,1.848 3.477,3.602 5.324,5.262 -2.669,2.281 -5.494,4.361 -8.413,6.225 -1.599,-3.09 -2.995,-6.287 -4.175,-9.592 2.437,-0.514 4.859,-1.149 7.264,-1.895 z m 13.69,0 c 2.406,0.746 4.827,1.381 7.265,1.895 -1.18,3.305 -2.577,6.502 -4.176,9.592 -2.934,-1.863 -5.743,-3.959 -8.412,-6.225 1.846,-1.66 3.631,-3.414 5.323,-5.262 z m 9.918,0.373 c 0.761,-2.375 1.429,-4.781 1.987,-7.232 2.452,-0.559 4.873,-1.211 7.248,-1.988 0.637,3.463 1.024,6.939 1.18,10.416 -2.437,-0.109 -4.874,-0.342 -7.311,-0.684 -1.04,-0.139 -2.08,-0.326 -3.104,-0.512 z M 96.406,64.216 c 2.438,-2.856 4.672,-5.867 6.659,-9.002 4.578,2.53 8.862,5.541 12.789,8.987 -3.927,3.445 -8.227,6.457 -12.805,8.986 -1.987,-3.135 -4.206,-6.132 -6.643,-8.971 z M 92.091,48.073 c 0.683,-3.679 1.102,-7.373 1.272,-11.066 0.466,-0.016 0.947,-0.031 1.413,-0.031 4.812,0 9.561,0.466 14.17,1.381 -1.676,4.951 -3.88,9.685 -6.581,14.171 C 99.06,50.821 95.63,49.331 92.091,48.073 Z M 80.311,36.34 c -1.258,-3.554 -2.748,-7 -4.471,-10.306 4.486,-2.701 9.235,-4.904 14.187,-6.596 1.024,5.137 1.475,10.368 1.382,15.614 -3.71,0.17 -7.42,0.604 -11.098,1.288 z m -32.253,0 C 44.379,35.657 40.67,35.222 36.945,35.067 36.852,29.821 37.302,24.59 38.326,19.453 c 4.951,1.677 9.701,3.896 14.186,6.597 -1.707,3.29 -3.197,6.735 -4.454,10.29 z M 36.277,48.073 c -3.539,1.257 -6.985,2.747 -10.275,4.47 -2.686,-4.486 -4.905,-9.235 -6.581,-14.171 4.61,-0.916 9.375,-1.381 14.171,-1.381 0.465,0 0.947,0.016 1.412,0.031 0.171,3.679 0.59,7.373 1.273,11.051 z m 0,32.238 c -0.683,3.678 -1.118,7.387 -1.273,11.082 -0.465,0.016 -0.947,0.031 -1.412,0.031 -4.812,0 -9.577,-0.467 -14.171,-1.383 1.676,-4.951 3.896,-9.699 6.597,-14.186 3.29,1.724 6.72,3.214 10.259,4.456 z m 11.796,11.811 c 1.242,3.539 2.732,6.969 4.455,10.26 -4.485,2.701 -9.235,4.904 -14.186,6.598 -1.024,-5.123 -1.475,-10.338 -1.381,-15.568 3.709,-0.173 7.434,-0.607 11.112,-1.29 z m 32.222,0 c 1.847,0.342 3.693,0.621 5.557,0.838 1.847,0.219 3.709,0.357 5.571,0.451 0.094,5.23 -0.372,10.445 -1.381,15.568 -4.951,-1.678 -9.7,-3.896 -14.187,-6.598 1.693,-3.306 3.183,-6.72 4.44,-10.259 z M 73.171,25.32 c -3.136,1.987 -6.146,4.222 -8.987,6.659 -2.855,-2.437 -5.851,-4.672 -8.986,-6.659 2.545,-4.579 5.541,-8.878 8.986,-12.805 3.445,3.942 6.457,8.226 8.987,12.805 z m -17.973,77.761 c 3.135,-1.986 6.146,-4.223 8.986,-6.658 2.856,2.436 5.852,4.672 8.987,6.658 -2.546,4.578 -5.542,8.877 -8.987,12.805 -3.445,-3.928 -6.456,-8.211 -8.986,-12.805 z M 94.761,91.44 c -0.466,0 -0.932,0 -1.413,0 -0.155,-3.711 -0.574,-7.42 -1.272,-11.113 3.539,-1.242 6.969,-2.732 10.26,-4.455 2.7,4.486 4.92,9.219 6.597,14.186 -4.596,0.915 -9.36,1.382 -14.172,1.382 l 0,0 z" /></g></svg>