<?xml version="1.0" encoding="utf-8"?>
<!-- Generator: Adobe Illustrator 16.0.0, SVG Export Plug-In . SVG Version: 6.00 Build 0)  -->
<!DOCTYPE svg PUBLIC "-//W3C//DTD SVG 1.1//EN" "http://www.w3.org/Graphics/SVG/1.1/DTD/svg11.dtd">
<svg version="1.1" id="Calque_1" xmlns="http://www.w3.org/2000/svg" xmlns:xlink="http://www.w3.org/1999/xlink" x="0px" y="0px"
	 width="420.5px" height="128.5px" viewBox="0 0 420.5 128.5" enable-background="new 0 0 420.5 128.5" xml:space="preserve">
<g>
	<g>
		<path fill="#7AC943" d="M64.309,85.014L64.309,85.014c-0.016,0-0.047,0-0.062,0H64.309z"/>
		<path fill="#7AC943" d="M118.415,64.2L118.415,64.2c0-0.279-0.14-0.559-0.356-0.761c-4.237-3.849-8.925-7.17-13.923-9.949
			c1.692-2.81,3.183-5.728,4.486-8.738c0.978-2.235,1.831-4.517,2.576-6.845c0.093-0.264,0.047-0.559-0.093-0.807
			c-0.14-0.248-0.389-0.419-0.652-0.481c-5.091-1.102-10.368-1.645-15.691-1.645c-0.45,0-0.9,0.015-1.351,0.015
			c0.093-5.743-0.45-11.47-1.661-17.088c-0.062-0.28-0.232-0.667-0.481-0.667l0,0l0,0c-0.248,0-0.543-0.155-0.807-0.078
			c-5.448,1.754-10.679,4.144-15.583,7.093c-2.778-5.014-6.115-9.685-9.949-13.923c-0.14-0.155-0.341-0.248-0.543-0.294
			c-0.031,0-0.063,0-0.109-0.016c-0.031,0-0.062-0.016-0.109-0.016c-0.046,0-0.077,0-0.108,0.016c-0.031,0-0.062,0-0.109,0.016
			c-0.202,0.046-0.388,0.14-0.543,0.294c-3.818,4.269-7.14,8.94-9.918,13.954c-4.92-2.949-10.135-5.324-15.583-7.093
			c-0.202-0.062-0.419-0.062-0.621,0c-0.046,0.016-0.093,0.031-0.14,0.047c-0.016,0.016-0.046,0.016-0.062,0.016l0,0l0,0
			c-0.249,0-0.419,0.388-0.481,0.667c-1.21,5.603-1.754,11.346-1.661,17.073c-0.45-0.015-0.9-0.015-1.35-0.015
			c-5.324,0-10.632,0.559-15.708,1.661c-0.279,0.062-0.667,0.233-0.667,0.481l0,0l0,0c0,0.249-0.155,0.543-0.062,0.807
			c1.754,5.448,4.144,10.647,7.078,15.568c-4.998,2.778-9.67,6.115-13.907,9.949c-0.202,0.171-0.311,0.543-0.326,0.807
			c0,0.016,0,0.171,0,0.171h0.093h0.14v-0.233l0,0c0,0.279,0,0.559,0.217,0.745c4.252,3.849,8.862,7.171,13.876,9.948
			c-2.949,4.922-5.355,10.137-7.109,15.584c-0.016,0.063-0.046,0.141-0.062,0.201c-0.016,0.219,0.016,0.42,0.124,0.605
			c0.14,0.248,0.373,0.42,0.652,0.482c5.091,1.102,10.368,1.66,15.692,1.66l0,0c0.45,0,0.9,0,1.351-0.016
			c-0.093,5.727,0.45,11.439,1.661,17.027c0.062,0.279,0.233,0.527,0.481,0.666v0.016l0,0c0.155,0,0.326,0.125,0.496,0.125
			c0.109,0,0.202-0.016,0.311-0.047c5.448-1.754,10.679-4.145,15.583-7.094c2.778,5.014,6.115,9.701,9.949,13.953
			c0.187,0.219,0.466,0.357,0.745,0.357l0,0l0,0c0.279,0,0.559-0.139,0.745-0.357c3.85-4.252,7.171-8.939,9.949-13.938
			c4.92,2.949,10.135,5.324,15.583,7.078c0.093,0.031,0.202,0.047,0.311,0.047c0.171,0,0.342-0.125,0.496-0.125l0,0l0,0
			c0.249-0.139,0.42-0.387,0.481-0.666c1.211-5.588,1.754-11.316,1.661-17.043c0.45,0.016,0.9,0,1.351,0l0,0l0,0l0,0
			c5.323,0,10.601-0.574,15.691-1.66c0.202-0.047,0.388-0.156,0.527-0.326h-0.077c0.047-0.047,0.047-0.109,0.047-0.156l0,0l0,0
			c0-0.248,0.248-0.543,0.154-0.807c-1.753-5.447-4.098-10.662-7.046-15.568c5.013-2.793,9.716-6.115,13.969-9.979
			c0.202-0.188,0.311-0.436,0.326-0.715C118.384,64.231,118.415,64.216,118.415,64.2L118.415,64.2L118.415,64.2L118.415,64.2z
			 M49.393,38.652c1.583,0.326,3.151,0.699,4.703,1.133c0.575,0.155,1.149,0.326,1.708,0.497c-0.621,0.714-1.242,1.443-1.847,2.188
			c-0.45,0.543-0.885,1.102-1.319,1.661c-1.692,0.233-3.368,0.512-5.029,0.838c0.403-1.708,0.869-3.415,1.381-5.076
			C49.129,39.475,49.269,39.056,49.393,38.652z M39.692,49.082c1.738-0.543,3.508-1.024,5.293-1.443
			c-0.078,0.419-0.155,0.838-0.233,1.257c-0.016,0.093-0.031,0.186-0.062,0.295c-0.031,0.202-0.063,0.419-0.109,0.621
			c-0.155,0.947-0.311,1.894-0.435,2.84c-1.35,1.04-2.654,2.111-3.927,3.229c-0.636-2.126-1.18-4.284-1.63-6.441
			C38.962,49.315,39.319,49.191,39.692,49.082z M57.308,41.617c0.155-0.171,0.311-0.342,0.45-0.512
			c0.047-0.063,0.093-0.109,0.14-0.171c1.227,0.404,2.437,0.823,3.647,1.272c-0.946,0.419-1.893,0.869-2.825,1.319
			c-1.102,0.063-2.188,0.155-3.275,0.264c0.528-0.652,1.071-1.304,1.63-1.94C57.169,41.787,57.247,41.695,57.308,41.617z
			 M80.466,73.606c-0.839,1.459-1.724,2.871-2.624,4.252c-1.381,0.916-2.793,1.785-4.252,2.623
			c-1.413,0.822-2.856,1.553-4.315,2.281c-1.691,0.094-3.384,0.125-5.091,0.125l0,0c-1.723,0-3.445-0.031-5.153-0.125
			c-1.428-0.713-2.856-1.459-4.253-2.266c-1.443-0.838-2.856-1.691-4.222-2.607c-0.916-1.396-1.816-2.824-2.654-4.299
			c-0.838-1.459-1.63-2.918-2.375-4.408c-0.093-1.66-0.155-3.322-0.155-4.998c0-1.676,0.047-3.337,0.155-4.998
			c0.745-1.49,1.537-2.949,2.375-4.408c0.838-1.459,1.723-2.871,2.623-4.253c1.381-0.916,2.793-1.785,4.252-2.623
			c1.443-0.838,2.918-1.629,4.408-2.375c1.661-0.093,3.321-0.155,4.998-0.155c1.661,0,3.321,0.047,4.951,0.155
			c1.49,0.745,2.98,1.537,4.439,2.39c1.459,0.838,2.871,1.723,4.268,2.639c0.9,1.381,1.785,2.794,2.608,4.237
			c0.838,1.459,1.63,2.918,2.374,4.408c0.094,1.661,0.155,3.321,0.155,4.998c0,1.676-0.046,3.338-0.155,4.998
			C82.095,70.688,81.304,72.163,80.466,73.606z M53.785,82.251c0.046,0.031,0.108,0.063,0.155,0.078
			c-0.093-0.016-0.171-0.016-0.264-0.031c-0.062-0.078-0.108-0.141-0.155-0.217C53.599,82.143,53.692,82.204,53.785,82.251z
			 M74.583,82.251c0.093-0.047,0.187-0.107,0.279-0.17c-0.047,0.076-0.108,0.139-0.155,0.217c-0.093,0.016-0.187,0.016-0.264,0.031
			C74.491,82.313,74.537,82.282,74.583,82.251z M74.583,46.196c-0.108-0.062-0.218-0.124-0.326-0.187
			c0.14,0.016,0.264,0.031,0.403,0.047c0.078,0.108,0.155,0.217,0.233,0.31C74.8,46.32,74.692,46.242,74.583,46.196z M53.785,46.196
			c-0.109,0.062-0.202,0.124-0.311,0.186c0.078-0.108,0.155-0.217,0.233-0.31c0.124-0.016,0.264-0.031,0.388-0.047
			C53.987,46.072,53.894,46.134,53.785,46.196z M82.205,53.801c-0.063-0.093-0.109-0.187-0.171-0.279
			c0.093,0.077,0.201,0.155,0.295,0.232c0.016,0.125,0.031,0.249,0.047,0.373C82.329,54.018,82.266,53.909,82.205,53.801z
			 M46.351,53.49c-0.062,0.108-0.124,0.202-0.187,0.311c-0.062,0.108-0.124,0.217-0.17,0.31c0.016-0.124,0.031-0.264,0.046-0.388
			C46.133,53.646,46.242,53.568,46.351,53.49z M43.417,63.843c0,0.124,0.031,0.249,0.031,0.357l0,0l0,0
			c0,0.124-0.031,0.233-0.031,0.357c-0.046-0.124-0.109-0.233-0.155-0.357C43.308,64.092,43.371,63.967,43.417,63.843z
			 M45.994,74.288c0.062,0.109,0.124,0.219,0.17,0.311c0.063,0.125,0.14,0.234,0.202,0.357c-0.108-0.078-0.217-0.17-0.341-0.248
			C46.024,74.567,46.009,74.428,45.994,74.288z M85.013,64.573c0-0.124,0.031-0.233,0.031-0.357l0,0l0,0
			c0-0.124-0.031-0.233-0.031-0.357c0.047,0.124,0.109,0.248,0.155,0.357C85.123,64.324,85.06,64.448,85.013,64.573z M49.082,49.098
			c-0.9,0.605-1.785,1.211-2.654,1.847c0.202-1.273,0.435-2.53,0.698-3.787c1.257-0.264,2.515-0.497,3.787-0.699
			C50.293,47.328,49.672,48.213,49.082,49.098z M46.444,77.501c0.884,0.637,1.769,1.258,2.669,1.863
			c0.574,0.869,1.164,1.723,1.77,2.561c-1.257-0.201-2.515-0.434-3.756-0.697C46.863,79.985,46.63,78.743,46.444,77.501z
			 M82.018,74.925c0.063-0.107,0.124-0.201,0.187-0.311c0.062-0.107,0.124-0.217,0.171-0.311c-0.016,0.125-0.031,0.264-0.047,0.389
			C82.235,74.77,82.126,74.848,82.018,74.925z M86.193,61.593c-0.435-0.978-0.9-1.956-1.381-2.918c0-0.062,0-0.125-0.016-0.187
			c-0.063-1.009-0.155-2.018-0.248-3.011c0.108,0.093,0.232,0.186,0.341,0.279c0.885,0.729,1.738,1.459,2.577,2.219
			C87.078,59.187,86.643,60.397,86.193,61.593z M81.242,47.158c0.265,1.257,0.497,2.514,0.698,3.787
			c-0.76-0.559-1.552-1.102-2.328-1.63c-0.108-0.078-0.217-0.14-0.31-0.217c-0.605-0.9-1.211-1.785-1.848-2.654
			c0.373,0.063,0.745,0.125,1.118,0.187C79.458,46.801,80.357,46.971,81.242,47.158z M64.417,43.355
			c-0.078,0-0.155-0.031-0.233-0.031l0,0c-0.093,0-0.17,0.031-0.264,0.031c0.078-0.031,0.155-0.078,0.248-0.109
			C64.247,43.278,64.339,43.308,64.417,43.355z M43.821,55.462c-0.109,1.009-0.187,2.018-0.264,3.026c0,0.062,0,0.125-0.016,0.187
			c-0.481,0.962-0.931,1.94-1.381,2.918c-0.465-1.211-0.885-2.421-1.288-3.632C41.849,57.107,42.827,56.284,43.821,55.462z
			 M42.175,66.823c0.435,0.979,0.9,1.955,1.381,2.918c0.062,1.086,0.155,2.158,0.264,3.244c-1.009-0.822-1.987-1.646-2.949-2.516
			C41.291,69.245,41.709,68.034,42.175,66.823z M63.781,85.014c0.14,0,0.233,0,0.373,0c0.046,0,0.093,0,0.093,0l0,0
			c0.155,0,0.17,0,0.232,0c-0.124,0.045-0.232,0.107-0.357,0.154C64.014,85.122,63.905,85.059,63.781,85.014z M77.486,81.909
			c0.605-0.838,1.195-1.691,1.77-2.561c0.9-0.605,1.8-1.227,2.67-1.863c-0.202,1.242-0.435,2.484-0.684,3.727
			C80,81.475,78.743,81.708,77.486,81.909z M84.548,72.954c0.108-1.07,0.201-2.143,0.264-3.213c0.48-0.963,0.931-1.939,1.381-2.918
			c0.466,1.211,0.885,2.422,1.289,3.633C86.519,71.309,85.542,72.132,84.548,72.954z M84.222,52.637
			c-0.233-1.692-0.513-3.353-0.838-5.014c2.173,0.512,4.299,1.118,6.395,1.801c-0.45,2.157-0.993,4.299-1.63,6.441
			C86.876,54.763,85.557,53.677,84.222,52.637z M72.891,43.805c-1.086-0.109-2.173-0.202-3.274-0.264
			c-0.932-0.466-1.878-0.9-2.841-1.335c1.211-0.465,2.422-0.884,3.647-1.288C71.278,41.865,72.1,42.827,72.891,43.805z
			 M39.273,59.45c0.543,1.599,1.133,3.182,1.785,4.765c-0.652,1.584-1.242,3.166-1.785,4.766c-1.614-1.537-3.167-3.121-4.641-4.766
			C36.106,62.571,37.643,60.987,39.273,59.45z M44.162,75.794c0.233,1.662,0.497,3.307,0.823,4.936
			c-2.158-0.512-4.284-1.117-6.379-1.799c0.45-2.143,0.993-4.27,1.629-6.381C41.492,73.682,42.812,74.755,44.162,75.794z
			 M55.446,84.563c1.04,0.109,2.095,0.203,3.151,0.264c0.978,0.482,1.956,0.947,2.949,1.383c-1.195,0.449-2.406,0.869-3.616,1.271
			C57.076,86.534,56.253,85.557,55.446,84.563z M66.792,86.239c0.993-0.449,1.987-0.914,2.98-1.396
			c1.056-0.063,2.11-0.154,3.15-0.264c-0.807,1.01-1.645,1.986-2.499,2.934C69.198,87.108,67.987,86.69,66.792,86.239z
			 M89.095,68.966c-0.543-1.6-1.133-3.182-1.784-4.75c0.636-1.568,1.241-3.151,1.784-4.75c1.614,1.521,3.167,3.12,4.626,4.75
			C92.262,65.86,90.709,67.444,89.095,68.966z M80.761,44.985c-1.661-0.326-3.337-0.605-5.029-0.838
			c-1.024-1.319-2.08-2.623-3.182-3.865c2.126-0.636,4.269-1.18,6.426-1.63C79.643,40.717,80.249,42.827,80.761,44.985z
			 M47.608,83.399c1.661,0.326,3.321,0.605,5.013,0.838c1.04,1.336,2.111,2.639,3.213,3.896c-2.126,0.637-4.269,1.18-6.426,1.629
			C48.725,87.684,48.12,85.557,47.608,83.399z M72.519,88.165c1.117-1.273,2.188-2.576,3.229-3.928
			c1.691-0.232,3.368-0.512,5.014-0.838c-0.513,2.174-1.118,4.299-1.801,6.395C76.788,89.36,74.645,88.802,72.519,88.165z
			 M84.207,75.794c1.351-1.039,2.654-2.125,3.927-3.244c0.637,2.111,1.18,4.254,1.63,6.381c-2.096,0.682-4.222,1.287-6.379,1.799
			C83.709,79.116,83.989,77.456,84.207,75.794z M95.071,62.679c-1.66-1.847-3.43-3.632-5.276-5.339
			c0.745-2.406,1.381-4.827,1.909-7.264c3.306,1.179,6.519,2.576,9.607,4.175C99.417,57.2,97.337,60.01,95.071,62.679z
			 M68.95,39.304c-1.6,0.543-3.198,1.149-4.766,1.785c-1.583-0.652-3.166-1.242-4.765-1.785c1.536-1.629,3.12-3.182,4.765-4.656
			C65.83,36.138,67.428,37.69,68.95,39.304z M38.574,57.34c-1.847,1.708-3.616,3.492-5.277,5.339
			c-2.282-2.685-4.361-5.495-6.224-8.428c3.089-1.599,6.302-2.996,9.607-4.175C37.193,52.528,37.83,54.949,38.574,57.34z
			 M33.297,65.737c1.676,1.846,3.43,3.631,5.277,5.338c-0.745,2.391-1.366,4.797-1.894,7.203c-3.306-1.18-6.519-2.563-9.592-4.16
			C28.951,71.216,31.031,68.407,33.297,65.737z M59.435,89.141c1.599-0.543,3.182-1.133,4.749-1.783
			c1.567,0.635,3.151,1.24,4.75,1.783c-1.521,1.615-3.104,3.152-4.75,4.627C62.539,92.294,60.956,90.741,59.435,89.141z
			 M89.794,71.075c1.847-1.707,3.601-3.492,5.276-5.338c2.267,2.67,4.347,5.463,6.209,8.381c-3.073,1.598-6.286,2.98-9.576,4.16
			C91.16,75.872,90.54,73.466,89.794,71.075z M82.918,45.435c-0.543-2.437-1.211-4.827-1.972-7.171
			c3.446-0.636,6.923-1.024,10.399-1.179c-0.155,3.461-0.543,6.907-1.18,10.353C87.792,46.646,85.386,45.994,82.918,45.435z
			 M71.06,38.621c-1.707-1.863-3.492-3.617-5.354-5.293c2.669-2.282,5.494-4.361,8.428-6.224c1.614,3.088,3.011,6.317,4.19,9.638
			C75.872,37.255,73.451,37.876,71.06,38.621z M57.308,38.621c-2.39-0.745-4.812-1.366-7.248-1.894
			c1.18-3.322,2.577-6.535,4.19-9.639c2.934,1.878,5.743,3.958,8.413,6.224C60.801,35.005,59.016,36.759,57.308,38.621z
			 M45.45,45.435c-2.452,0.559-4.874,1.227-7.249,1.987c-0.621-3.43-1.024-6.891-1.179-10.337c3.477,0.155,6.953,0.559,10.383,1.179
			C46.646,40.608,45.994,42.998,45.45,45.435z M31.962,64.216c-2.437,2.84-4.656,5.836-6.643,8.955
			c-4.579-2.529-8.878-5.541-12.805-8.986c3.927-3.446,8.21-6.441,12.774-8.971C27.291,58.364,29.51,61.36,31.962,64.216z
			 M45.435,82.95c0.543,2.436,1.211,4.842,1.971,7.201c-3.445,0.637-6.922,1.025-10.399,1.18c0.155-3.461,0.543-6.922,1.18-10.367
			C40.577,81.739,42.982,82.391,45.435,82.95z M57.339,89.825c1.708,1.848,3.477,3.602,5.324,5.262
			c-2.669,2.281-5.494,4.361-8.413,6.225c-1.599-3.09-2.995-6.287-4.175-9.592C52.512,91.206,54.934,90.571,57.339,89.825z
			 M71.029,89.825c2.406,0.746,4.827,1.381,7.265,1.895c-1.18,3.305-2.577,6.502-4.176,9.592c-2.934-1.863-5.743-3.959-8.412-6.225
			C67.552,93.427,69.337,91.673,71.029,89.825z M80.947,90.198c0.761-2.375,1.429-4.781,1.987-7.232
			c2.452-0.559,4.873-1.211,7.248-1.988c0.637,3.463,1.024,6.939,1.18,10.416c-2.437-0.109-4.874-0.342-7.311-0.684
			C83.011,90.571,81.971,90.384,80.947,90.198z M96.406,64.216c2.438-2.856,4.672-5.867,6.659-9.002
			c4.578,2.53,8.862,5.541,12.789,8.987c-3.927,3.445-8.227,6.457-12.805,8.986C101.062,70.052,98.843,67.055,96.406,64.216z
			 M92.091,48.073c0.683-3.679,1.102-7.373,1.272-11.066c0.466-0.016,0.947-0.031,1.413-0.031c4.812,0,9.561,0.466,14.17,1.381
			c-1.676,4.951-3.88,9.685-6.581,14.171C99.06,50.821,95.63,49.331,92.091,48.073z M80.311,36.34
			c-1.258-3.554-2.748-7-4.471-10.306c4.486-2.701,9.235-4.904,14.187-6.596c1.024,5.137,1.475,10.368,1.382,15.614
			C87.699,35.222,83.989,35.656,80.311,36.34z M48.058,36.34c-3.679-0.683-7.388-1.118-11.113-1.273
			c-0.093-5.246,0.357-10.477,1.381-15.614c4.951,1.677,9.701,3.896,14.186,6.597C50.805,29.34,49.315,32.785,48.058,36.34z
			 M36.277,48.073c-3.539,1.257-6.985,2.747-10.275,4.47c-2.686-4.486-4.905-9.235-6.581-14.171
			c4.61-0.916,9.375-1.381,14.171-1.381c0.465,0,0.947,0.016,1.412,0.031C35.175,40.701,35.594,44.395,36.277,48.073z
			 M36.277,80.311c-0.683,3.678-1.118,7.387-1.273,11.082c-0.465,0.016-0.947,0.031-1.412,0.031c-4.812,0-9.577-0.467-14.171-1.383
			c1.676-4.951,3.896-9.699,6.597-14.186C29.308,77.579,32.738,79.069,36.277,80.311z M48.073,92.122
			c1.242,3.539,2.732,6.969,4.455,10.26c-4.485,2.701-9.235,4.904-14.186,6.598c-1.024-5.123-1.475-10.338-1.381-15.568
			C40.67,93.239,44.395,92.805,48.073,92.122z M80.295,92.122c1.847,0.342,3.693,0.621,5.557,0.838
			c1.847,0.219,3.709,0.357,5.571,0.451c0.094,5.23-0.372,10.445-1.381,15.568c-4.951-1.678-9.7-3.896-14.187-6.598
			C77.548,99.075,79.038,95.661,80.295,92.122z M73.171,25.32c-3.136,1.987-6.146,4.222-8.987,6.659
			c-2.855-2.437-5.851-4.672-8.986-6.659c2.545-4.579,5.541-8.878,8.986-12.805C67.629,16.457,70.641,20.741,73.171,25.32z
			 M55.198,103.081c3.135-1.986,6.146-4.223,8.986-6.658c2.856,2.436,5.852,4.672,8.987,6.658
			c-2.546,4.578-5.542,8.877-8.987,12.805C60.739,111.958,57.728,107.675,55.198,103.081z M94.761,91.44c-0.466,0-0.932,0-1.413,0
			c-0.155-3.711-0.574-7.42-1.272-11.113c3.539-1.242,6.969-2.732,10.26-4.455c2.7,4.486,4.92,9.219,6.597,14.186
			C104.337,90.973,99.573,91.44,94.761,91.44L94.761,91.44z"/>
	</g>
	<g>
		<path fill="#7AC943" d="M137.852,69.006c0.029-0.039,0.068-0.059,0.117-0.059s0.093,0.015,0.132,0.044
			c0.771,0.625,1.658,1.126,2.659,1.502s2.058,0.563,3.171,0.563c1.25,0,2.236-0.259,2.959-0.776
			c0.684-0.498,1.025-1.157,1.025-1.978c0-1.543-0.864-2.432-2.593-2.666h0.015c-0.244-0.029-0.476-0.059-0.696-0.088
			s-0.439-0.059-0.659-0.088s-0.444-0.061-0.674-0.095s-0.481-0.071-0.754-0.11c-0.918-0.127-1.736-0.358-2.454-0.696
			c-0.718-0.336-1.321-0.783-1.809-1.34c-0.488-0.566-0.854-1.184-1.099-1.854c-0.244-0.668-0.366-1.398-0.366-2.189
			c0-1.855,0.615-3.364,1.846-4.526c1.24-1.182,2.964-1.772,5.171-1.772c0.654,0,1.292,0.057,1.912,0.168
			c0.62,0.113,1.221,0.267,1.802,0.462s1.138,0.428,1.67,0.696s1.042,0.563,1.531,0.886c0.098,0.068,0.112,0.151,0.044,0.249
			l-1.772,2.622c-0.068,0.088-0.146,0.103-0.234,0.044c-0.762-0.479-1.572-0.861-2.432-1.15c-0.859-0.287-1.748-0.432-2.666-0.432
			c-0.469,0-0.903,0.057-1.304,0.168c-0.4,0.113-0.762,0.296-1.084,0.55c-0.635,0.459-0.952,1.157-0.952,2.095
			c0,0.537,0.215,1.06,0.645,1.567c0.215,0.234,0.503,0.433,0.864,0.593c0.361,0.162,0.806,0.281,1.333,0.359
			c0.283,0.049,0.615,0.101,0.996,0.154s0.83,0.109,1.348,0.168c2.002,0.244,3.486,0.981,4.453,2.212
			c0.967,1.201,1.45,2.539,1.45,4.014c0,1.973-0.688,3.516-2.065,4.629c-1.387,1.094-3.213,1.641-5.479,1.641
			c-3.193,0-5.908-0.977-8.145-2.93c-0.039-0.029-0.059-0.068-0.059-0.117s0.015-0.093,0.044-0.132L137.852,69.006z"/>
		<path fill="#7AC943" d="M169.083,68.186c0.059,0,0.107,0.022,0.146,0.065c0.039,0.045,0.049,0.096,0.029,0.154
			c-0.41,1.992-1.318,3.525-2.725,4.6c-0.684,0.518-1.426,0.908-2.227,1.172s-1.665,0.396-2.593,0.396
			c-1.689,0-3.11-0.405-4.263-1.216c-1.133-0.801-1.953-1.68-2.461-2.637c-0.176-0.332-0.327-0.666-0.454-1.004
			c-0.127-0.336-0.225-0.69-0.293-1.062c-0.127-0.723-0.19-2.363-0.19-4.922c0-1.279,0.015-2.324,0.044-3.135
			s0.078-1.401,0.146-1.772s0.166-0.728,0.293-1.069s0.278-0.679,0.454-1.011c0.508-0.947,1.328-1.826,2.461-2.637
			c1.143-0.82,2.563-1.23,4.263-1.23c2.031,0,3.711,0.625,5.039,1.875c1.348,1.26,2.183,2.754,2.505,4.482
			c0.02,0.059,0.01,0.107-0.029,0.146s-0.088,0.059-0.146,0.059h-3.354c-0.088,0-0.142-0.039-0.161-0.117
			c-0.127-0.391-0.308-0.754-0.542-1.092c-0.234-0.336-0.522-0.651-0.864-0.944c-0.645-0.576-1.46-0.864-2.446-0.864
			c-0.732,0-1.357,0.146-1.875,0.439s-0.933,0.63-1.245,1.011c-0.186,0.234-0.347,0.501-0.483,0.798
			c-0.137,0.299-0.244,0.604-0.322,0.916c-0.078,0.332-0.132,0.845-0.161,1.538s-0.044,1.563-0.044,2.607
			c0,1.064,0.015,1.94,0.044,2.63c0.029,0.688,0.083,1.198,0.161,1.53c0.078,0.303,0.188,0.604,0.33,0.901s0.3,0.559,0.476,0.783
			c0.313,0.41,0.728,0.76,1.245,1.047c0.518,0.289,1.143,0.433,1.875,0.433c1.689,0,2.974-0.923,3.853-2.769
			c0.02-0.02,0.044-0.041,0.073-0.066c0.029-0.023,0.059-0.036,0.088-0.036H169.083z"/>
		<path fill="#7AC943" d="M171.602,74.397c-0.117,0-0.176-0.059-0.176-0.176V53.23c0-0.117,0.059-0.176,0.176-0.176h8.218
			c0.908,0,1.729,0.125,2.461,0.373c0.732,0.25,1.372,0.604,1.919,1.063c0.283,0.264,0.554,0.564,0.813,0.9
			c0.259,0.338,0.488,0.701,0.688,1.092s0.359,0.806,0.476,1.245s0.176,0.894,0.176,1.362c0,0.693-0.098,1.351-0.293,1.971
			s-0.469,1.198-0.82,1.735c-0.361,0.498-0.781,0.936-1.26,1.312s-1.021,0.676-1.626,0.9c0.791,1.514,1.587,3.035,2.388,4.563
			c0.801,1.529,1.597,3.05,2.388,4.563c0.029,0.068,0.029,0.13,0,0.183c-0.029,0.055-0.078,0.081-0.146,0.081h-3.779
			c-0.029,0-0.059-0.013-0.088-0.036c-0.029-0.024-0.054-0.047-0.073-0.066l-4.292-8.862h-3.794v8.789
			c0,0.117-0.059,0.176-0.176,0.176H171.602z M174.957,56.233v6.021h4.644c1.133,0,1.982-0.313,2.549-0.938s0.85-1.367,0.85-2.227
			c0-0.488-0.085-0.923-0.256-1.304s-0.417-0.693-0.74-0.938c-0.283-0.195-0.613-0.347-0.989-0.454s-0.784-0.161-1.223-0.161
			H174.957z"/>
		<path fill="#7AC943" d="M187.686,74.382c-0.068,0-0.117-0.024-0.146-0.073s-0.034-0.103-0.015-0.161l7.676-21.006
			c0.02-0.078,0.068-0.117,0.146-0.117h2.622c0.029,0,0.061,0.013,0.095,0.037s0.057,0.051,0.066,0.08l7.661,21.006
			c0.02,0.059,0.015,0.112-0.015,0.161s-0.073,0.073-0.132,0.073h-3.354c-0.078,0-0.127-0.039-0.146-0.117l-1.582-4.629h-7.734
			c-0.273,0.791-0.545,1.565-0.813,2.322c-0.27,0.757-0.54,1.525-0.813,2.307c-0.01,0.029-0.032,0.057-0.065,0.08
			c-0.035,0.025-0.066,0.037-0.096,0.037H187.686z M199.507,66.487c-0.02-0.068-0.047-0.142-0.08-0.22
			c-0.035-0.078-0.062-0.146-0.081-0.205c-0.166-0.479-0.317-0.92-0.454-1.326c-0.137-0.404-0.259-0.759-0.366-1.062
			c-0.068-0.195-0.135-0.386-0.198-0.571s-0.124-0.361-0.183-0.527c-0.049-0.156-0.098-0.305-0.146-0.447
			c-0.049-0.141-0.098-0.28-0.146-0.417c-0.088-0.283-0.179-0.566-0.271-0.85c-0.094-0.283-0.188-0.576-0.286-0.879
			c-0.049-0.137-0.101-0.288-0.153-0.454c-0.055-0.166-0.11-0.342-0.169-0.527c-0.029-0.098-0.052-0.173-0.065-0.227
			c-0.016-0.054-0.032-0.107-0.052-0.162c-0.02-0.053-0.042-0.114-0.065-0.183c-0.025-0.068-0.057-0.166-0.096-0.293
			c-0.107,0.322-0.208,0.62-0.301,0.894s-0.178,0.527-0.256,0.762c-0.02,0.059-0.034,0.112-0.044,0.161s-0.024,0.098-0.044,0.146
			c-0.049,0.166-0.101,0.322-0.154,0.469s-0.104,0.293-0.153,0.439c-0.049,0.156-0.098,0.308-0.146,0.454s-0.098,0.288-0.146,0.425
			c-0.098,0.293-0.198,0.601-0.3,0.923c-0.104,0.322-0.218,0.659-0.345,1.011s-0.259,0.73-0.396,1.136s-0.313,0.915-0.527,1.53
			H199.507z"/>
		<path fill="#7AC943" d="M212.149,74.397c-0.117,0-0.176-0.059-0.176-0.176V56.233h-5.581c-0.117,0-0.176-0.059-0.176-0.176V53.23
			c0-0.117,0.059-0.176,0.176-0.176h14.678c0.117,0,0.176,0.059,0.176,0.176v2.827c0,0.117-0.059,0.176-0.176,0.176h-5.566v17.988
			c0,0.117-0.059,0.176-0.176,0.176H212.149z"/>
		<path fill="#7AC943" d="M237.74,68.186c0.059,0,0.107,0.022,0.146,0.065c0.039,0.045,0.049,0.096,0.029,0.154
			c-0.41,1.992-1.318,3.525-2.725,4.6c-0.684,0.518-1.426,0.908-2.227,1.172s-1.665,0.396-2.593,0.396
			c-1.689,0-3.11-0.405-4.263-1.216c-1.133-0.801-1.953-1.68-2.461-2.637c-0.176-0.332-0.327-0.666-0.454-1.004
			c-0.127-0.336-0.225-0.69-0.293-1.062c-0.127-0.723-0.19-2.363-0.19-4.922c0-1.279,0.015-2.324,0.044-3.135
			s0.078-1.401,0.146-1.772s0.166-0.728,0.293-1.069s0.278-0.679,0.454-1.011c0.508-0.947,1.328-1.826,2.461-2.637
			c1.143-0.82,2.563-1.23,4.263-1.23c2.031,0,3.711,0.625,5.039,1.875c1.348,1.26,2.183,2.754,2.505,4.482
			c0.02,0.059,0.01,0.107-0.029,0.146s-0.088,0.059-0.146,0.059h-3.354c-0.088,0-0.142-0.039-0.161-0.117
			c-0.127-0.391-0.308-0.754-0.542-1.092c-0.234-0.336-0.522-0.651-0.864-0.944c-0.645-0.576-1.46-0.864-2.446-0.864
			c-0.732,0-1.357,0.146-1.875,0.439s-0.933,0.63-1.245,1.011c-0.186,0.234-0.347,0.501-0.483,0.798
			c-0.137,0.299-0.244,0.604-0.322,0.916c-0.078,0.332-0.132,0.845-0.161,1.538s-0.044,1.563-0.044,2.607
			c0,1.064,0.015,1.94,0.044,2.63c0.029,0.688,0.083,1.198,0.161,1.53c0.078,0.303,0.188,0.604,0.329,0.901s0.301,0.559,0.477,0.783
			c0.313,0.41,0.728,0.76,1.245,1.047c0.518,0.289,1.143,0.433,1.875,0.433c1.689,0,2.974-0.923,3.853-2.769
			c0.02-0.02,0.044-0.041,0.073-0.066c0.029-0.023,0.059-0.036,0.088-0.036H237.74z"/>
		<path fill="#7AC943" d="M251.773,74.397c-0.117,0-0.176-0.059-0.176-0.176v-8.994h-7.983v8.994c0,0.117-0.059,0.176-0.176,0.176
			h-3.179c-0.117,0-0.176-0.059-0.176-0.176V53.23c0-0.117,0.059-0.176,0.176-0.176h3.179c0.117,0,0.176,0.059,0.176,0.176v8.818
			h7.983V53.23c0-0.117,0.059-0.176,0.176-0.176h3.179c0.117,0,0.176,0.059,0.176,0.176v20.991c0,0.117-0.059,0.176-0.176,0.176
			H251.773z"/>
		<path fill="#900081" d="M257.486,74.382c-0.068,0-0.117-0.024-0.146-0.073s-0.034-0.103-0.015-0.161L265,53.142
			c0.02-0.078,0.068-0.117,0.146-0.117h2.622c0.029,0,0.061,0.013,0.095,0.037s0.057,0.051,0.066,0.08l7.661,21.006
			c0.02,0.059,0.015,0.112-0.015,0.161s-0.073,0.073-0.132,0.073h-3.354c-0.078,0-0.127-0.039-0.146-0.117l-1.582-4.629h-7.734
			c-0.273,0.791-0.545,1.565-0.813,2.322c-0.27,0.757-0.54,1.525-0.813,2.307c-0.01,0.029-0.032,0.057-0.065,0.08
			c-0.035,0.025-0.066,0.037-0.096,0.037H257.486z M269.307,66.487c-0.02-0.068-0.047-0.142-0.08-0.22
			c-0.035-0.078-0.062-0.146-0.081-0.205c-0.166-0.479-0.317-0.92-0.454-1.326c-0.137-0.404-0.259-0.759-0.366-1.062
			c-0.068-0.195-0.135-0.386-0.198-0.571s-0.124-0.361-0.183-0.527c-0.049-0.156-0.098-0.305-0.146-0.447
			c-0.049-0.141-0.098-0.28-0.146-0.417c-0.088-0.283-0.179-0.566-0.271-0.85c-0.094-0.283-0.188-0.576-0.286-0.879
			c-0.049-0.137-0.101-0.288-0.153-0.454c-0.055-0.166-0.11-0.342-0.169-0.527c-0.029-0.098-0.052-0.173-0.065-0.227
			c-0.016-0.054-0.032-0.107-0.052-0.162c-0.02-0.053-0.042-0.114-0.065-0.183c-0.025-0.068-0.057-0.166-0.096-0.293
			c-0.107,0.322-0.208,0.62-0.301,0.894s-0.178,0.527-0.256,0.762c-0.02,0.059-0.034,0.112-0.044,0.161s-0.024,0.098-0.044,0.146
			c-0.049,0.166-0.101,0.322-0.154,0.469s-0.104,0.293-0.153,0.439c-0.049,0.156-0.098,0.308-0.146,0.454s-0.098,0.288-0.146,0.425
			c-0.098,0.293-0.198,0.601-0.3,0.923c-0.104,0.322-0.218,0.659-0.345,1.011s-0.259,0.73-0.396,1.136s-0.313,0.915-0.527,1.53
			H269.307z"/>
		<path fill="#900081" d="M277.833,53.23c0-0.117,0.059-0.176,0.176-0.176h3.193c0.107,0,0.161,0.059,0.161,0.176v13.535
			c0,1.406,0.391,2.471,1.172,3.193c0.791,0.732,1.772,1.099,2.944,1.099c1.152,0,2.124-0.366,2.915-1.099s1.187-1.797,1.187-3.193
			V53.23c0-0.117,0.059-0.176,0.176-0.176h3.179c0.117,0,0.176,0.059,0.176,0.176v13.887c0,2.246-0.747,4.053-2.241,5.42
			c-1.475,1.357-3.271,2.036-5.391,2.036c-2.129,0-3.936-0.679-5.42-2.036c-1.484-1.367-2.227-3.174-2.227-5.42V53.23z"/>
		<path fill="#7AC943" d="M311.436,68.186c0.059,0,0.107,0.022,0.146,0.065c0.039,0.045,0.049,0.096,0.029,0.154
			c-0.41,1.992-1.318,3.525-2.725,4.6c-0.684,0.518-1.426,0.908-2.227,1.172s-1.665,0.396-2.593,0.396
			c-1.689,0-3.11-0.405-4.263-1.216c-1.133-0.801-1.953-1.68-2.461-2.637c-0.176-0.332-0.327-0.666-0.454-1.004
			c-0.127-0.336-0.225-0.69-0.293-1.062c-0.127-0.723-0.19-2.363-0.19-4.922c0-1.279,0.015-2.324,0.044-3.135
			s0.078-1.401,0.146-1.772s0.166-0.728,0.293-1.069s0.278-0.679,0.454-1.011c0.508-0.947,1.328-1.826,2.461-2.637
			c1.143-0.82,2.563-1.23,4.263-1.23c2.031,0,3.711,0.625,5.039,1.875c1.348,1.26,2.183,2.754,2.505,4.482
			c0.02,0.059,0.01,0.107-0.029,0.146s-0.088,0.059-0.146,0.059h-3.354c-0.088,0-0.142-0.039-0.161-0.117
			c-0.127-0.391-0.308-0.754-0.542-1.092c-0.234-0.336-0.522-0.651-0.864-0.944c-0.645-0.576-1.46-0.864-2.446-0.864
			c-0.732,0-1.357,0.146-1.875,0.439s-0.933,0.63-1.245,1.011c-0.186,0.234-0.347,0.501-0.483,0.798
			c-0.137,0.299-0.244,0.604-0.322,0.916c-0.078,0.332-0.132,0.845-0.161,1.538s-0.044,1.563-0.044,2.607
			c0,1.064,0.015,1.94,0.044,2.63c0.029,0.688,0.083,1.198,0.161,1.53c0.078,0.303,0.188,0.604,0.329,0.901s0.301,0.559,0.477,0.783
			c0.313,0.41,0.728,0.76,1.245,1.047c0.518,0.289,1.143,0.433,1.875,0.433c1.689,0,2.974-0.923,3.853-2.769
			c0.02-0.02,0.044-0.041,0.073-0.066c0.029-0.023,0.059-0.036,0.088-0.036H311.436z"/>
		<path fill="#7AC943" d="M313.077,63.733c0-1.279,0.017-2.324,0.051-3.135s0.081-1.401,0.14-1.772
			c0.068-0.371,0.166-0.728,0.293-1.069s0.283-0.679,0.469-1.011h-0.015c0.508-0.947,1.328-1.826,2.461-2.637
			c1.143-0.82,2.563-1.23,4.263-1.23c1.68,0,3.091,0.41,4.233,1.23c1.152,0.83,1.982,1.709,2.49,2.637
			c0.361,0.664,0.605,1.357,0.732,2.08c0.068,0.371,0.119,0.962,0.154,1.772c0.033,0.811,0.051,1.855,0.051,3.135
			c0,2.51-0.068,4.15-0.205,4.922c-0.068,0.381-0.164,0.742-0.285,1.084c-0.123,0.342-0.267,0.669-0.433,0.981
			c-0.518,0.938-1.353,1.816-2.505,2.637c-1.152,0.811-2.563,1.216-4.233,1.216c-1.689,0-3.11-0.405-4.263-1.216
			c-1.133-0.801-1.953-1.68-2.461-2.637h0.015c-0.186-0.332-0.342-0.666-0.469-1.004c-0.127-0.336-0.225-0.69-0.293-1.062
			c-0.059-0.371-0.105-0.964-0.14-1.78C313.093,66.06,313.077,65.012,313.077,63.733z M316.607,63.733
			c0,1.064,0.015,1.94,0.044,2.63c0.029,0.688,0.083,1.198,0.161,1.53c0.078,0.303,0.188,0.604,0.329,0.901s0.301,0.559,0.477,0.783
			c0.313,0.41,0.728,0.76,1.245,1.047c0.518,0.289,1.143,0.433,1.875,0.433c0.723,0,1.343-0.144,1.86-0.433
			c0.518-0.287,0.928-0.637,1.23-1.047c0.41-0.498,0.679-1.06,0.806-1.685c0.156-0.625,0.234-2.012,0.234-4.16
			c0-1.064-0.02-1.94-0.059-2.63c-0.039-0.688-0.098-1.193-0.176-1.516c-0.068-0.313-0.171-0.617-0.308-0.916
			c-0.137-0.297-0.298-0.563-0.483-0.798c-0.146-0.186-0.325-0.366-0.534-0.542c-0.211-0.176-0.447-0.33-0.711-0.461
			c-0.264-0.133-0.552-0.239-0.864-0.322s-0.645-0.125-0.996-0.125c-0.732,0-1.357,0.146-1.875,0.439s-0.933,0.63-1.245,1.011
			c-0.186,0.234-0.347,0.501-0.483,0.798c-0.137,0.299-0.244,0.604-0.322,0.916c-0.078,0.332-0.132,0.845-0.161,1.538
			S316.607,62.688,316.607,63.733z"/>
		<path fill="#7AC943" d="M332.251,74.397c-0.117,0-0.176-0.059-0.176-0.176V53.23c0-0.117,0.059-0.176,0.176-0.176h3.179
			c0.117,0,0.176,0.059,0.176,0.176v17.827h10.063c0.117,0,0.176,0.059,0.176,0.176v2.988c0,0.117-0.059,0.176-0.176,0.176H332.251z
			"/>
		<path fill="#7AC943" d="M348.921,74.397c-0.117,0-0.176-0.059-0.176-0.176V53.23c0-0.117,0.059-0.176,0.176-0.176h3.179
			c0.117,0,0.176,0.059,0.176,0.176v17.827h10.063c0.117,0,0.176,0.059,0.176,0.176v2.988c0,0.117-0.059,0.176-0.176,0.176H348.921z
			"/>
		<path fill="#7AC943" d="M365.591,74.397c-0.117,0-0.176-0.059-0.176-0.176V53.23c0-0.117,0.059-0.176,0.176-0.176h13.418
			c0.117,0,0.176,0.059,0.176,0.176v3.018c0,0.117-0.059,0.176-0.176,0.176h-10.063v5.625h8.555c0.117,0,0.176,0.059,0.176,0.176
			v2.842c0,0.107-0.059,0.161-0.176,0.161h-8.555v5.83h10.063c0.117,0,0.176,0.059,0.176,0.176v2.988
			c0,0.117-0.059,0.176-0.176,0.176H365.591z M372.315,51.955c-0.02,0-0.044-0.007-0.073-0.022
			c-0.029-0.014-0.049-0.026-0.059-0.036l-4.043-4.277c-0.049-0.059-0.059-0.122-0.029-0.19s0.083-0.103,0.161-0.103h3.823
			c0.059,0,0.107,0.029,0.146,0.088l2.607,4.277c0.039,0.068,0.044,0.13,0.015,0.183c-0.029,0.055-0.083,0.081-0.161,0.081H372.315z
			"/>
		<path fill="#7AC943" d="M389.073,65.857c-0.117,0-0.176-0.059-0.176-0.176v-3.018c0-0.107,0.059-0.161,0.176-0.161h7.456
			c0.117,0,0.176,0.054,0.176,0.161v4.277c0,2.158-0.742,3.965-2.227,5.42c-1.504,1.475-3.315,2.212-5.435,2.212
			c-1.689,0-3.11-0.405-4.263-1.216c-1.133-0.801-1.953-1.68-2.461-2.637h0.015c-0.186-0.332-0.342-0.666-0.469-1.004
			c-0.127-0.336-0.225-0.69-0.293-1.062c-0.059-0.371-0.105-0.964-0.14-1.78c-0.034-0.814-0.051-1.862-0.051-3.142
			s0.017-2.324,0.051-3.135s0.081-1.401,0.14-1.772c0.068-0.371,0.166-0.728,0.293-1.069s0.283-0.679,0.469-1.011h-0.015
			c0.508-0.947,1.328-1.826,2.461-2.637c1.143-0.82,2.563-1.23,4.263-1.23c2.031,0,3.711,0.625,5.039,1.875
			c1.348,1.25,2.183,2.744,2.505,4.482c0.02,0.059,0.01,0.107-0.029,0.146s-0.088,0.059-0.146,0.059h-3.354
			c-0.088,0-0.142-0.039-0.161-0.117c-0.127-0.391-0.308-0.754-0.542-1.092c-0.234-0.336-0.522-0.651-0.864-0.944
			c-0.645-0.576-1.46-0.864-2.446-0.864c-0.732,0-1.357,0.146-1.875,0.439s-0.933,0.63-1.245,1.011
			c-0.186,0.234-0.347,0.501-0.483,0.798c-0.137,0.299-0.244,0.604-0.322,0.916c-0.078,0.332-0.132,0.845-0.161,1.538
			s-0.044,1.563-0.044,2.607c0,1.064,0.015,1.94,0.044,2.63c0.029,0.688,0.083,1.198,0.161,1.53
			c0.078,0.303,0.188,0.604,0.329,0.901s0.301,0.559,0.477,0.783c0.313,0.41,0.728,0.76,1.245,1.047
			c0.518,0.289,1.143,0.433,1.875,0.433c1.162,0,2.139-0.396,2.93-1.187c0.801-0.791,1.201-1.826,1.201-3.105v-0.908H389.073z"/>
		<path fill="#7AC943" d="M400.557,74.397c-0.117,0-0.176-0.059-0.176-0.176V53.23c0-0.117,0.059-0.176,0.176-0.176h13.418
			c0.117,0,0.176,0.059,0.176,0.176v3.018c0,0.117-0.059,0.176-0.176,0.176h-10.063v5.625h8.555c0.117,0,0.176,0.059,0.176,0.176
			v2.842c0,0.107-0.059,0.161-0.176,0.161h-8.555v5.83h10.063c0.117,0,0.176,0.059,0.176,0.176v2.988
			c0,0.117-0.059,0.176-0.176,0.176H400.557z"/>
	</g>
</g>
</svg>
