<svg xmlns="http://www.w3.org/2000/svg" version="1.1" width="315" height="510"><defs><filter id="bevelFilter" x0="-50%" y0="-50%" width="200%" height="200%"><feGaussianBlur result="blur-1" in="SourceAlpha" stdDeviation="1 1"/><feFlood result="flood-2" in="undefined" flood-color="#fff" flood-opacity="0.15"/><feOffset result="offset-3" in="blur-1" dx="1" dy="1"/><feComposite result="comp-4" operator="arithmetic" in="SourceAlpha" in2="offset-3" k2="1" k3="-1"/><feComposite result="comp-5" operator="in" in="flood-2" in2="comp-4"/><feFlood result="flood-6" in="undefined" flood-color="#000" flood-opacity="0.7"/><feOffset result="offset-7" in="blur-1" dx="-1" dy="-1"/><feComposite result="comp-8" operator="arithmetic" in="SourceAlpha" in2="offset-7" k2="1" k3="-1"/><feComposite result="comp-9" operator="in" in="flood-6" in2="comp-8"/><feMerge result="merge-10"><feMergeNode in="SourceGraphic"/><feMergeNode in="comp-5"/><feMergeNode in="comp-9"/></feMerge></filter><filter id="inputBevelFilter" x0="-50%" y0="-50%" width="200%" height="200%"><feGaussianBlur result="blur-1" in="SourceAlpha" stdDeviation="1 1"/><feFlood result="flood-2" in="undefined" flood-color="#fff" flood-opacity="0.15"/><feOffset result="offset-3" in="blur-1" dx="-1" dy="-1"/><feComposite result="comp-4" operator="arithmetic" in="SourceAlpha" in2="offset-3" k2="1" k3="-1"/><feComposite result="comp-5" operator="in" in="flood-2" in2="comp-4"/><feFlood result="flood-6" in="undefined" flood-color="#000" flood-opacity="0.7"/><feOffset result="offset-7" in="blur-1" dx="1" dy="1"/><feComposite result="comp-8" operator="arithmetic" in="SourceAlpha" in2="offset-7" k2="1" k3="-1"/><feComposite result="comp-9" operator="in" in="flood-6" in2="comp-8"/><feMerge result="merge-10"><feMergeNode in="SourceGraphic"/><feMergeNode in="comp-5"/><feMergeNode in="comp-9"/></feMerge></filter><filter id="inputDarkFilter" x0="-50%" y0="-50%" width="200%" height="200%"><feFlood result="flood-1" in="undefined" flood-color="#000" flood-opacity="0.2"/><feComposite result="comp-2" operator="in" in="flood-1" in2="SourceAlpha"/><feMerge result="merge-3"><feMergeNode in="SourceGraphic"/><feMergeNode in="comp-2"/></feMerge></filter><path d="M1.504 21L0 19.493 4.567 0h1.948l-.5 2.418s1.002-.502 3.006 0c2.006.503 3.008 2.01 6.517 2.01 3.508 0 4.463-.545 4.463-.545l-.823 9.892s-2.137 1.005-5.144.696c-3.007-.307-3.007-2.007-6.014-2.51-3.008-.502-4.512.503-4.512.503L1.504 21z" fill="#3f8d15" id="greenFlag"/><path d="M6.724 0C3.01 0 0 2.91 0 6.5c0 2.316 1.253 4.35 3.14 5.5H5.17v-1.256C3.364 10.126 2.07 8.46 2.07 6.5 2.07 4.015 4.152 2 6.723 2c1.14 0 2.184.396 2.993 1.053L8.31 4.13c-.45.344-.398.826.11 1.08L15 8.5 13.858.992c-.083-.547-.514-.714-.963-.37l-1.532 1.172A6.825 6.825 0 0 0 6.723 0z" fill="#fff" id="turnRight"/><path d="M3.637 1.794A6.825 6.825 0 0 1 8.277 0C11.99 0 15 2.91 15 6.5c0 2.316-1.253 4.35-3.14 5.5H9.83v-1.256c1.808-.618 3.103-2.285 3.103-4.244 0-2.485-2.083-4.5-4.654-4.5-1.14 0-2.184.396-2.993 1.053L6.69 4.13c.45.344.398.826-.11 1.08L0 8.5 1.142.992c.083-.547.514-.714.963-.37l1.532 1.172z" fill="#fff" id="turnLeft"/><path d="M0 0L4 4L0 8Z" fill="#111" id="addInput"/><path d="M4 0L4 8L0 4Z" fill="#111" id="delInput"/><g id="loopArrow"><path d="M8 0l2 -2l0 -3l3 0l-4 -5l-4 5l3 0l0 3l-8 0l0 2" fill="#000" opacity="0.3"/><path d="M8 0l2 -2l0 -3l3 0l-4 -5l-4 5l3 0l0 3l-8 0l0 2" fill="#fff" opacity="0.9" transform="translate(-1 -1)"/></g><style><![CDATA[.sb-label{font-family:Lucida Grande,Verdana,Arial,DejaVu Sans,sans-serif;font-weight:700;fill:#fff;font-size:10px;word-spacing:+1px}.sb-obsolete{fill:#d42828}.sb-motion{fill:#4a6cd4}.sb-looks{fill:#8a55d7}.sb-sound{fill:#bb42c3}.sb-pen{fill:#0e9a6c}.sb-events{fill:#c88330}.sb-control{fill:#e1a91a}.sb-sensing{fill:#2ca5e2}.sb-operators{fill:#5cb712}.sb-variables{fill:#ee7d16}.sb-list{fill:#cc5b22}.sb-custom{fill:#632d99}.sb-custom-arg{fill:#5947b1}.sb-extension{fill:#4b4a60}.sb-grey{fill:#969696}.sb-bevel{filter:url(#bevelFilter)}.sb-input{filter:url(#inputBevelFilter)}.sb-input-number,.sb-input-number-dropdown,.sb-input-string{fill:#fff}.sb-literal-dropdown,.sb-literal-number,.sb-literal-number-dropdown,.sb-literal-string{font-weight:400;font-size:9px;word-spacing:0}.sb-literal-number,.sb-literal-number-dropdown,.sb-literal-string{fill:#000}.sb-darker{filter:url(#inputDarkFilter)}.sb-outline{stroke:#fff;stroke-opacity:.2;stroke-width:2;fill:none}.sb-define-hat-cap{stroke:#632d99;stroke-width:1;fill:#8e2ec2}.sb-comment{fill:#ffffa5;stroke:#d0d1d2;stroke-width:1}.sb-comment-line{fill:#ffff80}.sb-comment-label{font-family:Helevetica,Arial,DejaVu Sans,sans-serif;font-weight:700;fill:#5c5d5f;word-spacing:0;font-size:12px}]]></style></defs><g><g transform="translate(0 0)"><g transform="translate(2 0)"><path d="M 0 12 L 0 12 A 80 80 0 0 1 80 10 L 122 10 L 125 13 L 125 35 L 122 38 L 27 38 L 24 41 L 16 41 L 13 38 L 3 38 L 0 35 Z" class="sb-events sb-bevel"/><text x="0" y="10" class="sb-label " transform="translate(6 18)">quand</text><use a0:href="#greenFlag" xmlns:a0="http://www.w3.org/1999/xlink" transform="translate(44 12)"/><text x="0" y="10" class="sb-label " transform="translate(68 18)">est</text><text x="0" y="10" class="sb-label " transform="translate(88 18)">cliqué</text></g><g transform="translate(2 38)"><path d="M 0 3 L 3 0 L 13 0 L 16 3 L 24 3 L 27 0 L 308 0 L 311 3 L 311 19 L 308 22 L 27 22 L 24 25 L 16 25 L 13 22 L 3 22 L 0 19 Z" class="sb-sensing sb-bevel"/><text x="0" y="10" class="sb-label " transform="translate(6 5)">demander</text><g transform="translate(64 4)"><rect x="0" y="0" width="178" height="14" class="sb-input sb-input-string"/><text x="0" y="10" class="sb-label sb-literal-string" transform="translate(4 0)">Choisis un nombre entre 100 et 999 !</text></g><text x="0" y="10" class="sb-label " transform="translate(246 5)">et</text><text x="0" y="10" class="sb-label " transform="translate(260 5)">attendre</text></g><g transform="translate(2 60)"><path d="M 0 3 L 3 0 L 13 0 L 16 3 L 24 3 L 27 0 L 175 0 L 178 3 L 178 23 L 175 26 L 27 26 L 24 29 L 16 29 L 13 26 L 3 26 L 0 23 Z" class="sb-variables sb-bevel"/><text x="0" y="10" class="sb-label " transform="translate(6 7)">mettre</text><g transform="translate(45 6)"><g width="54" height="14" class="sb-input sb-input-dropdown"><rect x="0" y="0" width="54" height="14" class="sb-variables sb-darker"/></g><text x="0" y="10" class="sb-label sb-literal-dropdown" transform="translate(4 0)">nombre</text><polygon points="7 0 3.5 4 0 0" fill="#000" opacity="0.6" transform="translate(44 5)"/></g><text x="0" y="10" class="sb-label " transform="translate(103 7)">à</text><g transform="translate(113 3)"><path d="M 10 0 L 49 0 A 10 10 0 0 1 49 20 L 10 20 A 10 10 0 0 1 10 0 Z" class="sb-sensing sb-bevel"/><text x="0" y="10" class="sb-label " transform="translate(8 4)">réponse</text></g></g><g transform="translate(2 86)"><path d="M 0 3 L 3 0 L 13 0 L 16 3 L 24 3 L 27 0 L 224 0 L 227 3 L 227 27 L 224 30 L 27 30 L 24 33 L 16 33 L 13 30 L 3 30 L 0 27 Z" class="sb-variables sb-bevel"/><text x="0" y="10" class="sb-label " transform="translate(6 9)">mettre</text><g transform="translate(45 8)"><g width="25" height="14" class="sb-input sb-input-dropdown"><rect x="0" y="0" width="25" height="14" class="sb-variables sb-darker"/></g><text x="0" y="10" class="sb-label sb-literal-dropdown" transform="translate(4 0)">u</text><polygon points="7 0 3.5 4 0 0" fill="#000" opacity="0.6" transform="translate(15 5)"/></g><text x="0" y="10" class="sb-label " transform="translate(74 9)">à</text><g transform="translate(84 3)"><path d="M 12 0 L 125 0 A 12 12 0 0 1 125 24 L 12 24 A 12 12 0 0 1 12 0 Z" class="sb-operators sb-bevel"/><text x="0" y="10" class="sb-label " transform="translate(8 6)">lettre</text><g transform="translate(40 5)"><path d="M 6.5 0 L 8.5 0 A 6.5 6.5 0 0 1 8.5 13 L 6.5 13 A 6.5 6.5 0 0 1 6.5 0 Z" class="sb-input sb-input-number"/><text x="0" y="10" class="sb-label sb-literal-number" transform="translate(5 0)">3</text></g><text x="0" y="10" class="sb-label " transform="translate(59 6)">de</text><g transform="translate(76 2)"><path d="M 10 0 L 47 0 A 10 10 0 0 1 47 20 L 10 20 A 10 10 0 0 1 10 0 Z" class="sb-variables sb-bevel"/><text x="0" y="10" class="sb-label " transform="translate(8 4)">nombre</text></g></g></g><g transform="translate(2 116)"><path d="M 0 3 L 3 0 L 13 0 L 16 3 L 24 3 L 27 0 L 224 0 L 227 3 L 227 27 L 224 30 L 27 30 L 24 33 L 16 33 L 13 30 L 3 30 L 0 27 Z" class="sb-variables sb-bevel"/><text x="0" y="10" class="sb-label " transform="translate(6 9)">mettre</text><g transform="translate(45 8)"><g width="25" height="14" class="sb-input sb-input-dropdown"><rect x="0" y="0" width="25" height="14" class="sb-variables sb-darker"/></g><text x="0" y="10" class="sb-label sb-literal-dropdown" transform="translate(4 0)">d</text><polygon points="7 0 3.5 4 0 0" fill="#000" opacity="0.6" transform="translate(15 5)"/></g><text x="0" y="10" class="sb-label " transform="translate(74 9)">à</text><g transform="translate(84 3)"><path d="M 12 0 L 125 0 A 12 12 0 0 1 125 24 L 12 24 A 12 12 0 0 1 12 0 Z" class="sb-operators sb-bevel"/><text x="0" y="10" class="sb-label " transform="translate(8 6)">lettre</text><g transform="translate(40 5)"><path d="M 6.5 0 L 8.5 0 A 6.5 6.5 0 0 1 8.5 13 L 6.5 13 A 6.5 6.5 0 0 1 6.5 0 Z" class="sb-input sb-input-number"/><text x="0" y="10" class="sb-label sb-literal-number" transform="translate(5 0)">2</text></g><text x="0" y="10" class="sb-label " transform="translate(59 6)">de</text><g transform="translate(76 2)"><path d="M 10 0 L 47 0 A 10 10 0 0 1 47 20 L 10 20 A 10 10 0 0 1 10 0 Z" class="sb-variables sb-bevel"/><text x="0" y="10" class="sb-label " transform="translate(8 4)">nombre</text></g></g></g><g transform="translate(2 146)"><path d="M 0 3 L 3 0 L 13 0 L 16 3 L 24 3 L 27 0 L 223 0 L 226 3 L 226 27 L 223 30 L 27 30 L 24 33 L 16 33 L 13 30 L 3 30 L 0 27 Z" class="sb-variables sb-bevel"/><text x="0" y="10" class="sb-label " transform="translate(6 9)">mettre</text><g transform="translate(45 8)"><g width="24" height="14" class="sb-input sb-input-dropdown"><rect x="0" y="0" width="24" height="14" class="sb-variables sb-darker"/></g><text x="0" y="10" class="sb-label sb-literal-dropdown" transform="translate(4 0)">c</text><polygon points="7 0 3.5 4 0 0" fill="#000" opacity="0.6" transform="translate(14 5)"/></g><text x="0" y="10" class="sb-label " transform="translate(73 9)">à</text><g transform="translate(83 3)"><path d="M 12 0 L 125 0 A 12 12 0 0 1 125 24 L 12 24 A 12 12 0 0 1 12 0 Z" class="sb-operators sb-bevel"/><text x="0" y="10" class="sb-label " transform="translate(8 6)">lettre</text><g transform="translate(40 5)"><path d="M 6.5 0 L 8.5 0 A 6.5 6.5 0 0 1 8.5 13 L 6.5 13 A 6.5 6.5 0 0 1 6.5 0 Z" class="sb-input sb-input-number"/><text x="0" y="10" class="sb-label sb-literal-number" transform="translate(5 0)">1</text></g><text x="0" y="10" class="sb-label " transform="translate(59 6)">de</text><g transform="translate(76 2)"><path d="M 10 0 L 47 0 A 10 10 0 0 1 47 20 L 10 20 A 10 10 0 0 1 10 0 Z" class="sb-variables sb-bevel"/><text x="0" y="10" class="sb-label " transform="translate(8 4)">nombre</text></g></g></g><g transform="translate(2 176)"><path d="M 0 3 L 3 0 L 13 0 L 16 3 L 24 3 L 27 0 L 236 0 L 239 3 L 239 32 L 236 35 L 42 35 L 39 38 L 31 38 L 28 35 L 17 35 L 15 37 L 15 55 L 17 57 L 236 57 L 239 60 L 239 72 L 236 75 L 42 75 L 39 78 L 31 78 L 28 75 L 17 75 L 15 77 L 15 95 L 17 97 L 236 97 L 239 100 L 239 110 L 236 113 L 27 113 L 24 116 L 16 116 L 13 113 L 3 113 L 0 110" class="sb-control sb-bevel"/><text x="0" y="10" class="sb-label " transform="translate(6 11)">si</text><g transform="translate(30 2)"><path d="M 15 0 L 158 0 173 15 L 173 15 158 30 L 15 30 0 15 L 0 15 15 0 Z" class="sb-operators sb-bevel"/><g transform="translate(5 2)"><path d="M 12.5 0 L 58.5 0 71 12.5 L 71 12.5 58.5 25 L 12.5 25 0 12.5 L 0 12.5 12.5 0 Z" class="sb-operators sb-bevel"/><g transform="translate(9 2)"><path d="M 10 0 L 13 0 A 10 10 0 0 1 13 20 L 10 20 A 10 10 0 0 1 10 0 Z" class="sb-variables sb-bevel"/><text x="0" y="10" class="sb-label " transform="translate(8 4)">u</text></g><text x="0" y="10" class="sb-label " transform="translate(36 6)">=</text><g transform="translate(48 5)"><rect x="0" y="0" width="14" height="14" class="sb-input sb-input-string"/><text x="0" y="10" class="sb-label sb-literal-string" transform="translate(4 0)">0</text></g></g><text x="0" y="10" class="sb-label " transform="translate(80 8)">ou</text><g transform="translate(97 2)"><path d="M 12.5 0 L 58.5 0 71 12.5 L 71 12.5 58.5 25 L 12.5 25 0 12.5 L 0 12.5 12.5 0 Z" class="sb-operators sb-bevel"/><g transform="translate(9 2)"><path d="M 10 0 L 13 0 A 10 10 0 0 1 13 20 L 10 20 A 10 10 0 0 1 10 0 Z" class="sb-variables sb-bevel"/><text x="0" y="10" class="sb-label " transform="translate(8 4)">u</text></g><text x="0" y="10" class="sb-label " transform="translate(36 6)">=</text><g transform="translate(48 5)"><rect x="0" y="0" width="14" height="14" class="sb-input sb-input-string"/><text x="0" y="10" class="sb-label sb-literal-string" transform="translate(4 0)">5</text></g></g></g><text x="0" y="10" class="sb-label " transform="translate(207 11)">alors</text><g transform="translate(15 35)"><g transform="translate(0 0)"><path d="M 0 3 L 3 0 L 13 0 L 16 3 L 24 3 L 27 0 L 227 0 L 230 3 L 230 19 L 227 22 L 27 22 L 24 25 L 16 25 L 13 22 L 3 22 L 0 19 Z" class="sb-looks sb-bevel"/><text x="0" y="10" class="sb-label " transform="translate(6 5)">dire</text><g transform="translate(31 4)"><rect x="0" y="0" width="73" height="14" class="sb-input sb-input-string"/><text x="0" y="10" class="sb-label sb-literal-string" transform="translate(4 0)">Divisible par 5</text></g><text x="0" y="10" class="sb-label " transform="translate(108 5)">pendant</text><g transform="translate(156 4)"><path d="M 6.5 0 L 8.5 0 A 6.5 6.5 0 0 1 8.5 13 L 6.5 13 A 6.5 6.5 0 0 1 6.5 0 Z" class="sb-input sb-input-number"/><text x="0" y="10" class="sb-label sb-literal-number" transform="translate(5 0)">2</text></g><text x="0" y="10" class="sb-label " transform="translate(175 5)">secondes</text></g></g><text x="0" y="10" class="sb-label " transform="translate(6 60)">sinon</text><g transform="translate(15 75)"><g transform="translate(0 0)"><path d="M 0 3 L 3 0 L 13 0 L 16 3 L 24 3 L 27 0 L 244 0 L 247 3 L 247 19 L 244 22 L 27 22 L 24 25 L 16 25 L 13 22 L 3 22 L 0 19 Z" class="sb-looks sb-bevel"/><text x="0" y="10" class="sb-label " transform="translate(6 5)">dire</text><g transform="translate(31 4)"><rect x="0" y="0" width="90" height="14" class="sb-input sb-input-string"/><text x="0" y="10" class="sb-label sb-literal-string" transform="translate(4 0)">Pas divisible par 5</text></g><text x="0" y="10" class="sb-label " transform="translate(125 5)">pendant</text><g transform="translate(173 4)"><path d="M 6.5 0 L 8.5 0 A 6.5 6.5 0 0 1 8.5 13 L 6.5 13 A 6.5 6.5 0 0 1 6.5 0 Z" class="sb-input sb-input-number"/><text x="0" y="10" class="sb-label sb-literal-number" transform="translate(5 0)">2</text></g><text x="0" y="10" class="sb-label " transform="translate(192 5)">secondes</text></g></g></g><g transform="translate(2 289)"><path d="M 0 3 L 3 0 L 13 0 L 16 3 L 24 3 L 27 0 L 228 0 L 231 3 L 231 31 L 228 34 L 27 34 L 24 37 L 16 37 L 13 34 L 3 34 L 0 31 Z" class="sb-variables sb-bevel"/><text x="0" y="10" class="sb-label " transform="translate(6 11)">mettre</text><g transform="translate(45 10)"><g width="51" height="14" class="sb-input sb-input-dropdown"><rect x="0" y="0" width="51" height="14" class="sb-variables sb-darker"/></g><text x="0" y="10" class="sb-label sb-literal-dropdown" transform="translate(4 0)">somme</text><polygon points="7 0 3.5 4 0 0" fill="#000" opacity="0.6" transform="translate(41 5)"/></g><text x="0" y="10" class="sb-label " transform="translate(100 11)">à</text><g transform="translate(110 3)"><path d="M 14 0 L 101 0 A 14 14 0 0 1 101 28 L 14 28 A 14 14 0 0 1 14 0 Z" class="sb-operators sb-bevel"/><g transform="translate(4 4)"><path d="M 10 0 L 13 0 A 10 10 0 0 1 13 20 L 10 20 A 10 10 0 0 1 10 0 Z" class="sb-variables sb-bevel"/><text x="0" y="10" class="sb-label " transform="translate(8 4)">u</text></g><text x="0" y="10" class="sb-label " transform="translate(31 8)">+</text><g transform="translate(43 2)"><path d="M 12 0 L 56 0 A 12 12 0 0 1 56 24 L 12 24 A 12 12 0 0 1 12 0 Z" class="sb-operators sb-bevel"/><g transform="translate(4 2)"><path d="M 10 0 L 13 0 A 10 10 0 0 1 13 20 L 10 20 A 10 10 0 0 1 10 0 Z" class="sb-variables sb-bevel"/><text x="0" y="10" class="sb-label " transform="translate(8 4)">d</text></g><text x="0" y="10" class="sb-label " transform="translate(31 6)">+</text><g transform="translate(43 2)"><path d="M 10 0 L 11 0 A 10 10 0 0 1 11 20 L 10 20 A 10 10 0 0 1 10 0 Z" class="sb-variables sb-bevel"/><text x="0" y="10" class="sb-label " transform="translate(8 4)">c</text></g></g></g></g><g transform="translate(2 323)"><path d="M 0 3 L 3 0 L 13 0 L 16 3 L 24 3 L 27 0 L 196 0 L 199 3 L 199 27 L 196 30 L 42 30 L 39 33 L 31 33 L 28 30 L 17 30 L 15 32 L 15 58 L 17 60 L 196 60 L 199 63 L 199 73 L 196 76 L 27 76 L 24 79 L 16 79 L 13 76 L 3 76 L 0 73" class="sb-control sb-bevel"/><text x="0" y="10" class="sb-label " transform="translate(6 8)">répéter</text><text x="0" y="10" class="sb-label " transform="translate(49 8)">jusqu’à</text><g transform="translate(91 2)"><path d="M 12.5 0 L 89.5 0 102 12.5 L 102 12.5 89.5 25 L 12.5 25 0 12.5 L 0 12.5 12.5 0 Z" class="sb-operators sb-bevel"/><g transform="translate(9 2)"><path d="M 10 0 L 44 0 A 10 10 0 0 1 44 20 L 10 20 A 10 10 0 0 1 10 0 Z" class="sb-variables sb-bevel"/><text x="0" y="10" class="sb-label " transform="translate(8 4)">somme</text></g><text x="0" y="10" class="sb-label " transform="translate(67 6)">&lt;</text><g transform="translate(79 5)"><rect x="0" y="0" width="14" height="14" class="sb-input sb-input-string"/><text x="0" y="10" class="sb-label sb-literal-string" transform="translate(4 0)">3</text></g></g><use a1:href="#loopArrow" xmlns:a1="http://www.w3.org/1999/xlink" transform="translate(184 73)"/><g transform="translate(15 30)"><g transform="translate(0 0)"><path d="M 0 3 L 3 0 L 13 0 L 16 3 L 24 3 L 27 0 L 204 0 L 207 3 L 207 27 L 204 30 L 27 30 L 24 33 L 16 33 L 13 30 L 3 30 L 0 27 Z" class="sb-variables sb-bevel"/><text x="0" y="10" class="sb-label " transform="translate(6 9)">mettre</text><g transform="translate(45 8)"><g width="51" height="14" class="sb-input sb-input-dropdown"><rect x="0" y="0" width="51" height="14" class="sb-variables sb-darker"/></g><text x="0" y="10" class="sb-label sb-literal-dropdown" transform="translate(4 0)">somme</text><polygon points="7 0 3.5 4 0 0" fill="#000" opacity="0.6" transform="translate(41 5)"/></g><text x="0" y="10" class="sb-label " transform="translate(100 9)">à</text><g transform="translate(110 3)"><path d="M 12 0 L 79 0 A 12 12 0 0 1 79 24 L 12 24 A 12 12 0 0 1 12 0 Z" class="sb-operators sb-bevel"/><g transform="translate(4 2)"><path d="M 10 0 L 44 0 A 10 10 0 0 1 44 20 L 10 20 A 10 10 0 0 1 10 0 Z" class="sb-variables sb-bevel"/><text x="0" y="10" class="sb-label " transform="translate(8 4)">somme</text></g><text x="0" y="10" class="sb-label " transform="translate(62 6)">-</text><g transform="translate(72 5)"><path d="M 6.5 0 L 8.5 0 A 6.5 6.5 0 0 1 8.5 13 L 6.5 13 A 6.5 6.5 0 0 1 6.5 0 Z" class="sb-input sb-input-number"/><text x="0" y="10" class="sb-label sb-literal-number" transform="translate(5 0)">3</text></g></g></g></g></g><g transform="translate(2 399)"><path d="M 0 3 L 3 0 L 13 0 L 16 3 L 24 3 L 27 0 L 165 0 L 168 3 L 168 27 L 165 30 L 42 30 L 39 33 L 31 33 L 28 30 L 17 30 L 15 32 L 15 50 L 17 52 L 165 52 L 168 55 L 168 67 L 165 70 L 42 70 L 39 73 L 31 73 L 28 70 L 17 70 L 15 72 L 15 90 L 17 92 L 165 92 L 168 95 L 168 105 L 165 108 L 27 108 L 24 111 L 16 111 L 13 108 L 3 108 L 0 105" class="sb-control sb-bevel"/><text x="0" y="10" class="sb-label " transform="translate(6 8)">si</text><g transform="translate(30 2)"><path d="M 12.5 0 L 89.5 0 102 12.5 L 102 12.5 89.5 25 L 12.5 25 0 12.5 L 0 12.5 12.5 0 Z" class="sb-operators sb-bevel"/><g transform="translate(9 2)"><path d="M 10 0 L 44 0 A 10 10 0 0 1 44 20 L 10 20 A 10 10 0 0 1 10 0 Z" class="sb-variables sb-bevel"/><text x="0" y="10" class="sb-label " transform="translate(8 4)">somme</text></g><text x="0" y="10" class="sb-label " transform="translate(67 6)">=</text><g transform="translate(79 5)"><rect x="0" y="0" width="14" height="14" class="sb-input sb-input-string"/><text x="0" y="10" class="sb-label sb-literal-string" transform="translate(4 0)">0</text></g></g><text x="0" y="10" class="sb-label " transform="translate(136 8)">alors</text><g transform="translate(15 30)"><g transform="translate(0 0)"><path d="M 0 3 L 3 0 L 13 0 L 16 3 L 24 3 L 27 0 L 227 0 L 230 3 L 230 19 L 227 22 L 27 22 L 24 25 L 16 25 L 13 22 L 3 22 L 0 19 Z" class="sb-looks sb-bevel"/><text x="0" y="10" class="sb-label " transform="translate(6 5)">dire</text><g transform="translate(31 4)"><rect x="0" y="0" width="73" height="14" class="sb-input sb-input-string"/><text x="0" y="10" class="sb-label sb-literal-string" transform="translate(4 0)">Divisible par 3</text></g><text x="0" y="10" class="sb-label " transform="translate(108 5)">pendant</text><g transform="translate(156 4)"><path d="M 6.5 0 L 8.5 0 A 6.5 6.5 0 0 1 8.5 13 L 6.5 13 A 6.5 6.5 0 0 1 6.5 0 Z" class="sb-input sb-input-number"/><text x="0" y="10" class="sb-label sb-literal-number" transform="translate(5 0)">2</text></g><text x="0" y="10" class="sb-label " transform="translate(175 5)">secondes</text></g></g><text x="0" y="10" class="sb-label " transform="translate(6 55)">sinon</text><g transform="translate(15 70)"><g transform="translate(0 0)"><path d="M 0 3 L 3 0 L 13 0 L 16 3 L 24 3 L 27 0 L 244 0 L 247 3 L 247 19 L 244 22 L 27 22 L 24 25 L 16 25 L 13 22 L 3 22 L 0 19 Z" class="sb-looks sb-bevel"/><text x="0" y="10" class="sb-label " transform="translate(6 5)">dire</text><g transform="translate(31 4)"><rect x="0" y="0" width="90" height="14" class="sb-input sb-input-string"/><text x="0" y="10" class="sb-label sb-literal-string" transform="translate(4 0)">Pas divisible par 3</text></g><text x="0" y="10" class="sb-label " transform="translate(125 5)">pendant</text><g transform="translate(173 4)"><path d="M 6.5 0 L 8.5 0 A 6.5 6.5 0 0 1 8.5 13 L 6.5 13 A 6.5 6.5 0 0 1 6.5 0 Z" class="sb-input sb-input-number"/><text x="0" y="10" class="sb-label sb-literal-number" transform="translate(5 0)">2</text></g><text x="0" y="10" class="sb-label " transform="translate(192 5)">secondes</text></g></g></g></g></g></svg>