<svg xmlns="http://www.w3.org/2000/svg" version="1.1" width="283" height="698"><defs><filter id="bevelFilter" x0="-50%" y0="-50%" width="200%" height="200%"><feGaussianBlur result="blur-1" in="SourceAlpha" stdDeviation="1 1"/><feFlood result="flood-2" in="undefined" flood-color="#fff" flood-opacity="0.15"/><feOffset result="offset-3" in="blur-1" dx="1" dy="1"/><feComposite result="comp-4" operator="arithmetic" in="SourceAlpha" in2="offset-3" k2="1" k3="-1"/><feComposite result="comp-5" operator="in" in="flood-2" in2="comp-4"/><feFlood result="flood-6" in="undefined" flood-color="#000" flood-opacity="0.7"/><feOffset result="offset-7" in="blur-1" dx="-1" dy="-1"/><feComposite result="comp-8" operator="arithmetic" in="SourceAlpha" in2="offset-7" k2="1" k3="-1"/><feComposite result="comp-9" operator="in" in="flood-6" in2="comp-8"/><feMerge result="merge-10"><feMergeNode in="SourceGraphic"/><feMergeNode in="comp-5"/><feMergeNode in="comp-9"/></feMerge></filter><filter id="inputBevelFilter" x0="-50%" y0="-50%" width="200%" height="200%"><feGaussianBlur result="blur-1" in="SourceAlpha" stdDeviation="1 1"/><feFlood result="flood-2" in="undefined" flood-color="#fff" flood-opacity="0.15"/><feOffset result="offset-3" in="blur-1" dx="-1" dy="-1"/><feComposite result="comp-4" operator="arithmetic" in="SourceAlpha" in2="offset-3" k2="1" k3="-1"/><feComposite result="comp-5" operator="in" in="flood-2" in2="comp-4"/><feFlood result="flood-6" in="undefined" flood-color="#000" flood-opacity="0.7"/><feOffset result="offset-7" in="blur-1" dx="1" dy="1"/><feComposite result="comp-8" operator="arithmetic" in="SourceAlpha" in2="offset-7" k2="1" k3="-1"/><feComposite result="comp-9" operator="in" in="flood-6" in2="comp-8"/><feMerge result="merge-10"><feMergeNode in="SourceGraphic"/><feMergeNode in="comp-5"/><feMergeNode in="comp-9"/></feMerge></filter><filter id="inputDarkFilter" x0="-50%" y0="-50%" width="200%" height="200%"><feFlood result="flood-1" in="undefined" flood-color="#000" flood-opacity="0.2"/><feComposite result="comp-2" operator="in" in="flood-1" in2="SourceAlpha"/><feMerge result="merge-3"><feMergeNode in="SourceGraphic"/><feMergeNode in="comp-2"/></feMerge></filter><path d="M1.504 21L0 19.493 4.567 0h1.948l-.5 2.418s1.002-.502 3.006 0c2.006.503 3.008 2.01 6.517 2.01 3.508 0 4.463-.545 4.463-.545l-.823 9.892s-2.137 1.005-5.144.696c-3.007-.307-3.007-2.007-6.014-2.51-3.008-.502-4.512.503-4.512.503L1.504 21z" fill="#3f8d15" id="greenFlag"/><path d="M6.724 0C3.01 0 0 2.91 0 6.5c0 2.316 1.253 4.35 3.14 5.5H5.17v-1.256C3.364 10.126 2.07 8.46 2.07 6.5 2.07 4.015 4.152 2 6.723 2c1.14 0 2.184.396 2.993 1.053L8.31 4.13c-.45.344-.398.826.11 1.08L15 8.5 13.858.992c-.083-.547-.514-.714-.963-.37l-1.532 1.172A6.825 6.825 0 0 0 6.723 0z" fill="#fff" id="turnRight"/><path d="M3.637 1.794A6.825 6.825 0 0 1 8.277 0C11.99 0 15 2.91 15 6.5c0 2.316-1.253 4.35-3.14 5.5H9.83v-1.256c1.808-.618 3.103-2.285 3.103-4.244 0-2.485-2.083-4.5-4.654-4.5-1.14 0-2.184.396-2.993 1.053L6.69 4.13c.45.344.398.826-.11 1.08L0 8.5 1.142.992c.083-.547.514-.714.963-.37l1.532 1.172z" fill="#fff" id="turnLeft"/><path d="M0 0L4 4L0 8Z" fill="#111" id="addInput"/><path d="M4 0L4 8L0 4Z" fill="#111" id="delInput"/><g id="loopArrow"><path d="M8 0l2 -2l0 -3l3 0l-4 -5l-4 5l3 0l0 3l-8 0l0 2" fill="#000" opacity="0.3"/><path d="M8 0l2 -2l0 -3l3 0l-4 -5l-4 5l3 0l0 3l-8 0l0 2" fill="#fff" opacity="0.9" transform="translate(-1 -1)"/></g><style><![CDATA[.sb-label{font-family:Lucida Grande,Verdana,Arial,DejaVu Sans,sans-serif;font-weight:700;fill:#fff;font-size:10px;word-spacing:+1px}.sb-obsolete{fill:#d42828}.sb-motion{fill:#4a6cd4}.sb-looks{fill:#8a55d7}.sb-sound{fill:#bb42c3}.sb-pen{fill:#0e9a6c}.sb-events{fill:#c88330}.sb-control{fill:#e1a91a}.sb-sensing{fill:#2ca5e2}.sb-operators{fill:#5cb712}.sb-variables{fill:#ee7d16}.sb-list{fill:#cc5b22}.sb-custom{fill:#632d99}.sb-custom-arg{fill:#5947b1}.sb-extension{fill:#4b4a60}.sb-grey{fill:#969696}.sb-bevel{filter:url(#bevelFilter)}.sb-input{filter:url(#inputBevelFilter)}.sb-input-number,.sb-input-number-dropdown,.sb-input-string{fill:#fff}.sb-literal-dropdown,.sb-literal-number,.sb-literal-number-dropdown,.sb-literal-string{font-weight:400;font-size:9px;word-spacing:0}.sb-literal-number,.sb-literal-number-dropdown,.sb-literal-string{fill:#000}.sb-darker{filter:url(#inputDarkFilter)}.sb-outline{stroke:#fff;stroke-opacity:.2;stroke-width:2;fill:none}.sb-define-hat-cap{stroke:#632d99;stroke-width:1;fill:#8e2ec2}.sb-comment{fill:#ffffa5;stroke:#d0d1d2;stroke-width:1}.sb-comment-line{fill:#ffff80}.sb-comment-label{font-family:Helevetica,Arial,DejaVu Sans,sans-serif;font-weight:700;fill:#5c5d5f;word-spacing:0;font-size:12px}]]></style></defs><g><g transform="translate(0 0)"><g transform="translate(2 0)"><path d="M 0 12 L 0 12 A 80 80 0 0 1 80 10 L 122 10 L 125 13 L 125 35 L 122 38 L 27 38 L 24 41 L 16 41 L 13 38 L 3 38 L 0 35 Z" class="sb-events sb-bevel"/><text x="0" y="10" class="sb-label " transform="translate(6 18)">quand</text><use a0:href="#greenFlag" xmlns:a0="http://www.w3.org/1999/xlink" transform="translate(44 12)"/><text x="0" y="10" class="sb-label " transform="translate(68 18)">est</text><text x="0" y="10" class="sb-label " transform="translate(88 18)">cliqué</text></g><g transform="translate(2 38)"><path d="M 0 3 L 3 0 L 13 0 L 16 3 L 24 3 L 27 0 L 104 0 L 107 3 L 107 19 L 104 22 L 27 22 L 24 25 L 16 25 L 13 22 L 3 22 L 0 19 Z" class="sb-motion sb-bevel"/><text x="0" y="10" class="sb-label " transform="translate(6 5)">aller</text><text x="0" y="10" class="sb-label " transform="translate(33 5)">à</text><text x="0" y="10" class="sb-label " transform="translate(43 5)">x:</text><g transform="translate(55 4)"><path d="M 6.5 0 L 8.5 0 A 6.5 6.5 0 0 1 8.5 13 L 6.5 13 A 6.5 6.5 0 0 1 6.5 0 Z" class="sb-input sb-input-number"/><text x="0" y="10" class="sb-label sb-literal-number" transform="translate(5 0)">0</text></g><text x="0" y="10" class="sb-label " transform="translate(74 5)">y:</text><g transform="translate(86 4)"><path d="M 6.5 0 L 8.5 0 A 6.5 6.5 0 0 1 8.5 13 L 6.5 13 A 6.5 6.5 0 0 1 6.5 0 Z" class="sb-input sb-input-number"/><text x="0" y="10" class="sb-label sb-literal-number" transform="translate(5 0)">0</text></g></g><g transform="translate(2 60)"><path d="M 0 3 L 3 0 L 13 0 L 16 3 L 24 3 L 27 0 L 94 0 L 97 3 L 97 19 L 94 22 L 27 22 L 24 25 L 16 25 L 13 22 L 3 22 L 0 19 Z" class="sb-motion sb-bevel"/><text x="0" y="10" class="sb-label " transform="translate(6 5)">s'orienter</text><text x="0" y="10" class="sb-label " transform="translate(60 5)">à</text><g transform="translate(70 4)"><path d="M 6.5 0 L 14.5 0 A 6.5 6.5 0 0 1 14.5 13 L 6.5 13 A 6.5 6.5 0 0 1 6.5 0 Z" class="sb-input sb-input-number"/><text x="0" y="10" class="sb-label sb-literal-number" transform="translate(5 0)">90</text></g></g><g transform="translate(2 82)"><path d="M 0 3 L 3 0 L 13 0 L 16 3 L 24 3 L 27 0 L 70 0 L 73 3 L 73 19 L 70 22 L 27 22 L 24 25 L 16 25 L 13 22 L 3 22 L 0 19 Z" class="sb-pen sb-bevel"/><text x="0" y="10" class="sb-label " transform="translate(6 5)">effacer</text><text x="0" y="10" class="sb-label " transform="translate(46 5)">tout</text></g><g transform="translate(2 104)"><path d="M 0 3 L 3 0 L 13 0 L 16 3 L 24 3 L 27 0 L 151 0 L 154 3 L 154 19 L 151 22 L 27 22 L 24 25 L 16 25 L 13 22 L 3 22 L 0 19 Z" class="sb-pen sb-bevel"/><text x="0" y="10" class="sb-label " transform="translate(6 5)">stylo</text><text x="0" y="10" class="sb-label " transform="translate(35 5)">en</text><text x="0" y="10" class="sb-label " transform="translate(52 5)">position</text><text x="0" y="10" class="sb-label " transform="translate(98 5)">d'écriture</text></g><g transform="translate(2 126)"><path d="M 0 3 L 3 0 L 13 0 L 16 3 L 24 3 L 27 0 L 119 0 L 122 3 L 122 19 L 119 22 L 42 22 L 39 25 L 31 25 L 28 22 L 17 22 L 15 24 L 15 554 L 17 556 L 119 556 L 122 559 L 122 569 L 119 572 L 3 572 L 0 569" class="sb-control sb-bevel"/><text x="0" y="10" class="sb-label " transform="translate(6 5)">répéter</text><text x="0" y="10" class="sb-label " transform="translate(49 5)">indéfiniment</text><use a1:href="#loopArrow" xmlns:a1="http://www.w3.org/1999/xlink" transform="translate(107 569)"/><g transform="translate(15 22)"><g transform="translate(0 0)"><path d="M 0 3 L 3 0 L 13 0 L 16 3 L 24 3 L 27 0 L 255 0 L 258 3 L 258 23 L 255 26 L 42 26 L 39 29 L 31 29 L 28 26 L 17 26 L 15 28 L 15 46 L 17 48 L 255 48 L 258 51 L 258 61 L 255 64 L 27 64 L 24 67 L 16 67 L 13 64 L 3 64 L 0 61" class="sb-control sb-bevel"/><text x="0" y="10" class="sb-label " transform="translate(6 6)">si</text><g transform="translate(30 2)"><path d="M 10.5 0 L 181.5 0 192 10.5 L 192 10.5 181.5 21 L 10.5 21 0 10.5 L 0 10.5 10.5 0 Z" class="sb-sensing sb-bevel"/><text x="0" y="10" class="sb-label " transform="translate(11 4)">touche</text><g transform="translate(50 3)"><g width="76" height="14" class="sb-input sb-input-dropdown"><rect x="0" y="0" width="76" height="14" class="sb-sensing sb-darker"/></g><text x="0" y="10" class="sb-label sb-literal-dropdown" transform="translate(4 0)">flèche droite</text><polygon points="7 0 3.5 4 0 0" fill="#000" opacity="0.6" transform="translate(66 5)"/></g><text x="0" y="10" class="sb-label " transform="translate(130 4)">pressée</text><text x="0" y="10" class="sb-label " transform="translate(176 4)">?</text></g><text x="0" y="10" class="sb-label " transform="translate(226 6)">alors</text><g transform="translate(15 26)"><g transform="translate(0 0)"><path d="M 0 3 L 3 0 L 13 0 L 16 3 L 24 3 L 27 0 L 91 0 L 94 3 L 94 19 L 91 22 L 27 22 L 24 25 L 16 25 L 13 22 L 3 22 L 0 19 Z" class="sb-motion sb-bevel"/><text x="0" y="10" class="sb-label " transform="translate(6 5)">ajouter</text><g transform="translate(47 4)"><path d="M 6.5 0 L 14.5 0 A 6.5 6.5 0 0 1 14.5 13 L 6.5 13 A 6.5 6.5 0 0 1 6.5 0 Z" class="sb-input sb-input-number"/><text x="0" y="10" class="sb-label sb-literal-number" transform="translate(5 0)">10</text></g><text x="0" y="10" class="sb-label " transform="translate(72 5)">à</text><text x="0" y="10" class="sb-label " transform="translate(82 5)">x</text></g></g></g><g transform="translate(0 64)"><path d="M 0 3 L 3 0 L 13 0 L 16 3 L 24 3 L 27 0 L 261 0 L 264 3 L 264 23 L 261 26 L 42 26 L 39 29 L 31 29 L 28 26 L 17 26 L 15 28 L 15 46 L 17 48 L 261 48 L 264 51 L 264 61 L 261 64 L 27 64 L 24 67 L 16 67 L 13 64 L 3 64 L 0 61" class="sb-control sb-bevel"/><text x="0" y="10" class="sb-label " transform="translate(6 6)">si</text><g transform="translate(30 2)"><path d="M 10.5 0 L 187.5 0 198 10.5 L 198 10.5 187.5 21 L 10.5 21 0 10.5 L 0 10.5 10.5 0 Z" class="sb-sensing sb-bevel"/><text x="0" y="10" class="sb-label " transform="translate(11 4)">touche</text><g transform="translate(50 3)"><g width="82" height="14" class="sb-input sb-input-dropdown"><rect x="0" y="0" width="82" height="14" class="sb-sensing sb-darker"/></g><text x="0" y="10" class="sb-label sb-literal-dropdown" transform="translate(4 0)">flèche gauche</text><polygon points="7 0 3.5 4 0 0" fill="#000" opacity="0.6" transform="translate(72 5)"/></g><text x="0" y="10" class="sb-label " transform="translate(136 4)">pressée</text><text x="0" y="10" class="sb-label " transform="translate(182 4)">?</text></g><text x="0" y="10" class="sb-label " transform="translate(232 6)">alors</text><g transform="translate(15 26)"><g transform="translate(0 0)"><path d="M 0 3 L 3 0 L 13 0 L 16 3 L 24 3 L 27 0 L 96 0 L 99 3 L 99 19 L 96 22 L 27 22 L 24 25 L 16 25 L 13 22 L 3 22 L 0 19 Z" class="sb-motion sb-bevel"/><text x="0" y="10" class="sb-label " transform="translate(6 5)">ajouter</text><g transform="translate(47 4)"><path d="M 6.5 0 L 19.5 0 A 6.5 6.5 0 0 1 19.5 13 L 6.5 13 A 6.5 6.5 0 0 1 6.5 0 Z" class="sb-input sb-input-number"/><text x="0" y="10" class="sb-label sb-literal-number" transform="translate(5 0)">-10</text></g><text x="0" y="10" class="sb-label " transform="translate(77 5)">à</text><text x="0" y="10" class="sb-label " transform="translate(87 5)">x</text></g></g></g><g transform="translate(0 128)"><path d="M 0 3 L 3 0 L 13 0 L 16 3 L 24 3 L 27 0 L 248 0 L 251 3 L 251 23 L 248 26 L 42 26 L 39 29 L 31 29 L 28 26 L 17 26 L 15 28 L 15 46 L 17 48 L 248 48 L 251 51 L 251 61 L 248 64 L 27 64 L 24 67 L 16 67 L 13 64 L 3 64 L 0 61" class="sb-control sb-bevel"/><text x="0" y="10" class="sb-label " transform="translate(6 6)">si</text><g transform="translate(30 2)"><path d="M 10.5 0 L 174.5 0 185 10.5 L 185 10.5 174.5 21 L 10.5 21 0 10.5 L 0 10.5 10.5 0 Z" class="sb-sensing sb-bevel"/><text x="0" y="10" class="sb-label " transform="translate(11 4)">touche</text><g transform="translate(50 3)"><g width="69" height="14" class="sb-input sb-input-dropdown"><rect x="0" y="0" width="69" height="14" class="sb-sensing sb-darker"/></g><text x="0" y="10" class="sb-label sb-literal-dropdown" transform="translate(4 0)">flèche haut</text><polygon points="7 0 3.5 4 0 0" fill="#000" opacity="0.6" transform="translate(59 5)"/></g><text x="0" y="10" class="sb-label " transform="translate(123 4)">pressée</text><text x="0" y="10" class="sb-label " transform="translate(169 4)">?</text></g><text x="0" y="10" class="sb-label " transform="translate(219 6)">alors</text><g transform="translate(15 26)"><g transform="translate(0 0)"><path d="M 0 3 L 3 0 L 13 0 L 16 3 L 24 3 L 27 0 L 91 0 L 94 3 L 94 19 L 91 22 L 27 22 L 24 25 L 16 25 L 13 22 L 3 22 L 0 19 Z" class="sb-motion sb-bevel"/><text x="0" y="10" class="sb-label " transform="translate(6 5)">ajouter</text><g transform="translate(47 4)"><path d="M 6.5 0 L 14.5 0 A 6.5 6.5 0 0 1 14.5 13 L 6.5 13 A 6.5 6.5 0 0 1 6.5 0 Z" class="sb-input sb-input-number"/><text x="0" y="10" class="sb-label sb-literal-number" transform="translate(5 0)">10</text></g><text x="0" y="10" class="sb-label " transform="translate(72 5)">à</text><text x="0" y="10" class="sb-label " transform="translate(82 5)">y</text></g></g></g><g transform="translate(0 192)"><path d="M 0 3 L 3 0 L 13 0 L 16 3 L 24 3 L 27 0 L 244 0 L 247 3 L 247 23 L 244 26 L 42 26 L 39 29 L 31 29 L 28 26 L 17 26 L 15 28 L 15 46 L 17 48 L 244 48 L 247 51 L 247 61 L 244 64 L 27 64 L 24 67 L 16 67 L 13 64 L 3 64 L 0 61" class="sb-control sb-bevel"/><text x="0" y="10" class="sb-label " transform="translate(6 6)">si</text><g transform="translate(30 2)"><path d="M 10.5 0 L 170.5 0 181 10.5 L 181 10.5 170.5 21 L 10.5 21 0 10.5 L 0 10.5 10.5 0 Z" class="sb-sensing sb-bevel"/><text x="0" y="10" class="sb-label " transform="translate(11 4)">touche</text><g transform="translate(50 3)"><g width="65" height="14" class="sb-input sb-input-dropdown"><rect x="0" y="0" width="65" height="14" class="sb-sensing sb-darker"/></g><text x="0" y="10" class="sb-label sb-literal-dropdown" transform="translate(4 0)">flèche bas</text><polygon points="7 0 3.5 4 0 0" fill="#000" opacity="0.6" transform="translate(55 5)"/></g><text x="0" y="10" class="sb-label " transform="translate(119 4)">pressée</text><text x="0" y="10" class="sb-label " transform="translate(165 4)">?</text></g><text x="0" y="10" class="sb-label " transform="translate(215 6)">alors</text><g transform="translate(15 26)"><g transform="translate(0 0)"><path d="M 0 3 L 3 0 L 13 0 L 16 3 L 24 3 L 27 0 L 96 0 L 99 3 L 99 19 L 96 22 L 27 22 L 24 25 L 16 25 L 13 22 L 3 22 L 0 19 Z" class="sb-motion sb-bevel"/><text x="0" y="10" class="sb-label " transform="translate(6 5)">ajouter</text><g transform="translate(47 4)"><path d="M 6.5 0 L 19.5 0 A 6.5 6.5 0 0 1 19.5 13 L 6.5 13 A 6.5 6.5 0 0 1 6.5 0 Z" class="sb-input sb-input-number"/><text x="0" y="10" class="sb-label sb-literal-number" transform="translate(5 0)">-10</text></g><text x="0" y="10" class="sb-label " transform="translate(77 5)">à</text><text x="0" y="10" class="sb-label " transform="translate(87 5)">y</text></g></g></g><g transform="translate(0 256)"><path d="M 0 3 L 3 0 L 13 0 L 16 3 L 24 3 L 27 0 L 206 0 L 209 3 L 209 23 L 206 26 L 42 26 L 39 29 L 31 29 L 28 26 L 17 26 L 15 28 L 15 46 L 17 48 L 206 48 L 209 51 L 209 61 L 206 64 L 27 64 L 24 67 L 16 67 L 13 64 L 3 64 L 0 61" class="sb-control sb-bevel"/><text x="0" y="10" class="sb-label " transform="translate(6 6)">si</text><g transform="translate(30 2)"><path d="M 10.5 0 L 132.5 0 143 10.5 L 143 10.5 132.5 21 L 10.5 21 0 10.5 L 0 10.5 10.5 0 Z" class="sb-sensing sb-bevel"/><text x="0" y="10" class="sb-label " transform="translate(11 4)">touche</text><g transform="translate(50 3)"><g width="27" height="14" class="sb-input sb-input-dropdown"><rect x="0" y="0" width="27" height="14" class="sb-sensing sb-darker"/></g><text x="0" y="10" class="sb-label sb-literal-dropdown" transform="translate(4 0)">m</text><polygon points="7 0 3.5 4 0 0" fill="#000" opacity="0.6" transform="translate(17 5)"/></g><text x="0" y="10" class="sb-label " transform="translate(81 4)">pressée</text><text x="0" y="10" class="sb-label " transform="translate(127 4)">?</text></g><text x="0" y="10" class="sb-label " transform="translate(177 6)">alors</text><g transform="translate(15 26)"><g transform="translate(0 0)"><path d="M 0 3 L 3 0 L 13 0 L 16 3 L 24 3 L 27 0 L 123 0 L 126 3 L 126 19 L 123 22 L 27 22 L 24 25 L 16 25 L 13 22 L 3 22 L 0 19 Z" class="sb-sound sb-bevel"/><text x="0" y="10" class="sb-label " transform="translate(6 5)">jouer</text><text x="0" y="10" class="sb-label " transform="translate(37 5)">le</text><text x="0" y="10" class="sb-label " transform="translate(50 5)">son</text><g transform="translate(73 4)"><g width="47" height="14" class="sb-input sb-input-dropdown"><rect x="0" y="0" width="47" height="14" class="sb-sound sb-darker"/></g><text x="0" y="10" class="sb-label sb-literal-dropdown" transform="translate(4 0)">miaou</text><polygon points="7 0 3.5 4 0 0" fill="#000" opacity="0.6" transform="translate(37 5)"/></g></g></g></g><g transform="translate(0 320)"><path d="M 0 3 L 3 0 L 13 0 L 16 3 L 24 3 L 27 0 L 203 0 L 206 3 L 206 23 L 203 26 L 42 26 L 39 29 L 31 29 L 28 26 L 17 26 L 15 28 L 15 68 L 17 70 L 203 70 L 206 73 L 206 83 L 203 86 L 27 86 L 24 89 L 16 89 L 13 86 L 3 86 L 0 83" class="sb-control sb-bevel"/><text x="0" y="10" class="sb-label " transform="translate(6 6)">si</text><g transform="translate(30 2)"><path d="M 10.5 0 L 129.5 0 140 10.5 L 140 10.5 129.5 21 L 10.5 21 0 10.5 L 0 10.5 10.5 0 Z" class="sb-sensing sb-bevel"/><text x="0" y="10" class="sb-label " transform="translate(11 4)">touche</text><g transform="translate(50 3)"><g width="24" height="14" class="sb-input sb-input-dropdown"><rect x="0" y="0" width="24" height="14" class="sb-sensing sb-darker"/></g><text x="0" y="10" class="sb-label sb-literal-dropdown" transform="translate(4 0)">c</text><polygon points="7 0 3.5 4 0 0" fill="#000" opacity="0.6" transform="translate(14 5)"/></g><text x="0" y="10" class="sb-label " transform="translate(78 4)">pressée</text><text x="0" y="10" class="sb-label " transform="translate(124 4)">?</text></g><text x="0" y="10" class="sb-label " transform="translate(174 6)">alors</text><g transform="translate(15 26)"><g transform="translate(0 0)"><path d="M 0 3 L 3 0 L 13 0 L 16 3 L 24 3 L 27 0 L 96 0 L 99 3 L 99 19 L 96 22 L 27 22 L 24 25 L 16 25 L 13 22 L 3 22 L 0 19 Z" class="sb-looks sb-bevel"/><text x="0" y="10" class="sb-label " transform="translate(6 5)">costume</text><text x="0" y="10" class="sb-label " transform="translate(54 5)">suivant</text></g><g transform="translate(0 22)"><path d="M 0 3 L 3 0 L 13 0 L 16 3 L 24 3 L 27 0 L 135 0 L 138 3 L 138 19 L 135 22 L 27 22 L 24 25 L 16 25 L 13 22 L 3 22 L 0 19 Z" class="sb-control sb-bevel"/><text x="0" y="10" class="sb-label " transform="translate(6 5)">attendre</text><g transform="translate(55 4)"><path d="M 6.5 0 L 17.5 0 A 6.5 6.5 0 0 1 17.5 13 L 6.5 13 A 6.5 6.5 0 0 1 6.5 0 Z" class="sb-input sb-input-number"/><text x="0" y="10" class="sb-label sb-literal-number" transform="translate(5 0)">0.1</text></g><text x="0" y="10" class="sb-label " transform="translate(83 5)">secondes</text></g></g></g><g transform="translate(0 406)"><path d="M 0 3 L 3 0 L 13 0 L 16 3 L 24 3 L 27 0 L 229 0 L 232 3 L 232 23 L 229 26 L 42 26 L 39 29 L 31 29 L 28 26 L 17 26 L 15 28 L 15 46 L 17 48 L 229 48 L 232 51 L 232 61 L 229 64 L 27 64 L 24 67 L 16 67 L 13 64 L 3 64 L 0 61" class="sb-control sb-bevel"/><text x="0" y="10" class="sb-label " transform="translate(6 6)">si</text><g transform="translate(30 2)"><path d="M 10.5 0 L 155.5 0 166 10.5 L 166 10.5 155.5 21 L 10.5 21 0 10.5 L 0 10.5 10.5 0 Z" class="sb-sensing sb-bevel"/><text x="0" y="10" class="sb-label " transform="translate(11 4)">touche</text><g transform="translate(50 3)"><g width="50" height="14" class="sb-input sb-input-dropdown"><rect x="0" y="0" width="50" height="14" class="sb-sensing sb-darker"/></g><text x="0" y="10" class="sb-label sb-literal-dropdown" transform="translate(4 0)">espace</text><polygon points="7 0 3.5 4 0 0" fill="#000" opacity="0.6" transform="translate(40 5)"/></g><text x="0" y="10" class="sb-label " transform="translate(104 4)">pressée</text><text x="0" y="10" class="sb-label " transform="translate(150 4)">?</text></g><text x="0" y="10" class="sb-label " transform="translate(200 6)">alors</text><g transform="translate(15 26)"><g transform="translate(0 0)"><path d="M 0 3 L 3 0 L 13 0 L 16 3 L 24 3 L 27 0 L 184 0 L 187 3 L 187 19 L 184 22 L 27 22 L 24 25 L 16 25 L 13 22 L 3 22 L 0 19 Z" class="sb-pen sb-bevel"/><text x="0" y="10" class="sb-label " transform="translate(6 5)">ajouter</text><g transform="translate(47 4)"><path d="M 6.5 0 L 14.5 0 A 6.5 6.5 0 0 1 14.5 13 L 6.5 13 A 6.5 6.5 0 0 1 6.5 0 Z" class="sb-input sb-input-number"/><text x="0" y="10" class="sb-label sb-literal-number" transform="translate(5 0)">10</text></g><text x="0" y="10" class="sb-label " transform="translate(72 5)">à</text><text x="0" y="10" class="sb-label " transform="translate(82 5)">la</text><text x="0" y="10" class="sb-label " transform="translate(95 5)">couleur</text><text x="0" y="10" class="sb-label " transform="translate(138 5)">du</text><text x="0" y="10" class="sb-label " transform="translate(156 5)">stylo</text></g></g></g><g transform="translate(0 470)"><path d="M 0 3 L 3 0 L 13 0 L 16 3 L 24 3 L 27 0 L 203 0 L 206 3 L 206 23 L 203 26 L 42 26 L 39 29 L 31 29 L 28 26 L 17 26 L 15 28 L 15 46 L 17 48 L 203 48 L 206 51 L 206 61 L 203 64 L 27 64 L 24 67 L 16 67 L 13 64 L 3 64 L 0 61" class="sb-control sb-bevel"/><text x="0" y="10" class="sb-label " transform="translate(6 6)">si</text><g transform="translate(30 2)"><path d="M 10.5 0 L 129.5 0 140 10.5 L 140 10.5 129.5 21 L 10.5 21 0 10.5 L 0 10.5 10.5 0 Z" class="sb-sensing sb-bevel"/><text x="0" y="10" class="sb-label " transform="translate(11 4)">touche</text><g transform="translate(50 3)"><g width="24" height="14" class="sb-input sb-input-dropdown"><rect x="0" y="0" width="24" height="14" class="sb-sensing sb-darker"/></g><text x="0" y="10" class="sb-label sb-literal-dropdown" transform="translate(4 0)">f</text><polygon points="7 0 3.5 4 0 0" fill="#000" opacity="0.6" transform="translate(14 5)"/></g><text x="0" y="10" class="sb-label " transform="translate(78 4)">pressée</text><text x="0" y="10" class="sb-label " transform="translate(124 4)">?</text></g><text x="0" y="10" class="sb-label " transform="translate(174 6)">alors</text><g transform="translate(15 26)"><g transform="translate(0 0)"><path d="M 0 3 L 3 0 L 13 0 L 16 3 L 24 3 L 27 0 L 70 0 L 73 3 L 73 19 L 70 22 L 27 22 L 24 25 L 16 25 L 13 22 L 3 22 L 0 19 Z" class="sb-pen sb-bevel"/><text x="0" y="10" class="sb-label " transform="translate(6 5)">effacer</text><text x="0" y="10" class="sb-label " transform="translate(46 5)">tout</text></g></g></g></g></g></g></g></svg>