<svg xmlns="http://www.w3.org/2000/svg" version="1.1" width="284" height="371"><defs><filter id="bevelFilter" x0="-50%" y0="-50%" width="200%" height="200%"><feGaussianBlur result="blur-1" in="SourceAlpha" stdDeviation="1 1"/><feFlood result="flood-2" in="undefined" flood-color="#fff" flood-opacity="0.15"/><feOffset result="offset-3" in="blur-1" dx="1" dy="1"/><feComposite result="comp-4" operator="arithmetic" in="SourceAlpha" in2="offset-3" k2="1" k3="-1"/><feComposite result="comp-5" operator="in" in="flood-2" in2="comp-4"/><feFlood result="flood-6" in="undefined" flood-color="#000" flood-opacity="0.7"/><feOffset result="offset-7" in="blur-1" dx="-1" dy="-1"/><feComposite result="comp-8" operator="arithmetic" in="SourceAlpha" in2="offset-7" k2="1" k3="-1"/><feComposite result="comp-9" operator="in" in="flood-6" in2="comp-8"/><feMerge result="merge-10"><feMergeNode in="SourceGraphic"/><feMergeNode in="comp-5"/><feMergeNode in="comp-9"/></feMerge></filter><filter id="inputBevelFilter" x0="-50%" y0="-50%" width="200%" height="200%"><feGaussianBlur result="blur-1" in="SourceAlpha" stdDeviation="1 1"/><feFlood result="flood-2" in="undefined" flood-color="#fff" flood-opacity="0.15"/><feOffset result="offset-3" in="blur-1" dx="-1" dy="-1"/><feComposite result="comp-4" operator="arithmetic" in="SourceAlpha" in2="offset-3" k2="1" k3="-1"/><feComposite result="comp-5" operator="in" in="flood-2" in2="comp-4"/><feFlood result="flood-6" in="undefined" flood-color="#000" flood-opacity="0.7"/><feOffset result="offset-7" in="blur-1" dx="1" dy="1"/><feComposite result="comp-8" operator="arithmetic" in="SourceAlpha" in2="offset-7" k2="1" k3="-1"/><feComposite result="comp-9" operator="in" in="flood-6" in2="comp-8"/><feMerge result="merge-10"><feMergeNode in="SourceGraphic"/><feMergeNode in="comp-5"/><feMergeNode in="comp-9"/></feMerge></filter><filter id="inputDarkFilter" x0="-50%" y0="-50%" width="200%" height="200%"><feFlood result="flood-1" in="undefined" flood-color="#000" flood-opacity="0.2"/><feComposite result="comp-2" operator="in" in="flood-1" in2="SourceAlpha"/><feMerge result="merge-3"><feMergeNode in="SourceGraphic"/><feMergeNode in="comp-2"/></feMerge></filter><path d="M1.504 21L0 19.493 4.567 0h1.948l-.5 2.418s1.002-.502 3.006 0c2.006.503 3.008 2.01 6.517 2.01 3.508 0 4.463-.545 4.463-.545l-.823 9.892s-2.137 1.005-5.144.696c-3.007-.307-3.007-2.007-6.014-2.51-3.008-.502-4.512.503-4.512.503L1.504 21z" fill="#3f8d15" id="greenFlag"/><path d="M6.724 0C3.01 0 0 2.91 0 6.5c0 2.316 1.253 4.35 3.14 5.5H5.17v-1.256C3.364 10.126 2.07 8.46 2.07 6.5 2.07 4.015 4.152 2 6.723 2c1.14 0 2.184.396 2.993 1.053L8.31 4.13c-.45.344-.398.826.11 1.08L15 8.5 13.858.992c-.083-.547-.514-.714-.963-.37l-1.532 1.172A6.825 6.825 0 0 0 6.723 0z" fill="#fff" id="turnRight"/><path d="M3.637 1.794A6.825 6.825 0 0 1 8.277 0C11.99 0 15 2.91 15 6.5c0 2.316-1.253 4.35-3.14 5.5H9.83v-1.256c1.808-.618 3.103-2.285 3.103-4.244 0-2.485-2.083-4.5-4.654-4.5-1.14 0-2.184.396-2.993 1.053L6.69 4.13c.45.344.398.826-.11 1.08L0 8.5 1.142.992c.083-.547.514-.714.963-.37l1.532 1.172z" fill="#fff" id="turnLeft"/><path d="M0 0L4 4L0 8Z" fill="#111" id="addInput"/><path d="M4 0L4 8L0 4Z" fill="#111" id="delInput"/><g id="loopArrow"><path d="M8 0l2 -2l0 -3l3 0l-4 -5l-4 5l3 0l0 3l-8 0l0 2" fill="#000" opacity="0.3"/><path d="M8 0l2 -2l0 -3l3 0l-4 -5l-4 5l3 0l0 3l-8 0l0 2" fill="#fff" opacity="0.9" transform="translate(-1 -1)"/></g><style><![CDATA[.sb-label{font-family:Lucida Grande,Verdana,Arial,DejaVu Sans,sans-serif;font-weight:700;fill:#fff;font-size:10px;word-spacing:+1px}.sb-obsolete{fill:#d42828}.sb-motion{fill:#4a6cd4}.sb-looks{fill:#8a55d7}.sb-sound{fill:#bb42c3}.sb-pen{fill:#0e9a6c}.sb-events{fill:#c88330}.sb-control{fill:#e1a91a}.sb-sensing{fill:#2ca5e2}.sb-operators{fill:#5cb712}.sb-variables{fill:#ee7d16}.sb-list{fill:#cc5b22}.sb-custom{fill:#632d99}.sb-custom-arg{fill:#5947b1}.sb-extension{fill:#4b4a60}.sb-grey{fill:#969696}.sb-bevel{filter:url(#bevelFilter)}.sb-input{filter:url(#inputBevelFilter)}.sb-input-number,.sb-input-number-dropdown,.sb-input-string{fill:#fff}.sb-literal-dropdown,.sb-literal-number,.sb-literal-number-dropdown,.sb-literal-string{font-weight:400;font-size:9px;word-spacing:0}.sb-literal-number,.sb-literal-number-dropdown,.sb-literal-string{fill:#000}.sb-darker{filter:url(#inputDarkFilter)}.sb-outline{stroke:#fff;stroke-opacity:.2;stroke-width:2;fill:none}.sb-define-hat-cap{stroke:#632d99;stroke-width:1;fill:#8e2ec2}.sb-comment{fill:#ffffa5;stroke:#d0d1d2;stroke-width:1}.sb-comment-line{fill:#ffff80}.sb-comment-label{font-family:Helevetica,Arial,DejaVu Sans,sans-serif;font-weight:700;fill:#5c5d5f;word-spacing:0;font-size:12px}]]></style></defs><g><g transform="translate(0 0)"><g transform="translate(2 0)"><path d="M 0 12 L 0 12 A 80 80 0 0 1 80 10 L 122 10 L 125 13 L 125 35 L 122 38 L 27 38 L 24 41 L 16 41 L 13 38 L 3 38 L 0 35 Z" class="sb-events sb-bevel"/><text x="0" y="10" class="sb-label " transform="translate(6 18)">quand</text><use a0:href="#greenFlag" xmlns:a0="http://www.w3.org/1999/xlink" transform="translate(44 12)"/><text x="0" y="10" class="sb-label " transform="translate(68 18)">est</text><text x="0" y="10" class="sb-label " transform="translate(88 18)">cliqué</text></g><g transform="translate(2 38)"><path d="M 0 3 L 3 0 L 13 0 L 16 3 L 24 3 L 27 0 L 258 0 L 261 3 L 261 19 L 258 22 L 27 22 L 24 25 L 16 25 L 13 22 L 3 22 L 0 19 Z" class="sb-list sb-bevel"/><text x="0" y="10" class="sb-label " transform="translate(6 5)">supprimer</text><text x="0" y="10" class="sb-label " transform="translate(66 5)">l'élément</text><g transform="translate(117 4)"><path d="M 6.5 0 L 27.5 0 A 6.5 6.5 0 0 1 27.5 13 L 6.5 13 A 6.5 6.5 0 0 1 6.5 0 Z" class="sb-input sb-input-number-dropdown"/><text x="0" y="10" class="sb-label sb-literal-number-dropdown" transform="translate(5 0)">tout</text><polygon points="7 0 3.5 4 0 0" fill="#000" opacity="0.6" transform="translate(24 4)"/></g><text x="0" y="10" class="sb-label " transform="translate(155 5)">de</text><text x="0" y="10" class="sb-label " transform="translate(172 5)">la</text><text x="0" y="10" class="sb-label " transform="translate(185 5)">liste</text><g transform="translate(211 4)"><g width="44" height="14" class="sb-input sb-input-dropdown"><rect x="0" y="0" width="44" height="14" class="sb-list sb-darker"/></g><text x="0" y="10" class="sb-label sb-literal-dropdown" transform="translate(4 0)">notes</text><polygon points="7 0 3.5 4 0 0" fill="#000" opacity="0.6" transform="translate(34 5)"/></g></g><g transform="translate(2 60)"><path d="M 0 3 L 3 0 L 13 0 L 16 3 L 24 3 L 27 0 L 132 0 L 135 3 L 135 19 L 132 22 L 27 22 L 24 25 L 16 25 L 13 22 L 3 22 L 0 19 Z" class="sb-variables sb-bevel"/><text x="0" y="10" class="sb-label " transform="translate(6 5)">mettre</text><g transform="translate(45 4)"><g width="56" height="14" class="sb-input sb-input-dropdown"><rect x="0" y="0" width="56" height="14" class="sb-variables sb-darker"/></g><text x="0" y="10" class="sb-label sb-literal-dropdown" transform="translate(4 0)">nbnotes</text><polygon points="7 0 3.5 4 0 0" fill="#000" opacity="0.6" transform="translate(46 5)"/></g><text x="0" y="10" class="sb-label " transform="translate(105 5)">à</text><g transform="translate(115 4)"><rect x="0" y="0" width="14" height="14" class="sb-input sb-input-string"/><text x="0" y="10" class="sb-label sb-literal-string" transform="translate(4 0)">3</text></g></g><g transform="translate(2 82)"><path d="M 0 3 L 3 0 L 13 0 L 16 3 L 24 3 L 27 0 L 134 0 L 137 3 L 137 22 L 134 25 L 42 25 L 39 28 L 31 28 L 28 25 L 17 25 L 15 27 L 15 71 L 17 73 L 134 73 L 137 76 L 137 86 L 134 89 L 27 89 L 24 92 L 16 92 L 13 89 L 3 89 L 0 86" class="sb-control sb-bevel"/><text x="0" y="10" class="sb-label " transform="translate(6 6)">répéter</text><g transform="translate(49 2)"><path d="M 10 0 L 49 0 A 10 10 0 0 1 49 20 L 10 20 A 10 10 0 0 1 10 0 Z" class="sb-variables sb-bevel"/><text x="0" y="10" class="sb-label " transform="translate(8 4)">nbnotes</text></g><text x="0" y="10" class="sb-label " transform="translate(112 6)">fois</text><use a1:href="#loopArrow" xmlns:a1="http://www.w3.org/1999/xlink" transform="translate(122 86)"/><g transform="translate(15 25)"><g transform="translate(0 0)"><path d="M 0 3 L 3 0 L 13 0 L 16 3 L 24 3 L 27 0 L 183 0 L 186 3 L 186 19 L 183 22 L 27 22 L 24 25 L 16 25 L 13 22 L 3 22 L 0 19 Z" class="sb-sensing sb-bevel"/><text x="0" y="10" class="sb-label " transform="translate(6 5)">demander</text><g transform="translate(64 4)"><rect x="0" y="0" width="53" height="14" class="sb-input sb-input-string"/><text x="0" y="10" class="sb-label sb-literal-string" transform="translate(4 0)">Une note ?</text></g><text x="0" y="10" class="sb-label " transform="translate(121 5)">et</text><text x="0" y="10" class="sb-label " transform="translate(135 5)">attendre</text></g><g transform="translate(0 22)"><path d="M 0 3 L 3 0 L 13 0 L 16 3 L 24 3 L 27 0 L 167 0 L 170 3 L 170 23 L 167 26 L 27 26 L 24 29 L 16 29 L 13 26 L 3 26 L 0 23 Z" class="sb-list sb-bevel"/><text x="0" y="10" class="sb-label " transform="translate(6 7)">ajouter</text><g transform="translate(47 3)"><path d="M 10 0 L 49 0 A 10 10 0 0 1 49 20 L 10 20 A 10 10 0 0 1 10 0 Z" class="sb-sensing sb-bevel"/><text x="0" y="10" class="sb-label " transform="translate(8 4)">réponse</text></g><text x="0" y="10" class="sb-label " transform="translate(110 7)">à</text><g transform="translate(120 6)"><g width="44" height="14" class="sb-input sb-input-dropdown"><rect x="0" y="0" width="44" height="14" class="sb-list sb-darker"/></g><text x="0" y="10" class="sb-label sb-literal-dropdown" transform="translate(4 0)">notes</text><polygon points="7 0 3.5 4 0 0" fill="#000" opacity="0.6" transform="translate(34 5)"/></g></g></g></g><g transform="translate(2 171)"><path d="M 0 3 L 3 0 L 13 0 L 16 3 L 24 3 L 27 0 L 127 0 L 130 3 L 130 19 L 127 22 L 27 22 L 24 25 L 16 25 L 13 22 L 3 22 L 0 19 Z" class="sb-variables sb-bevel"/><text x="0" y="10" class="sb-label " transform="translate(6 5)">mettre</text><g transform="translate(45 4)"><g width="51" height="14" class="sb-input sb-input-dropdown"><rect x="0" y="0" width="51" height="14" class="sb-variables sb-darker"/></g><text x="0" y="10" class="sb-label sb-literal-dropdown" transform="translate(4 0)">somme</text><polygon points="7 0 3.5 4 0 0" fill="#000" opacity="0.6" transform="translate(41 5)"/></g><text x="0" y="10" class="sb-label " transform="translate(100 5)">à</text><g transform="translate(110 4)"><rect x="0" y="0" width="14" height="14" class="sb-input sb-input-string"/><text x="0" y="10" class="sb-label sb-literal-string" transform="translate(4 0)">0</text></g></g><g transform="translate(2 193)"><path d="M 0 3 L 3 0 L 13 0 L 16 3 L 24 3 L 27 0 L 101 0 L 104 3 L 104 19 L 101 22 L 27 22 L 24 25 L 16 25 L 13 22 L 3 22 L 0 19 Z" class="sb-variables sb-bevel"/><text x="0" y="10" class="sb-label " transform="translate(6 5)">mettre</text><g transform="translate(45 4)"><g width="25" height="14" class="sb-input sb-input-dropdown"><rect x="0" y="0" width="25" height="14" class="sb-variables sb-darker"/></g><text x="0" y="10" class="sb-label sb-literal-dropdown" transform="translate(4 0)">n</text><polygon points="7 0 3.5 4 0 0" fill="#000" opacity="0.6" transform="translate(15 5)"/></g><text x="0" y="10" class="sb-label " transform="translate(74 5)">à</text><g transform="translate(84 4)"><rect x="0" y="0" width="14" height="14" class="sb-input sb-input-string"/><text x="0" y="10" class="sb-label sb-literal-string" transform="translate(4 0)">0</text></g></g><g transform="translate(2 215)"><path d="M 0 3 L 3 0 L 13 0 L 16 3 L 24 3 L 27 0 L 134 0 L 137 3 L 137 22 L 134 25 L 42 25 L 39 28 L 31 28 L 28 25 L 17 25 L 15 27 L 15 75 L 17 77 L 134 77 L 137 80 L 137 90 L 134 93 L 27 93 L 24 96 L 16 96 L 13 93 L 3 93 L 0 90" class="sb-control sb-bevel"/><text x="0" y="10" class="sb-label " transform="translate(6 6)">répéter</text><g transform="translate(49 2)"><path d="M 10 0 L 49 0 A 10 10 0 0 1 49 20 L 10 20 A 10 10 0 0 1 10 0 Z" class="sb-variables sb-bevel"/><text x="0" y="10" class="sb-label " transform="translate(8 4)">nbnotes</text></g><text x="0" y="10" class="sb-label " transform="translate(112 6)">fois</text><use a2:href="#loopArrow" xmlns:a2="http://www.w3.org/1999/xlink" transform="translate(122 90)"/><g transform="translate(15 25)"><g transform="translate(0 0)"><path d="M 0 3 L 3 0 L 13 0 L 16 3 L 24 3 L 27 0 L 104 0 L 107 3 L 107 19 L 104 22 L 27 22 L 24 25 L 16 25 L 13 22 L 3 22 L 0 19 Z" class="sb-variables sb-bevel"/><text x="0" y="10" class="sb-label " transform="translate(6 5)">ajouter</text><text x="0" y="10" class="sb-label " transform="translate(47 5)">à</text><g transform="translate(57 4)"><g width="25" height="14" class="sb-input sb-input-dropdown"><rect x="0" y="0" width="25" height="14" class="sb-variables sb-darker"/></g><text x="0" y="10" class="sb-label sb-literal-dropdown" transform="translate(4 0)">n</text><polygon points="7 0 3.5 4 0 0" fill="#000" opacity="0.6" transform="translate(15 5)"/></g><g transform="translate(86 4)"><path d="M 6.5 0 L 8.5 0 A 6.5 6.5 0 0 1 8.5 13 L 6.5 13 A 6.5 6.5 0 0 1 6.5 0 Z" class="sb-input sb-input-number"/><text x="0" y="10" class="sb-label sb-literal-number" transform="translate(5 0)">1</text></g></g><g transform="translate(0 22)"><path d="M 0 3 L 3 0 L 13 0 L 16 3 L 24 3 L 27 0 L 262 0 L 265 3 L 265 27 L 262 30 L 27 30 L 24 33 L 16 33 L 13 30 L 3 30 L 0 27 Z" class="sb-variables sb-bevel"/><text x="0" y="10" class="sb-label " transform="translate(6 9)">ajouter</text><text x="0" y="10" class="sb-label " transform="translate(47 9)">à</text><g transform="translate(57 8)"><g width="51" height="14" class="sb-input sb-input-dropdown"><rect x="0" y="0" width="51" height="14" class="sb-variables sb-darker"/></g><text x="0" y="10" class="sb-label sb-literal-dropdown" transform="translate(4 0)">somme</text><polygon points="7 0 3.5 4 0 0" fill="#000" opacity="0.6" transform="translate(41 5)"/></g><g transform="translate(112 3)"><path d="M 12 0 L 135 0 A 12 12 0 0 1 135 24 L 12 24 A 12 12 0 0 1 12 0 Z" class="sb-list sb-bevel"/><text x="0" y="10" class="sb-label " transform="translate(8 6)">élément</text><g transform="translate(54 2)"><path d="M 10 0 L 13 0 A 10 10 0 0 1 13 20 L 10 20 A 10 10 0 0 1 10 0 Z" class="sb-variables sb-bevel"/><text x="0" y="10" class="sb-label " transform="translate(8 4)">n</text></g><text x="0" y="10" class="sb-label " transform="translate(81 6)">de</text><g transform="translate(98 5)"><g width="44" height="14" class="sb-input sb-input-dropdown"><rect x="0" y="0" width="44" height="14" class="sb-list sb-darker"/></g><text x="0" y="10" class="sb-label sb-literal-dropdown" transform="translate(4 0)">notes</text><polygon points="7 0 3.5 4 0 0" fill="#000" opacity="0.6" transform="translate(34 5)"/></g></g></g></g></g><g transform="translate(2 308)"><path d="M 0 3 L 3 0 L 13 0 L 16 3 L 24 3 L 27 0 L 257 0 L 260 3 L 260 27 L 257 30 L 27 30 L 24 33 L 16 33 L 13 30 L 3 30 L 0 27 Z" class="sb-variables sb-bevel"/><text x="0" y="10" class="sb-label " transform="translate(6 9)">mettre</text><g transform="translate(45 8)"><g width="60" height="14" class="sb-input sb-input-dropdown"><rect x="0" y="0" width="60" height="14" class="sb-variables sb-darker"/></g><text x="0" y="10" class="sb-label sb-literal-dropdown" transform="translate(4 0)">moyenne</text><polygon points="7 0 3.5 4 0 0" fill="#000" opacity="0.6" transform="translate(50 5)"/></g><text x="0" y="10" class="sb-label " transform="translate(109 9)">à</text><g transform="translate(119 3)"><path d="M 12 0 L 123 0 A 12 12 0 0 1 123 24 L 12 24 A 12 12 0 0 1 12 0 Z" class="sb-operators sb-bevel"/><g transform="translate(4 2)"><path d="M 10 0 L 44 0 A 10 10 0 0 1 44 20 L 10 20 A 10 10 0 0 1 10 0 Z" class="sb-variables sb-bevel"/><text x="0" y="10" class="sb-label " transform="translate(8 4)">somme</text></g><text x="0" y="10" class="sb-label " transform="translate(62 6)">/</text><g transform="translate(72 2)"><path d="M 10 0 L 49 0 A 10 10 0 0 1 49 20 L 10 20 A 10 10 0 0 1 10 0 Z" class="sb-variables sb-bevel"/><text x="0" y="10" class="sb-label " transform="translate(8 4)">nbnotes</text></g></g></g><g transform="translate(2 338)"><path d="M 0 3 L 3 0 L 13 0 L 16 3 L 24 3 L 27 0 L 224 0 L 227 3 L 227 27 L 224 30 L 27 30 L 24 33 L 16 33 L 13 30 L 3 30 L 0 27 Z" class="sb-looks sb-bevel"/><text x="0" y="10" class="sb-label " transform="translate(6 9)">dire</text><g transform="translate(31 3)"><path d="M 12 0 L 178 0 A 12 12 0 0 1 178 24 L 12 24 A 12 12 0 0 1 12 0 Z" class="sb-operators sb-bevel"/><text x="0" y="10" class="sb-label " transform="translate(8 6)">regroupe</text><g transform="translate(61 5)"><rect x="0" y="0" width="57" height="14" class="sb-input sb-input-string"/><text x="0" y="10" class="sb-label sb-literal-string" transform="translate(4 0)">Moyenne =</text></g><g transform="translate(122 2)"><path d="M 10 0 L 54 0 A 10 10 0 0 1 54 20 L 10 20 A 10 10 0 0 1 10 0 Z" class="sb-variables sb-bevel"/><text x="0" y="10" class="sb-label " transform="translate(8 4)">moyenne</text></g></g></g></g></g></svg>