<svg xmlns="http://www.w3.org/2000/svg" version="1.1" width="326" height="436"><defs><filter id="bevelFilter" x0="-50%" y0="-50%" width="200%" height="200%"><feGaussianBlur result="blur-1" in="SourceAlpha" stdDeviation="1 1"/><feFlood result="flood-2" in="undefined" flood-color="#fff" flood-opacity="0.15"/><feOffset result="offset-3" in="blur-1" dx="1" dy="1"/><feComposite result="comp-4" operator="arithmetic" in="SourceAlpha" in2="offset-3" k2="1" k3="-1"/><feComposite result="comp-5" operator="in" in="flood-2" in2="comp-4"/><feFlood result="flood-6" in="undefined" flood-color="#000" flood-opacity="0.7"/><feOffset result="offset-7" in="blur-1" dx="-1" dy="-1"/><feComposite result="comp-8" operator="arithmetic" in="SourceAlpha" in2="offset-7" k2="1" k3="-1"/><feComposite result="comp-9" operator="in" in="flood-6" in2="comp-8"/><feMerge result="merge-10"><feMergeNode in="SourceGraphic"/><feMergeNode in="comp-5"/><feMergeNode in="comp-9"/></feMerge></filter><filter id="inputBevelFilter" x0="-50%" y0="-50%" width="200%" height="200%"><feGaussianBlur result="blur-1" in="SourceAlpha" stdDeviation="1 1"/><feFlood result="flood-2" in="undefined" flood-color="#fff" flood-opacity="0.15"/><feOffset result="offset-3" in="blur-1" dx="-1" dy="-1"/><feComposite result="comp-4" operator="arithmetic" in="SourceAlpha" in2="offset-3" k2="1" k3="-1"/><feComposite result="comp-5" operator="in" in="flood-2" in2="comp-4"/><feFlood result="flood-6" in="undefined" flood-color="#000" flood-opacity="0.7"/><feOffset result="offset-7" in="blur-1" dx="1" dy="1"/><feComposite result="comp-8" operator="arithmetic" in="SourceAlpha" in2="offset-7" k2="1" k3="-1"/><feComposite result="comp-9" operator="in" in="flood-6" in2="comp-8"/><feMerge result="merge-10"><feMergeNode in="SourceGraphic"/><feMergeNode in="comp-5"/><feMergeNode in="comp-9"/></feMerge></filter><filter id="inputDarkFilter" x0="-50%" y0="-50%" width="200%" height="200%"><feFlood result="flood-1" in="undefined" flood-color="#000" flood-opacity="0.2"/><feComposite result="comp-2" operator="in" in="flood-1" in2="SourceAlpha"/><feMerge result="merge-3"><feMergeNode in="SourceGraphic"/><feMergeNode in="comp-2"/></feMerge></filter><path d="M1.504 21L0 19.493 4.567 0h1.948l-.5 2.418s1.002-.502 3.006 0c2.006.503 3.008 2.01 6.517 2.01 3.508 0 4.463-.545 4.463-.545l-.823 9.892s-2.137 1.005-5.144.696c-3.007-.307-3.007-2.007-6.014-2.51-3.008-.502-4.512.503-4.512.503L1.504 21z" fill="#3f8d15" id="greenFlag"/><path d="M6.724 0C3.01 0 0 2.91 0 6.5c0 2.316 1.253 4.35 3.14 5.5H5.17v-1.256C3.364 10.126 2.07 8.46 2.07 6.5 2.07 4.015 4.152 2 6.723 2c1.14 0 2.184.396 2.993 1.053L8.31 4.13c-.45.344-.398.826.11 1.08L15 8.5 13.858.992c-.083-.547-.514-.714-.963-.37l-1.532 1.172A6.825 6.825 0 0 0 6.723 0z" fill="#fff" id="turnRight"/><path d="M3.637 1.794A6.825 6.825 0 0 1 8.277 0C11.99 0 15 2.91 15 6.5c0 2.316-1.253 4.35-3.14 5.5H9.83v-1.256c1.808-.618 3.103-2.285 3.103-4.244 0-2.485-2.083-4.5-4.654-4.5-1.14 0-2.184.396-2.993 1.053L6.69 4.13c.45.344.398.826-.11 1.08L0 8.5 1.142.992c.083-.547.514-.714.963-.37l1.532 1.172z" fill="#fff" id="turnLeft"/><path d="M0 0L4 4L0 8Z" fill="#111" id="addInput"/><path d="M4 0L4 8L0 4Z" fill="#111" id="delInput"/><g id="loopArrow"><path d="M8 0l2 -2l0 -3l3 0l-4 -5l-4 5l3 0l0 3l-8 0l0 2" fill="#000" opacity="0.3"/><path d="M8 0l2 -2l0 -3l3 0l-4 -5l-4 5l3 0l0 3l-8 0l0 2" fill="#fff" opacity="0.9" transform="translate(-1 -1)"/></g><style><![CDATA[.sb-label{font-family:Lucida Grande,Verdana,Arial,DejaVu Sans,sans-serif;font-weight:700;fill:#fff;font-size:10px;word-spacing:+1px}.sb-obsolete{fill:#d42828}.sb-motion{fill:#4a6cd4}.sb-looks{fill:#8a55d7}.sb-sound{fill:#bb42c3}.sb-pen{fill:#0e9a6c}.sb-events{fill:#c88330}.sb-control{fill:#e1a91a}.sb-sensing{fill:#2ca5e2}.sb-operators{fill:#5cb712}.sb-variables{fill:#ee7d16}.sb-list{fill:#cc5b22}.sb-custom{fill:#632d99}.sb-custom-arg{fill:#5947b1}.sb-extension{fill:#4b4a60}.sb-grey{fill:#969696}.sb-bevel{filter:url(#bevelFilter)}.sb-input{filter:url(#inputBevelFilter)}.sb-input-number,.sb-input-number-dropdown,.sb-input-string{fill:#fff}.sb-literal-dropdown,.sb-literal-number,.sb-literal-number-dropdown,.sb-literal-string{font-weight:400;font-size:9px;word-spacing:0}.sb-literal-number,.sb-literal-number-dropdown,.sb-literal-string{fill:#000}.sb-darker{filter:url(#inputDarkFilter)}.sb-outline{stroke:#fff;stroke-opacity:.2;stroke-width:2;fill:none}.sb-define-hat-cap{stroke:#632d99;stroke-width:1;fill:#8e2ec2}.sb-comment{fill:#ffffa5;stroke:#d0d1d2;stroke-width:1}.sb-comment-line{fill:#ffff80}.sb-comment-label{font-family:Helevetica,Arial,DejaVu Sans,sans-serif;font-weight:700;fill:#5c5d5f;word-spacing:0;font-size:12px}]]></style></defs><g><g transform="translate(0 0)"><g transform="translate(2 0)"><path d="M 0 12 L 0 12 A 80 80 0 0 1 80 10 L 122 10 L 125 13 L 125 35 L 122 38 L 27 38 L 24 41 L 16 41 L 13 38 L 3 38 L 0 35 Z" class="sb-events sb-bevel"/><text x="0" y="10" class="sb-label " transform="translate(6 18)">quand</text><use a0:href="#greenFlag" xmlns:a0="http://www.w3.org/1999/xlink" transform="translate(44 12)"/><text x="0" y="10" class="sb-label " transform="translate(68 18)">est</text><text x="0" y="10" class="sb-label " transform="translate(88 18)">cliqué</text></g><g transform="translate(2 38)"><path d="M 0 3 L 3 0 L 13 0 L 16 3 L 24 3 L 27 0 L 264 0 L 267 3 L 267 19 L 264 22 L 27 22 L 24 25 L 16 25 L 13 22 L 3 22 L 0 19 Z" class="sb-list sb-bevel"/><text x="0" y="10" class="sb-label " transform="translate(6 5)">supprimer</text><text x="0" y="10" class="sb-label " transform="translate(66 5)">l'élément</text><g transform="translate(117 4)"><path d="M 6.5 0 L 27.5 0 A 6.5 6.5 0 0 1 27.5 13 L 6.5 13 A 6.5 6.5 0 0 1 6.5 0 Z" class="sb-input sb-input-number-dropdown"/><text x="0" y="10" class="sb-label sb-literal-number-dropdown" transform="translate(5 0)">tout</text><polygon points="7 0 3.5 4 0 0" fill="#000" opacity="0.6" transform="translate(24 4)"/></g><text x="0" y="10" class="sb-label " transform="translate(155 5)">de</text><text x="0" y="10" class="sb-label " transform="translate(172 5)">la</text><text x="0" y="10" class="sb-label " transform="translate(185 5)">liste</text><g transform="translate(211 4)"><g width="50" height="14" class="sb-input sb-input-dropdown"><rect x="0" y="0" width="50" height="14" class="sb-list sb-darker"/></g><text x="0" y="10" class="sb-label sb-literal-dropdown" transform="translate(4 0)">boules</text><polygon points="7 0 3.5 4 0 0" fill="#000" opacity="0.6" transform="translate(40 5)"/></g></g><g transform="translate(2 60)"><path d="M 0 3 L 3 0 L 13 0 L 16 3 L 24 3 L 27 0 L 128 0 L 131 3 L 131 19 L 128 22 L 27 22 L 24 25 L 16 25 L 13 22 L 3 22 L 0 19 Z" class="sb-list sb-bevel"/><text x="0" y="10" class="sb-label " transform="translate(6 5)">ajouter</text><g transform="translate(47 4)"><rect x="0" y="0" width="14" height="14" class="sb-input sb-input-string"/><text x="0" y="10" class="sb-label sb-literal-string" transform="translate(4 0)">N</text></g><text x="0" y="10" class="sb-label " transform="translate(65 5)">à</text><g transform="translate(75 4)"><g width="50" height="14" class="sb-input sb-input-dropdown"><rect x="0" y="0" width="50" height="14" class="sb-list sb-darker"/></g><text x="0" y="10" class="sb-label sb-literal-dropdown" transform="translate(4 0)">boules</text><polygon points="7 0 3.5 4 0 0" fill="#000" opacity="0.6" transform="translate(40 5)"/></g></g><g transform="translate(2 82)"><path d="M 0 3 L 3 0 L 13 0 L 16 3 L 24 3 L 27 0 L 128 0 L 131 3 L 131 19 L 128 22 L 27 22 L 24 25 L 16 25 L 13 22 L 3 22 L 0 19 Z" class="sb-list sb-bevel"/><text x="0" y="10" class="sb-label " transform="translate(6 5)">ajouter</text><g transform="translate(47 4)"><rect x="0" y="0" width="14" height="14" class="sb-input sb-input-string"/><text x="0" y="10" class="sb-label sb-literal-string" transform="translate(4 0)">N</text></g><text x="0" y="10" class="sb-label " transform="translate(65 5)">à</text><g transform="translate(75 4)"><g width="50" height="14" class="sb-input sb-input-dropdown"><rect x="0" y="0" width="50" height="14" class="sb-list sb-darker"/></g><text x="0" y="10" class="sb-label sb-literal-dropdown" transform="translate(4 0)">boules</text><polygon points="7 0 3.5 4 0 0" fill="#000" opacity="0.6" transform="translate(40 5)"/></g></g></g><g transform="translate(0 117)"><g transform="translate(2 0)"><rect x="0" y="0" width="0" height="2" class="sb-comment-line" transform="translate(0 9)"/><path d="M 6 0 L 121 0 A 6 6 0 0 1 127 6 L 127 14 A 6 6 0 0 1 121 20 L 6 20 A 6 6 0 0 1 0 14 L 0 6 A 6 6 0 0 1 6 0 Z" class="sb-comment"/><text x="0" y="10" class="sb-label sb-comment-label" transform="translate(8 4)"> Idem pour 6 boules</text></g></g><g transform="translate(0 150)"><g transform="translate(2 0)"><path d="M 0 3 L 3 0 L 13 0 L 16 3 L 24 3 L 27 0 L 149 0 L 152 3 L 152 19 L 149 22 L 27 22 L 24 25 L 16 25 L 13 22 L 3 22 L 0 19 Z" class="sb-variables sb-bevel"/><text x="0" y="10" class="sb-label " transform="translate(6 5)">mettre</text><g transform="translate(45 4)"><g width="73" height="14" class="sb-input sb-input-dropdown"><rect x="0" y="0" width="73" height="14" class="sb-variables sb-darker"/></g><text x="0" y="10" class="sb-label sb-literal-dropdown" transform="translate(4 0)">bonstirages</text><polygon points="7 0 3.5 4 0 0" fill="#000" opacity="0.6" transform="translate(63 5)"/></g><text x="0" y="10" class="sb-label " transform="translate(122 5)">à</text><g transform="translate(132 4)"><rect x="0" y="0" width="14" height="14" class="sb-input sb-input-string"/><text x="0" y="10" class="sb-label sb-literal-string" transform="translate(4 0)">0</text></g></g><g transform="translate(2 22)"><path d="M 0 3 L 3 0 L 13 0 L 16 3 L 24 3 L 27 0 L 114 0 L 117 3 L 117 18 L 114 21 L 42 21 L 39 24 L 31 24 L 28 21 L 17 21 L 15 23 L 15 217 L 17 219 L 114 219 L 117 222 L 117 232 L 114 235 L 27 235 L 24 238 L 16 238 L 13 235 L 3 235 L 0 232" class="sb-control sb-bevel"/><text x="0" y="10" class="sb-label " transform="translate(6 4)">répéter</text><g transform="translate(49 3)"><path d="M 6.5 0 L 32.5 0 A 6.5 6.5 0 0 1 32.5 13 L 6.5 13 A 6.5 6.5 0 0 1 6.5 0 Z" class="sb-input sb-input-number"/><text x="0" y="10" class="sb-label sb-literal-number" transform="translate(5 0)">10000</text></g><text x="0" y="10" class="sb-label " transform="translate(92 4)">fois</text><use a1:href="#loopArrow" xmlns:a1="http://www.w3.org/1999/xlink" transform="translate(102 232)"/><g transform="translate(15 21)"><g transform="translate(0 0)"><path d="M 0 3 L 3 0 L 13 0 L 16 3 L 24 3 L 27 0 L 304 0 L 307 3 L 307 23 L 304 26 L 27 26 L 24 29 L 16 29 L 13 26 L 3 26 L 0 23 Z" class="sb-variables sb-bevel"/><text x="0" y="10" class="sb-label " transform="translate(6 7)">mettre</text><g transform="translate(45 6)"><g width="51" height="14" class="sb-input sb-input-dropdown"><rect x="0" y="0" width="51" height="14" class="sb-variables sb-darker"/></g><text x="0" y="10" class="sb-label sb-literal-dropdown" transform="translate(4 0)">boule1</text><polygon points="7 0 3.5 4 0 0" fill="#000" opacity="0.6" transform="translate(41 5)"/></g><text x="0" y="10" class="sb-label " transform="translate(100 7)">à</text><g transform="translate(110 3)"><path d="M 10 0 L 181 0 A 10 10 0 0 1 181 20 L 10 20 A 10 10 0 0 1 10 0 Z" class="sb-list sb-bevel"/><text x="0" y="10" class="sb-label " transform="translate(8 4)">élément</text><g transform="translate(54 3)"><path d="M 6.5 0 L 54.5 0 A 6.5 6.5 0 0 1 54.5 13 L 6.5 13 A 6.5 6.5 0 0 1 6.5 0 Z" class="sb-input sb-input-number-dropdown"/><text x="0" y="10" class="sb-label sb-literal-number-dropdown" transform="translate(5 0)">au hasard</text><polygon points="7 0 3.5 4 0 0" fill="#000" opacity="0.6" transform="translate(51 4)"/></g><text x="0" y="10" class="sb-label " transform="translate(119 4)">de</text><g transform="translate(136 3)"><g width="50" height="14" class="sb-input sb-input-dropdown"><rect x="0" y="0" width="50" height="14" class="sb-list sb-darker"/></g><text x="0" y="10" class="sb-label sb-literal-dropdown" transform="translate(4 0)">boules</text><polygon points="7 0 3.5 4 0 0" fill="#000" opacity="0.6" transform="translate(40 5)"/></g></g></g><g transform="translate(0 26)"><path d="M 0 3 L 3 0 L 13 0 L 16 3 L 24 3 L 27 0 L 304 0 L 307 3 L 307 23 L 304 26 L 27 26 L 24 29 L 16 29 L 13 26 L 3 26 L 0 23 Z" class="sb-variables sb-bevel"/><text x="0" y="10" class="sb-label " transform="translate(6 7)">mettre</text><g transform="translate(45 6)"><g width="51" height="14" class="sb-input sb-input-dropdown"><rect x="0" y="0" width="51" height="14" class="sb-variables sb-darker"/></g><text x="0" y="10" class="sb-label sb-literal-dropdown" transform="translate(4 0)">boule2</text><polygon points="7 0 3.5 4 0 0" fill="#000" opacity="0.6" transform="translate(41 5)"/></g><text x="0" y="10" class="sb-label " transform="translate(100 7)">à</text><g transform="translate(110 3)"><path d="M 10 0 L 181 0 A 10 10 0 0 1 181 20 L 10 20 A 10 10 0 0 1 10 0 Z" class="sb-list sb-bevel"/><text x="0" y="10" class="sb-label " transform="translate(8 4)">élément</text><g transform="translate(54 3)"><path d="M 6.5 0 L 54.5 0 A 6.5 6.5 0 0 1 54.5 13 L 6.5 13 A 6.5 6.5 0 0 1 6.5 0 Z" class="sb-input sb-input-number-dropdown"/><text x="0" y="10" class="sb-label sb-literal-number-dropdown" transform="translate(5 0)">au hasard</text><polygon points="7 0 3.5 4 0 0" fill="#000" opacity="0.6" transform="translate(51 4)"/></g><text x="0" y="10" class="sb-label " transform="translate(119 4)">de</text><g transform="translate(136 3)"><g width="50" height="14" class="sb-input sb-input-dropdown"><rect x="0" y="0" width="50" height="14" class="sb-list sb-darker"/></g><text x="0" y="10" class="sb-label sb-literal-dropdown" transform="translate(4 0)">boules</text><polygon points="7 0 3.5 4 0 0" fill="#000" opacity="0.6" transform="translate(40 5)"/></g></g></g><g transform="translate(0 52)"><path d="M 0 3 L 3 0 L 13 0 L 16 3 L 24 3 L 27 0 L 291 0 L 294 3 L 294 32 L 291 35 L 42 35 L 39 38 L 31 38 L 28 35 L 17 35 L 15 37 L 15 55 L 17 57 L 291 57 L 294 60 L 294 70 L 291 73 L 27 73 L 24 76 L 16 76 L 13 73 L 3 73 L 0 70" class="sb-control sb-bevel"/><text x="0" y="10" class="sb-label " transform="translate(6 11)">si</text><g transform="translate(30 2)"><path d="M 15 0 L 213 0 228 15 L 228 15 213 30 L 15 30 0 15 L 0 15 15 0 Z" class="sb-operators sb-bevel"/><g transform="translate(5 2)"><path d="M 12.5 0 L 87.5 0 100 12.5 L 100 12.5 87.5 25 L 12.5 25 0 12.5 L 0 12.5 12.5 0 Z" class="sb-operators sb-bevel"/><g transform="translate(9 2)"><path d="M 10 0 L 42 0 A 10 10 0 0 1 42 20 L 10 20 A 10 10 0 0 1 10 0 Z" class="sb-variables sb-bevel"/><text x="0" y="10" class="sb-label " transform="translate(8 4)">boule1</text></g><text x="0" y="10" class="sb-label " transform="translate(65 6)">=</text><g transform="translate(77 5)"><rect x="0" y="0" width="14" height="14" class="sb-input sb-input-string"/><text x="0" y="10" class="sb-label sb-literal-string" transform="translate(4 0)">R</text></g></g><text x="0" y="10" class="sb-label " transform="translate(109 8)">et</text><g transform="translate(123 2)"><path d="M 12.5 0 L 87.5 0 100 12.5 L 100 12.5 87.5 25 L 12.5 25 0 12.5 L 0 12.5 12.5 0 Z" class="sb-operators sb-bevel"/><g transform="translate(9 2)"><path d="M 10 0 L 42 0 A 10 10 0 0 1 42 20 L 10 20 A 10 10 0 0 1 10 0 Z" class="sb-variables sb-bevel"/><text x="0" y="10" class="sb-label " transform="translate(8 4)">boule2</text></g><text x="0" y="10" class="sb-label " transform="translate(65 6)">=</text><g transform="translate(77 5)"><rect x="0" y="0" width="14" height="14" class="sb-input sb-input-string"/><text x="0" y="10" class="sb-label sb-literal-string" transform="translate(4 0)">B</text></g></g></g><text x="0" y="10" class="sb-label " transform="translate(262 11)">alors</text><g transform="translate(15 35)"><g transform="translate(0 0)"><path d="M 0 3 L 3 0 L 13 0 L 16 3 L 24 3 L 27 0 L 152 0 L 155 3 L 155 19 L 152 22 L 27 22 L 24 25 L 16 25 L 13 22 L 3 22 L 0 19 Z" class="sb-variables sb-bevel"/><text x="0" y="10" class="sb-label " transform="translate(6 5)">ajouter</text><text x="0" y="10" class="sb-label " transform="translate(47 5)">à</text><g transform="translate(57 4)"><g width="73" height="14" class="sb-input sb-input-dropdown"><rect x="0" y="0" width="73" height="14" class="sb-variables sb-darker"/></g><text x="0" y="10" class="sb-label sb-literal-dropdown" transform="translate(4 0)">bonstirages</text><polygon points="7 0 3.5 4 0 0" fill="#000" opacity="0.6" transform="translate(63 5)"/></g><g transform="translate(134 4)"><path d="M 6.5 0 L 8.5 0 A 6.5 6.5 0 0 1 8.5 13 L 6.5 13 A 6.5 6.5 0 0 1 6.5 0 Z" class="sb-input sb-input-number"/><text x="0" y="10" class="sb-label sb-literal-number" transform="translate(5 0)">1</text></g></g></g></g><g transform="translate(0 125)"><path d="M 0 3 L 3 0 L 13 0 L 16 3 L 24 3 L 27 0 L 291 0 L 294 3 L 294 32 L 291 35 L 42 35 L 39 38 L 31 38 L 28 35 L 17 35 L 15 37 L 15 55 L 17 57 L 291 57 L 294 60 L 294 70 L 291 73 L 27 73 L 24 76 L 16 76 L 13 73 L 3 73 L 0 70" class="sb-control sb-bevel"/><text x="0" y="10" class="sb-label " transform="translate(6 11)">si</text><g transform="translate(30 2)"><path d="M 15 0 L 213 0 228 15 L 228 15 213 30 L 15 30 0 15 L 0 15 15 0 Z" class="sb-operators sb-bevel"/><g transform="translate(5 2)"><path d="M 12.5 0 L 87.5 0 100 12.5 L 100 12.5 87.5 25 L 12.5 25 0 12.5 L 0 12.5 12.5 0 Z" class="sb-operators sb-bevel"/><g transform="translate(9 2)"><path d="M 10 0 L 42 0 A 10 10 0 0 1 42 20 L 10 20 A 10 10 0 0 1 10 0 Z" class="sb-variables sb-bevel"/><text x="0" y="10" class="sb-label " transform="translate(8 4)">boule1</text></g><text x="0" y="10" class="sb-label " transform="translate(65 6)">=</text><g transform="translate(77 5)"><rect x="0" y="0" width="14" height="14" class="sb-input sb-input-string"/><text x="0" y="10" class="sb-label sb-literal-string" transform="translate(4 0)">B</text></g></g><text x="0" y="10" class="sb-label " transform="translate(109 8)">et</text><g transform="translate(123 2)"><path d="M 12.5 0 L 87.5 0 100 12.5 L 100 12.5 87.5 25 L 12.5 25 0 12.5 L 0 12.5 12.5 0 Z" class="sb-operators sb-bevel"/><g transform="translate(9 2)"><path d="M 10 0 L 42 0 A 10 10 0 0 1 42 20 L 10 20 A 10 10 0 0 1 10 0 Z" class="sb-variables sb-bevel"/><text x="0" y="10" class="sb-label " transform="translate(8 4)">boule2</text></g><text x="0" y="10" class="sb-label " transform="translate(65 6)">=</text><g transform="translate(77 5)"><rect x="0" y="0" width="14" height="14" class="sb-input sb-input-string"/><text x="0" y="10" class="sb-label sb-literal-string" transform="translate(4 0)">R</text></g></g></g><text x="0" y="10" class="sb-label " transform="translate(262 11)">alors</text><g transform="translate(15 35)"><g transform="translate(0 0)"><path d="M 0 3 L 3 0 L 13 0 L 16 3 L 24 3 L 27 0 L 152 0 L 155 3 L 155 19 L 152 22 L 27 22 L 24 25 L 16 25 L 13 22 L 3 22 L 0 19 Z" class="sb-variables sb-bevel"/><text x="0" y="10" class="sb-label " transform="translate(6 5)">ajouter</text><text x="0" y="10" class="sb-label " transform="translate(47 5)">à</text><g transform="translate(57 4)"><g width="73" height="14" class="sb-input sb-input-dropdown"><rect x="0" y="0" width="73" height="14" class="sb-variables sb-darker"/></g><text x="0" y="10" class="sb-label sb-literal-dropdown" transform="translate(4 0)">bonstirages</text><polygon points="7 0 3.5 4 0 0" fill="#000" opacity="0.6" transform="translate(63 5)"/></g><g transform="translate(134 4)"><path d="M 6.5 0 L 8.5 0 A 6.5 6.5 0 0 1 8.5 13 L 6.5 13 A 6.5 6.5 0 0 1 6.5 0 Z" class="sb-input sb-input-number"/><text x="0" y="10" class="sb-label sb-literal-number" transform="translate(5 0)">1</text></g></g></g></g></g></g><g transform="translate(2 257)"><path d="M 0 3 L 3 0 L 13 0 L 16 3 L 24 3 L 27 0 L 113 0 L 116 3 L 116 23 L 113 26 L 27 26 L 24 29 L 16 29 L 13 26 L 3 26 L 0 23 Z" class="sb-looks sb-bevel"/><text x="0" y="10" class="sb-label " transform="translate(6 7)">dire</text><g transform="translate(31 3)"><path d="M 10 0 L 69 0 A 10 10 0 0 1 69 20 L 10 20 A 10 10 0 0 1 10 0 Z" class="sb-variables sb-bevel"/><text x="0" y="10" class="sb-label " transform="translate(8 4)">bonstirages</text></g></g></g></g></svg>