<svg xmlns="http://www.w3.org/2000/svg" version="1.1" width="190" height="808"><defs><filter id="bevelFilter" x0="-50%" y0="-50%" width="200%" height="200%"><feGaussianBlur result="blur-1" in="SourceAlpha" stdDeviation="1 1"/><feFlood result="flood-2" in="undefined" flood-color="#fff" flood-opacity="0.15"/><feOffset result="offset-3" in="blur-1" dx="1" dy="1"/><feComposite result="comp-4" operator="arithmetic" in="SourceAlpha" in2="offset-3" k2="1" k3="-1"/><feComposite result="comp-5" operator="in" in="flood-2" in2="comp-4"/><feFlood result="flood-6" in="undefined" flood-color="#000" flood-opacity="0.7"/><feOffset result="offset-7" in="blur-1" dx="-1" dy="-1"/><feComposite result="comp-8" operator="arithmetic" in="SourceAlpha" in2="offset-7" k2="1" k3="-1"/><feComposite result="comp-9" operator="in" in="flood-6" in2="comp-8"/><feMerge result="merge-10"><feMergeNode in="SourceGraphic"/><feMergeNode in="comp-5"/><feMergeNode in="comp-9"/></feMerge></filter><filter id="inputBevelFilter" x0="-50%" y0="-50%" width="200%" height="200%"><feGaussianBlur result="blur-1" in="SourceAlpha" stdDeviation="1 1"/><feFlood result="flood-2" in="undefined" flood-color="#fff" flood-opacity="0.15"/><feOffset result="offset-3" in="blur-1" dx="-1" dy="-1"/><feComposite result="comp-4" operator="arithmetic" in="SourceAlpha" in2="offset-3" k2="1" k3="-1"/><feComposite result="comp-5" operator="in" in="flood-2" in2="comp-4"/><feFlood result="flood-6" in="undefined" flood-color="#000" flood-opacity="0.7"/><feOffset result="offset-7" in="blur-1" dx="1" dy="1"/><feComposite result="comp-8" operator="arithmetic" in="SourceAlpha" in2="offset-7" k2="1" k3="-1"/><feComposite result="comp-9" operator="in" in="flood-6" in2="comp-8"/><feMerge result="merge-10"><feMergeNode in="SourceGraphic"/><feMergeNode in="comp-5"/><feMergeNode in="comp-9"/></feMerge></filter><filter id="inputDarkFilter" x0="-50%" y0="-50%" width="200%" height="200%"><feFlood result="flood-1" in="undefined" flood-color="#000" flood-opacity="0.2"/><feComposite result="comp-2" operator="in" in="flood-1" in2="SourceAlpha"/><feMerge result="merge-3"><feMergeNode in="SourceGraphic"/><feMergeNode in="comp-2"/></feMerge></filter><path d="M1.504 21L0 19.493 4.567 0h1.948l-.5 2.418s1.002-.502 3.006 0c2.006.503 3.008 2.01 6.517 2.01 3.508 0 4.463-.545 4.463-.545l-.823 9.892s-2.137 1.005-5.144.696c-3.007-.307-3.007-2.007-6.014-2.51-3.008-.502-4.512.503-4.512.503L1.504 21z" fill="#3f8d15" id="greenFlag"/><path d="M6.724 0C3.01 0 0 2.91 0 6.5c0 2.316 1.253 4.35 3.14 5.5H5.17v-1.256C3.364 10.126 2.07 8.46 2.07 6.5 2.07 4.015 4.152 2 6.723 2c1.14 0 2.184.396 2.993 1.053L8.31 4.13c-.45.344-.398.826.11 1.08L15 8.5 13.858.992c-.083-.547-.514-.714-.963-.37l-1.532 1.172A6.825 6.825 0 0 0 6.723 0z" fill="#fff" id="turnRight"/><path d="M3.637 1.794A6.825 6.825 0 0 1 8.277 0C11.99 0 15 2.91 15 6.5c0 2.316-1.253 4.35-3.14 5.5H9.83v-1.256c1.808-.618 3.103-2.285 3.103-4.244 0-2.485-2.083-4.5-4.654-4.5-1.14 0-2.184.396-2.993 1.053L6.69 4.13c.45.344.398.826-.11 1.08L0 8.5 1.142.992c.083-.547.514-.714.963-.37l1.532 1.172z" fill="#fff" id="turnLeft"/><path d="M0 0L4 4L0 8Z" fill="#111" id="addInput"/><path d="M4 0L4 8L0 4Z" fill="#111" id="delInput"/><g id="loopArrow"><path d="M8 0l2 -2l0 -3l3 0l-4 -5l-4 5l3 0l0 3l-8 0l0 2" fill="#000" opacity="0.3"/><path d="M8 0l2 -2l0 -3l3 0l-4 -5l-4 5l3 0l0 3l-8 0l0 2" fill="#fff" opacity="0.9" transform="translate(-1 -1)"/></g><style><![CDATA[.sb-label{font-family:Lucida Grande,Verdana,Arial,DejaVu Sans,sans-serif;font-weight:700;fill:#fff;font-size:10px;word-spacing:+1px}.sb-obsolete{fill:#d42828}.sb-motion{fill:#4a6cd4}.sb-looks{fill:#8a55d7}.sb-sound{fill:#bb42c3}.sb-pen{fill:#0e9a6c}.sb-events{fill:#c88330}.sb-control{fill:#e1a91a}.sb-sensing{fill:#2ca5e2}.sb-operators{fill:#5cb712}.sb-variables{fill:#ee7d16}.sb-list{fill:#cc5b22}.sb-custom{fill:#632d99}.sb-custom-arg{fill:#5947b1}.sb-extension{fill:#4b4a60}.sb-grey{fill:#969696}.sb-bevel{filter:url(#bevelFilter)}.sb-input{filter:url(#inputBevelFilter)}.sb-input-number,.sb-input-number-dropdown,.sb-input-string{fill:#fff}.sb-literal-dropdown,.sb-literal-number,.sb-literal-number-dropdown,.sb-literal-string{font-weight:400;font-size:9px;word-spacing:0}.sb-literal-number,.sb-literal-number-dropdown,.sb-literal-string{fill:#000}.sb-darker{filter:url(#inputDarkFilter)}.sb-outline{stroke:#fff;stroke-opacity:.2;stroke-width:2;fill:none}.sb-define-hat-cap{stroke:#632d99;stroke-width:1;fill:#8e2ec2}.sb-comment{fill:#ffffa5;stroke:#d0d1d2;stroke-width:1}.sb-comment-line{fill:#ffff80}.sb-comment-label{font-family:Helevetica,Arial,DejaVu Sans,sans-serif;font-weight:700;fill:#5c5d5f;word-spacing:0;font-size:12px}]]></style></defs><g><g transform="translate(0 0)"><g transform="translate(2 0)"><rect x="0" y="0" width="0" height="2" class="sb-comment-line" transform="translate(0 9)"/><path d="M 6 0 L 80 0 A 6 6 0 0 1 86 6 L 86 14 A 6 6 0 0 1 80 20 L 6 20 A 6 6 0 0 1 0 14 L 0 6 A 6 6 0 0 1 6 0 Z" class="sb-comment"/><text x="0" y="10" class="sb-label sb-comment-label" transform="translate(8 4)"> Les cercles</text></g></g><g transform="translate(0 33)"><g transform="translate(2 0)"><path d="M 0 12 L 0 12 A 80 80 0 0 1 80 10 L 122 10 L 125 13 L 125 35 L 122 38 L 27 38 L 24 41 L 16 41 L 13 38 L 3 38 L 0 35 Z" class="sb-events sb-bevel"/><text x="0" y="10" class="sb-label " transform="translate(6 18)">quand</text><use a0:href="#greenFlag" xmlns:a0="http://www.w3.org/1999/xlink" transform="translate(44 12)"/><text x="0" y="10" class="sb-label " transform="translate(68 18)">est</text><text x="0" y="10" class="sb-label " transform="translate(88 18)">cliqué</text></g><g transform="translate(2 38)"><path d="M 0 3 L 3 0 L 13 0 L 16 3 L 24 3 L 27 0 L 132 0 L 135 3 L 135 19 L 132 22 L 27 22 L 24 25 L 16 25 L 13 22 L 3 22 L 0 19 Z" class="sb-motion sb-bevel"/><text x="0" y="10" class="sb-label " transform="translate(6 5)">aller</text><text x="0" y="10" class="sb-label " transform="translate(33 5)">à</text><text x="0" y="10" class="sb-label " transform="translate(43 5)">x:</text><g transform="translate(55 4)"><path d="M 6.5 0 L 25.5 0 A 6.5 6.5 0 0 1 25.5 13 L 6.5 13 A 6.5 6.5 0 0 1 6.5 0 Z" class="sb-input sb-input-number"/><text x="0" y="10" class="sb-label sb-literal-number" transform="translate(5 0)">-150</text></g><text x="0" y="10" class="sb-label " transform="translate(91 5)">y:</text><g transform="translate(103 4)"><path d="M 6.5 0 L 19.5 0 A 6.5 6.5 0 0 1 19.5 13 L 6.5 13 A 6.5 6.5 0 0 1 6.5 0 Z" class="sb-input sb-input-number"/><text x="0" y="10" class="sb-label sb-literal-number" transform="translate(5 0)">-50</text></g></g><g transform="translate(2 60)"><path d="M 0 3 L 3 0 L 13 0 L 16 3 L 24 3 L 27 0 L 94 0 L 97 3 L 97 19 L 94 22 L 27 22 L 24 25 L 16 25 L 13 22 L 3 22 L 0 19 Z" class="sb-motion sb-bevel"/><text x="0" y="10" class="sb-label " transform="translate(6 5)">s'orienter</text><text x="0" y="10" class="sb-label " transform="translate(60 5)">à</text><g transform="translate(70 4)"><path d="M 6.5 0 L 14.5 0 A 6.5 6.5 0 0 1 14.5 13 L 6.5 13 A 6.5 6.5 0 0 1 6.5 0 Z" class="sb-input sb-input-number"/><text x="0" y="10" class="sb-label sb-literal-number" transform="translate(5 0)">50</text></g></g><g transform="translate(2 82)"><path d="M 0 3 L 3 0 L 13 0 L 16 3 L 24 3 L 27 0 L 70 0 L 73 3 L 73 19 L 70 22 L 27 22 L 24 25 L 16 25 L 13 22 L 3 22 L 0 19 Z" class="sb-pen sb-bevel"/><text x="0" y="10" class="sb-label " transform="translate(6 5)">effacer</text><text x="0" y="10" class="sb-label " transform="translate(46 5)">tout</text></g><g transform="translate(2 104)"><path d="M 0 3 L 3 0 L 13 0 L 16 3 L 24 3 L 27 0 L 102 0 L 105 3 L 105 18 L 102 21 L 42 21 L 39 24 L 31 24 L 28 21 L 17 21 L 15 23 L 15 85 L 17 87 L 102 87 L 105 90 L 105 100 L 102 103 L 27 103 L 24 106 L 16 106 L 13 103 L 3 103 L 0 100" class="sb-control sb-bevel"/><text x="0" y="10" class="sb-label " transform="translate(6 4)">répéter</text><g transform="translate(49 3)"><path d="M 6.5 0 L 20.5 0 A 6.5 6.5 0 0 1 20.5 13 L 6.5 13 A 6.5 6.5 0 0 1 6.5 0 Z" class="sb-input sb-input-number"/><text x="0" y="10" class="sb-label sb-literal-number" transform="translate(5 0)">400</text></g><text x="0" y="10" class="sb-label " transform="translate(80 4)">fois</text><use a1:href="#loopArrow" xmlns:a1="http://www.w3.org/1999/xlink" transform="translate(90 100)"/><g transform="translate(15 21)"><g transform="translate(0 0)"><path d="M 0 3 L 3 0 L 13 0 L 16 3 L 24 3 L 27 0 L 39 0 L 42 3 L 42 19 L 39 22 L 27 22 L 24 25 L 16 25 L 13 22 L 3 22 L 0 19 Z" class="sb-custom sb-bevel"/><text x="0" y="10" class="sb-label " transform="translate(6 5)">cercle</text></g><g transform="translate(0 22)"><path d="M 0 3 L 3 0 L 13 0 L 16 3 L 24 3 L 27 0 L 86 0 L 89 3 L 89 19 L 86 22 L 27 22 L 24 25 L 16 25 L 13 22 L 3 22 L 0 19 Z" class="sb-motion sb-bevel"/><text x="0" y="10" class="sb-label " transform="translate(6 5)">avancer</text><text x="0" y="10" class="sb-label " transform="translate(51 5)">de</text><g transform="translate(68 4)"><path d="M 6.5 0 L 8.5 0 A 6.5 6.5 0 0 1 8.5 13 L 6.5 13 A 6.5 6.5 0 0 1 6.5 0 Z" class="sb-input sb-input-number"/><text x="0" y="10" class="sb-label sb-literal-number" transform="translate(5 0)">4</text></g></g><g transform="translate(0 44)"><path d="M 0 3 L 3 0 L 13 0 L 16 3 L 24 3 L 27 0 L 168 0 L 171 3 L 171 19 L 168 22 L 27 22 L 24 25 L 16 25 L 13 22 L 3 22 L 0 19 Z" class="sb-motion sb-bevel"/><text x="0" y="10" class="sb-label " transform="translate(6 5)">rebondir</text><text x="0" y="10" class="sb-label " transform="translate(56 5)">si</text><text x="0" y="10" class="sb-label " transform="translate(69 5)">le</text><text x="0" y="10" class="sb-label " transform="translate(82 5)">bord</text><text x="0" y="10" class="sb-label " transform="translate(111 5)">est</text><text x="0" y="10" class="sb-label " transform="translate(131 5)">atteint</text></g></g></g></g><g transform="translate(0 253)"><g transform="translate(2 0)"><g transform="translate(0 -2)"><path d="M 0 15 Q 49 -4 97 15 L 97 49 L 94 52 L 27 52 L 24 55 L 16 55 L 13 52 L 3 52 L 0 49 M -1 13 Q 49 -7 98 13 Q 99 15 97 16 Q 49 -3 0 16 Q -2 15 -1 13 Z" class="sb-custom sb-bevel"/><path d="M -1 13 Q 49 -7 98 13 Q 99 15 97 16 Q 49 -3 0 16 Q -2 15 -1 13 Z" class="sb-define-hat-cap"/></g><text x="0" y="10" class="sb-label " transform="translate(8 26)">définir</text><g transform="translate(47 18)"><path d="M 0 3 L 3 0 L 13 0 L 16 3 L 24 3 L 27 0 L 39 0 L 42 3 L 42 19 L 39 22 L 27 22 L 24 25 L 16 25 L 13 22 L 3 22 L 0 19 Z" class="sb-outline"/><text x="0" y="10" class="sb-label " transform="translate(6 5)">cercle</text></g></g><g transform="translate(2 50)"><path d="M 0 3 L 3 0 L 13 0 L 16 3 L 24 3 L 27 0 L 151 0 L 154 3 L 154 19 L 151 22 L 27 22 L 24 25 L 16 25 L 13 22 L 3 22 L 0 19 Z" class="sb-pen sb-bevel"/><text x="0" y="10" class="sb-label " transform="translate(6 5)">stylo</text><text x="0" y="10" class="sb-label " transform="translate(35 5)">en</text><text x="0" y="10" class="sb-label " transform="translate(52 5)">position</text><text x="0" y="10" class="sb-label " transform="translate(98 5)">d'écriture</text></g><g transform="translate(2 72)"><path d="M 0 3 L 3 0 L 13 0 L 16 3 L 24 3 L 27 0 L 96 0 L 99 3 L 99 18 L 96 21 L 42 21 L 39 24 L 31 24 L 28 21 L 17 21 L 15 23 L 15 63 L 17 65 L 96 65 L 99 68 L 99 78 L 96 81 L 27 81 L 24 84 L 16 84 L 13 81 L 3 81 L 0 78" class="sb-control sb-bevel"/><text x="0" y="10" class="sb-label " transform="translate(6 4)">répéter</text><g transform="translate(49 3)"><path d="M 6.5 0 L 14.5 0 A 6.5 6.5 0 0 1 14.5 13 L 6.5 13 A 6.5 6.5 0 0 1 6.5 0 Z" class="sb-input sb-input-number"/><text x="0" y="10" class="sb-label sb-literal-number" transform="translate(5 0)">30</text></g><text x="0" y="10" class="sb-label " transform="translate(74 4)">fois</text><use a2:href="#loopArrow" xmlns:a2="http://www.w3.org/1999/xlink" transform="translate(84 78)"/><g transform="translate(15 21)"><g transform="translate(0 0)"><path d="M 0 3 L 3 0 L 13 0 L 16 3 L 24 3 L 27 0 L 92 0 L 95 3 L 95 19 L 92 22 L 27 22 L 24 25 L 16 25 L 13 22 L 3 22 L 0 19 Z" class="sb-motion sb-bevel"/><text x="0" y="10" class="sb-label " transform="translate(6 5)">avancer</text><text x="0" y="10" class="sb-label " transform="translate(51 5)">de</text><g transform="translate(68 4)"><path d="M 6.5 0 L 14.5 0 A 6.5 6.5 0 0 1 14.5 13 L 6.5 13 A 6.5 6.5 0 0 1 6.5 0 Z" class="sb-input sb-input-number"/><text x="0" y="10" class="sb-label sb-literal-number" transform="translate(5 0)">15</text></g></g><g transform="translate(0 22)"><path d="M 0 3 L 3 0 L 13 0 L 16 3 L 24 3 L 27 0 L 151 0 L 154 3 L 154 19 L 151 22 L 27 22 L 24 25 L 16 25 L 13 22 L 3 22 L 0 19 Z" class="sb-motion sb-bevel"/><text x="0" y="10" class="sb-label " transform="translate(6 5)">tourner</text><use a3:href="#turnLeft" xmlns:a3="http://www.w3.org/1999/xlink" transform="translate(50 6)"/><text x="0" y="10" class="sb-label " transform="translate(69 5)">de</text><g transform="translate(86 4)"><path d="M 6.5 0 L 14.5 0 A 6.5 6.5 0 0 1 14.5 13 L 6.5 13 A 6.5 6.5 0 0 1 6.5 0 Z" class="sb-input sb-input-number"/><text x="0" y="10" class="sb-label sb-literal-number" transform="translate(5 0)">12</text></g><text x="0" y="10" class="sb-label " transform="translate(111 5)">degrés</text></g></g></g><g transform="translate(2 153)"><path d="M 0 3 L 3 0 L 13 0 L 16 3 L 24 3 L 27 0 L 88 0 L 91 3 L 91 19 L 88 22 L 27 22 L 24 25 L 16 25 L 13 22 L 3 22 L 0 19 Z" class="sb-pen sb-bevel"/><text x="0" y="10" class="sb-label " transform="translate(6 5)">relever</text><text x="0" y="10" class="sb-label " transform="translate(47 5)">le</text><text x="0" y="10" class="sb-label " transform="translate(60 5)">stylo</text></g></g><g transform="translate(0 441)"><g transform="translate(2 0)"><rect x="0" y="0" width="0" height="2" class="sb-comment-line" transform="translate(0 9)"/><path d="M 6 0 L 77 0 A 6 6 0 0 1 83 6 L 83 14 A 6 6 0 0 1 77 20 L 6 20 A 6 6 0 0 1 0 14 L 0 6 A 6 6 0 0 1 6 0 Z" class="sb-comment"/><text x="0" y="10" class="sb-label sb-comment-label" transform="translate(8 4)"> Les droites</text></g></g><g transform="translate(0 474)"><g transform="translate(2 0)"><path d="M 0 12 L 0 12 A 80 80 0 0 1 80 10 L 122 10 L 125 13 L 125 35 L 122 38 L 27 38 L 24 41 L 16 41 L 13 38 L 3 38 L 0 35 Z" class="sb-events sb-bevel"/><text x="0" y="10" class="sb-label " transform="translate(6 18)">quand</text><use a4:href="#greenFlag" xmlns:a4="http://www.w3.org/1999/xlink" transform="translate(44 12)"/><text x="0" y="10" class="sb-label " transform="translate(68 18)">est</text><text x="0" y="10" class="sb-label " transform="translate(88 18)">cliqué</text></g><g transform="translate(2 38)"><path d="M 0 3 L 3 0 L 13 0 L 16 3 L 24 3 L 27 0 L 70 0 L 73 3 L 73 19 L 70 22 L 27 22 L 24 25 L 16 25 L 13 22 L 3 22 L 0 19 Z" class="sb-pen sb-bevel"/><text x="0" y="10" class="sb-label " transform="translate(6 5)">effacer</text><text x="0" y="10" class="sb-label " transform="translate(46 5)">tout</text></g><g transform="translate(2 60)"><path d="M 0 3 L 3 0 L 13 0 L 16 3 L 24 3 L 27 0 L 115 0 L 118 3 L 118 19 L 115 22 L 27 22 L 24 25 L 16 25 L 13 22 L 3 22 L 0 19 Z" class="sb-variables sb-bevel"/><text x="0" y="10" class="sb-label " transform="translate(6 5)">mettre</text><g transform="translate(45 4)"><g width="24" height="14" class="sb-input sb-input-dropdown"><rect x="0" y="0" width="24" height="14" class="sb-variables sb-darker"/></g><text x="0" y="10" class="sb-label sb-literal-dropdown" transform="translate(4 0)">y</text><polygon points="7 0 3.5 4 0 0" fill="#000" opacity="0.6" transform="translate(14 5)"/></g><text x="0" y="10" class="sb-label " transform="translate(73 5)">à</text><g transform="translate(83 4)"><rect x="0" y="0" width="29" height="14" class="sb-input sb-input-string"/><text x="0" y="10" class="sb-label sb-literal-string" transform="translate(4 0)">-150</text></g></g><g transform="translate(2 82)"><path d="M 0 3 L 3 0 L 13 0 L 16 3 L 24 3 L 27 0 L 96 0 L 99 3 L 99 18 L 96 21 L 42 21 L 39 24 L 31 24 L 28 21 L 17 21 L 15 23 L 15 67 L 17 69 L 96 69 L 99 72 L 99 82 L 96 85 L 27 85 L 24 88 L 16 88 L 13 85 L 3 85 L 0 82" class="sb-control sb-bevel"/><text x="0" y="10" class="sb-label " transform="translate(6 4)">répéter</text><g transform="translate(49 3)"><path d="M 6.5 0 L 14.5 0 A 6.5 6.5 0 0 1 14.5 13 L 6.5 13 A 6.5 6.5 0 0 1 6.5 0 Z" class="sb-input sb-input-number"/><text x="0" y="10" class="sb-label sb-literal-number" transform="translate(5 0)">75</text></g><text x="0" y="10" class="sb-label " transform="translate(74 4)">fois</text><use a5:href="#loopArrow" xmlns:a5="http://www.w3.org/1999/xlink" transform="translate(84 82)"/><g transform="translate(15 21)"><g transform="translate(0 0)"><path d="M 0 3 L 3 0 L 13 0 L 16 3 L 24 3 L 27 0 L 66 0 L 69 3 L 69 23 L 66 26 L 27 26 L 24 29 L 16 29 L 13 26 L 3 26 L 0 23 Z" class="sb-custom sb-bevel"/><text x="0" y="10" class="sb-label " transform="translate(6 7)">droite</text><g transform="translate(41 3)"><path d="M 10 0 L 12 0 A 10 10 0 0 1 12 20 L 10 20 A 10 10 0 0 1 10 0 Z" class="sb-variables sb-bevel"/><text x="0" y="10" class="sb-label " transform="translate(8 4)">y</text></g></g><g transform="translate(0 26)"><path d="M 0 3 L 3 0 L 13 0 L 16 3 L 24 3 L 27 0 L 103 0 L 106 3 L 106 19 L 103 22 L 27 22 L 24 25 L 16 25 L 13 22 L 3 22 L 0 19 Z" class="sb-variables sb-bevel"/><text x="0" y="10" class="sb-label " transform="translate(6 5)">ajouter</text><text x="0" y="10" class="sb-label " transform="translate(47 5)">à</text><g transform="translate(57 4)"><g width="24" height="14" class="sb-input sb-input-dropdown"><rect x="0" y="0" width="24" height="14" class="sb-variables sb-darker"/></g><text x="0" y="10" class="sb-label sb-literal-dropdown" transform="translate(4 0)">y</text><polygon points="7 0 3.5 4 0 0" fill="#000" opacity="0.6" transform="translate(14 5)"/></g><g transform="translate(85 4)"><path d="M 6.5 0 L 8.5 0 A 6.5 6.5 0 0 1 8.5 13 L 6.5 13 A 6.5 6.5 0 0 1 6.5 0 Z" class="sb-input sb-input-number"/><text x="0" y="10" class="sb-label sb-literal-number" transform="translate(5 0)">4</text></g></g></g></g></g><g transform="translate(0 654)"><g transform="translate(2 0)"><g transform="translate(0 7)"><path d="M 0 15 Q 70 -13 139 15 L 139 49 L 136 52 L 27 52 L 24 55 L 16 55 L 13 52 L 3 52 L 0 49 M -1 13 Q 70 -15 140 13 Q 141 15 139 16 Q 70 -12 0 16 Q -2 15 -1 13 Z" class="sb-custom sb-bevel"/><path d="M -1 13 Q 70 -15 140 13 Q 141 15 139 16 Q 70 -12 0 16 Q -2 15 -1 13 Z" class="sb-define-hat-cap"/></g><text x="0" y="10" class="sb-label " transform="translate(8 33)">définir</text><g transform="translate(47 23)"><path d="M 0 3 L 3 0 L 13 0 L 16 3 L 24 3 L 27 0 L 81 0 L 84 3 L 84 23 L 81 26 L 27 26 L 24 29 L 16 29 L 13 26 L 3 26 L 0 23 Z" class="sb-outline"/><text x="0" y="10" class="sb-label " transform="translate(6 7)">droite</text><g transform="translate(41 3)"><path d="M 10 0 L 27 0 A 10 10 0 0 1 27 20 L 10 20 A 10 10 0 0 1 10 0 Z" class="sb-custom-arg sb-bevel"/><text x="0" y="10" class="sb-label " transform="translate(8 4)">valy</text></g></g></g><g transform="translate(2 59)"><path d="M 0 3 L 3 0 L 13 0 L 16 3 L 24 3 L 27 0 L 88 0 L 91 3 L 91 19 L 88 22 L 27 22 L 24 25 L 16 25 L 13 22 L 3 22 L 0 19 Z" class="sb-pen sb-bevel"/><text x="0" y="10" class="sb-label " transform="translate(6 5)">relever</text><text x="0" y="10" class="sb-label " transform="translate(47 5)">le</text><text x="0" y="10" class="sb-label " transform="translate(60 5)">stylo</text></g><g transform="translate(2 81)"><path d="M 0 3 L 3 0 L 13 0 L 16 3 L 24 3 L 27 0 L 121 0 L 124 3 L 124 19 L 121 22 L 27 22 L 24 25 L 16 25 L 13 22 L 3 22 L 0 19 Z" class="sb-motion sb-bevel"/><text x="0" y="10" class="sb-label " transform="translate(6 5)">aller</text><text x="0" y="10" class="sb-label " transform="translate(33 5)">à</text><text x="0" y="10" class="sb-label " transform="translate(43 5)">x:</text><g transform="translate(55 4)"><path d="M 6.5 0 L 25.5 0 A 6.5 6.5 0 0 1 25.5 13 L 6.5 13 A 6.5 6.5 0 0 1 6.5 0 Z" class="sb-input sb-input-number"/><text x="0" y="10" class="sb-label sb-literal-number" transform="translate(5 0)">-200</text></g><text x="0" y="10" class="sb-label " transform="translate(91 5)">y:</text><g transform="translate(103 4)"><path d="M 6.5 0 L 8.5 0 A 6.5 6.5 0 0 1 8.5 13 L 6.5 13 A 6.5 6.5 0 0 1 6.5 0 Z" class="sb-input sb-input-number"/><text x="0" y="10" class="sb-label sb-literal-number" transform="translate(5 0)">0</text></g></g><g transform="translate(2 103)"><path d="M 0 3 L 3 0 L 13 0 L 16 3 L 24 3 L 27 0 L 151 0 L 154 3 L 154 19 L 151 22 L 27 22 L 24 25 L 16 25 L 13 22 L 3 22 L 0 19 Z" class="sb-pen sb-bevel"/><text x="0" y="10" class="sb-label " transform="translate(6 5)">stylo</text><text x="0" y="10" class="sb-label " transform="translate(35 5)">en</text><text x="0" y="10" class="sb-label " transform="translate(52 5)">position</text><text x="0" y="10" class="sb-label " transform="translate(98 5)">d'écriture</text></g><g transform="translate(2 125)"><path d="M 0 3 L 3 0 L 13 0 L 16 3 L 24 3 L 27 0 L 143 0 L 146 3 L 146 23 L 143 26 L 27 26 L 24 29 L 16 29 L 13 26 L 3 26 L 0 23 Z" class="sb-motion sb-bevel"/><text x="0" y="10" class="sb-label " transform="translate(6 7)">aller</text><text x="0" y="10" class="sb-label " transform="translate(33 7)">à</text><text x="0" y="10" class="sb-label " transform="translate(43 7)">x:</text><g transform="translate(55 6)"><path d="M 6.5 0 L 25.5 0 A 6.5 6.5 0 0 1 25.5 13 L 6.5 13 A 6.5 6.5 0 0 1 6.5 0 Z" class="sb-input sb-input-number"/><text x="0" y="10" class="sb-label sb-literal-number" transform="translate(5 0)">-200</text></g><text x="0" y="10" class="sb-label " transform="translate(91 7)">y:</text><g transform="translate(103 3)"><path d="M 10 0 L 27 0 A 10 10 0 0 1 27 20 L 10 20 A 10 10 0 0 1 10 0 Z" class="sb-custom-arg sb-bevel"/><text x="0" y="10" class="sb-label " transform="translate(8 4)">valy</text></g></g></g></g></svg>