<svg xmlns="http://www.w3.org/2000/svg" version="1.1" width="267" height="516"><defs><filter id="bevelFilter" x0="-50%" y0="-50%" width="200%" height="200%"><feGaussianBlur result="blur-1" in="SourceAlpha" stdDeviation="1 1"/><feFlood result="flood-2" in="undefined" flood-color="#fff" flood-opacity="0.15"/><feOffset result="offset-3" in="blur-1" dx="1" dy="1"/><feComposite result="comp-4" operator="arithmetic" in="SourceAlpha" in2="offset-3" k2="1" k3="-1"/><feComposite result="comp-5" operator="in" in="flood-2" in2="comp-4"/><feFlood result="flood-6" in="undefined" flood-color="#000" flood-opacity="0.7"/><feOffset result="offset-7" in="blur-1" dx="-1" dy="-1"/><feComposite result="comp-8" operator="arithmetic" in="SourceAlpha" in2="offset-7" k2="1" k3="-1"/><feComposite result="comp-9" operator="in" in="flood-6" in2="comp-8"/><feMerge result="merge-10"><feMergeNode in="SourceGraphic"/><feMergeNode in="comp-5"/><feMergeNode in="comp-9"/></feMerge></filter><filter id="inputBevelFilter" x0="-50%" y0="-50%" width="200%" height="200%"><feGaussianBlur result="blur-1" in="SourceAlpha" stdDeviation="1 1"/><feFlood result="flood-2" in="undefined" flood-color="#fff" flood-opacity="0.15"/><feOffset result="offset-3" in="blur-1" dx="-1" dy="-1"/><feComposite result="comp-4" operator="arithmetic" in="SourceAlpha" in2="offset-3" k2="1" k3="-1"/><feComposite result="comp-5" operator="in" in="flood-2" in2="comp-4"/><feFlood result="flood-6" in="undefined" flood-color="#000" flood-opacity="0.7"/><feOffset result="offset-7" in="blur-1" dx="1" dy="1"/><feComposite result="comp-8" operator="arithmetic" in="SourceAlpha" in2="offset-7" k2="1" k3="-1"/><feComposite result="comp-9" operator="in" in="flood-6" in2="comp-8"/><feMerge result="merge-10"><feMergeNode in="SourceGraphic"/><feMergeNode in="comp-5"/><feMergeNode in="comp-9"/></feMerge></filter><filter id="inputDarkFilter" x0="-50%" y0="-50%" width="200%" height="200%"><feFlood result="flood-1" in="undefined" flood-color="#000" flood-opacity="0.2"/><feComposite result="comp-2" operator="in" in="flood-1" in2="SourceAlpha"/><feMerge result="merge-3"><feMergeNode in="SourceGraphic"/><feMergeNode in="comp-2"/></feMerge></filter><path d="M1.504 21L0 19.493 4.567 0h1.948l-.5 2.418s1.002-.502 3.006 0c2.006.503 3.008 2.01 6.517 2.01 3.508 0 4.463-.545 4.463-.545l-.823 9.892s-2.137 1.005-5.144.696c-3.007-.307-3.007-2.007-6.014-2.51-3.008-.502-4.512.503-4.512.503L1.504 21z" fill="#3f8d15" id="greenFlag"/><path d="M6.724 0C3.01 0 0 2.91 0 6.5c0 2.316 1.253 4.35 3.14 5.5H5.17v-1.256C3.364 10.126 2.07 8.46 2.07 6.5 2.07 4.015 4.152 2 6.723 2c1.14 0 2.184.396 2.993 1.053L8.31 4.13c-.45.344-.398.826.11 1.08L15 8.5 13.858.992c-.083-.547-.514-.714-.963-.37l-1.532 1.172A6.825 6.825 0 0 0 6.723 0z" fill="#fff" id="turnRight"/><path d="M3.637 1.794A6.825 6.825 0 0 1 8.277 0C11.99 0 15 2.91 15 6.5c0 2.316-1.253 4.35-3.14 5.5H9.83v-1.256c1.808-.618 3.103-2.285 3.103-4.244 0-2.485-2.083-4.5-4.654-4.5-1.14 0-2.184.396-2.993 1.053L6.69 4.13c.45.344.398.826-.11 1.08L0 8.5 1.142.992c.083-.547.514-.714.963-.37l1.532 1.172z" fill="#fff" id="turnLeft"/><path d="M0 0L4 4L0 8Z" fill="#111" id="addInput"/><path d="M4 0L4 8L0 4Z" fill="#111" id="delInput"/><g id="loopArrow"><path d="M8 0l2 -2l0 -3l3 0l-4 -5l-4 5l3 0l0 3l-8 0l0 2" fill="#000" opacity="0.3"/><path d="M8 0l2 -2l0 -3l3 0l-4 -5l-4 5l3 0l0 3l-8 0l0 2" fill="#fff" opacity="0.9" transform="translate(-1 -1)"/></g><style><![CDATA[.sb-label{font-family:Lucida Grande,Verdana,Arial,DejaVu Sans,sans-serif;font-weight:700;fill:#fff;font-size:10px;word-spacing:+1px}.sb-obsolete{fill:#d42828}.sb-motion{fill:#4a6cd4}.sb-looks{fill:#8a55d7}.sb-sound{fill:#bb42c3}.sb-pen{fill:#0e9a6c}.sb-events{fill:#c88330}.sb-control{fill:#e1a91a}.sb-sensing{fill:#2ca5e2}.sb-operators{fill:#5cb712}.sb-variables{fill:#ee7d16}.sb-list{fill:#cc5b22}.sb-custom{fill:#632d99}.sb-custom-arg{fill:#5947b1}.sb-extension{fill:#4b4a60}.sb-grey{fill:#969696}.sb-bevel{filter:url(#bevelFilter)}.sb-input{filter:url(#inputBevelFilter)}.sb-input-number,.sb-input-number-dropdown,.sb-input-string{fill:#fff}.sb-literal-dropdown,.sb-literal-number,.sb-literal-number-dropdown,.sb-literal-string{font-weight:400;font-size:9px;word-spacing:0}.sb-literal-number,.sb-literal-number-dropdown,.sb-literal-string{fill:#000}.sb-darker{filter:url(#inputDarkFilter)}.sb-outline{stroke:#fff;stroke-opacity:.2;stroke-width:2;fill:none}.sb-define-hat-cap{stroke:#632d99;stroke-width:1;fill:#8e2ec2}.sb-comment{fill:#ffffa5;stroke:#d0d1d2;stroke-width:1}.sb-comment-line{fill:#ffff80}.sb-comment-label{font-family:Helevetica,Arial,DejaVu Sans,sans-serif;font-weight:700;fill:#5c5d5f;word-spacing:0;font-size:12px}]]></style></defs><g><g transform="translate(0 0)"><g transform="translate(2 0)"><path d="M 0 12 L 0 12 A 80 80 0 0 1 80 10 L 122 10 L 125 13 L 125 35 L 122 38 L 27 38 L 24 41 L 16 41 L 13 38 L 3 38 L 0 35 Z" class="sb-events sb-bevel"/><text x="0" y="10" class="sb-label " transform="translate(6 18)">quand</text><use a0:href="#greenFlag" xmlns:a0="http://www.w3.org/1999/xlink" transform="translate(44 12)"/><text x="0" y="10" class="sb-label " transform="translate(68 18)">est</text><text x="0" y="10" class="sb-label " transform="translate(88 18)">cliqué</text></g><g transform="translate(2 38)"><path d="M 0 3 L 3 0 L 13 0 L 16 3 L 24 3 L 27 0 L 43 0 L 46 3 L 46 19 L 43 22 L 27 22 L 24 25 L 16 25 L 13 22 L 3 22 L 0 19 Z" class="sb-looks sb-bevel"/><text x="0" y="10" class="sb-label " transform="translate(6 5)">cacher</text></g><g transform="translate(2 60)"><path d="M 0 3 L 3 0 L 13 0 L 16 3 L 24 3 L 27 0 L 70 0 L 73 3 L 73 19 L 70 22 L 27 22 L 24 25 L 16 25 L 13 22 L 3 22 L 0 19 Z" class="sb-pen sb-bevel"/><text x="0" y="10" class="sb-label " transform="translate(6 5)">effacer</text><text x="0" y="10" class="sb-label " transform="translate(46 5)">tout</text></g><g transform="translate(2 82)"><path d="M 0 3 L 3 0 L 13 0 L 16 3 L 24 3 L 27 0 L 162 0 L 165 3 L 165 19 L 162 22 L 27 22 L 24 25 L 16 25 L 13 22 L 3 22 L 0 19 Z" class="sb-pen sb-bevel"/><text x="0" y="10" class="sb-label " transform="translate(6 5)">mettre</text><text x="0" y="10" class="sb-label " transform="translate(45 5)">la</text><text x="0" y="10" class="sb-label " transform="translate(58 5)">taille</text><text x="0" y="10" class="sb-label " transform="translate(87 5)">du</text><text x="0" y="10" class="sb-label " transform="translate(105 5)">stylo</text><text x="0" y="10" class="sb-label " transform="translate(134 5)">à</text><g transform="translate(144 4)"><path d="M 6.5 0 L 8.5 0 A 6.5 6.5 0 0 1 8.5 13 L 6.5 13 A 6.5 6.5 0 0 1 6.5 0 Z" class="sb-input sb-input-number"/><text x="0" y="10" class="sb-label sb-literal-number" transform="translate(5 0)">5</text></g></g><g transform="translate(2 104)"><path d="M 0 3 L 3 0 L 13 0 L 16 3 L 24 3 L 27 0 L 88 0 L 91 3 L 91 19 L 88 22 L 27 22 L 24 25 L 16 25 L 13 22 L 3 22 L 0 19 Z" class="sb-pen sb-bevel"/><text x="0" y="10" class="sb-label " transform="translate(6 5)">relever</text><text x="0" y="10" class="sb-label " transform="translate(47 5)">le</text><text x="0" y="10" class="sb-label " transform="translate(60 5)">stylo</text></g><g transform="translate(2 126)"><path d="M 0 3 L 3 0 L 13 0 L 16 3 L 24 3 L 27 0 L 122 0 L 125 3 L 125 19 L 122 22 L 27 22 L 24 25 L 16 25 L 13 22 L 3 22 L 0 19 Z" class="sb-motion sb-bevel"/><text x="0" y="10" class="sb-label " transform="translate(6 5)">aller</text><text x="0" y="10" class="sb-label " transform="translate(33 5)">à</text><text x="0" y="10" class="sb-label " transform="translate(43 5)">x:</text><g transform="translate(55 4)"><path d="M 6.5 0 L 14.5 0 A 6.5 6.5 0 0 1 14.5 13 L 6.5 13 A 6.5 6.5 0 0 1 6.5 0 Z" class="sb-input sb-input-number"/><text x="0" y="10" class="sb-label sb-literal-number" transform="translate(5 0)">40</text></g><text x="0" y="10" class="sb-label " transform="translate(80 5)">y:</text><g transform="translate(92 4)"><path d="M 6.5 0 L 20.5 0 A 6.5 6.5 0 0 1 20.5 13 L 6.5 13 A 6.5 6.5 0 0 1 6.5 0 Z" class="sb-input sb-input-number"/><text x="0" y="10" class="sb-label sb-literal-number" transform="translate(5 0)">120</text></g></g><g transform="translate(139 127)"><rect x="0" y="0" width="12" height="2" class="sb-comment-line" transform="translate(-12 9)"/><path d="M 6 0 L 112 0 A 6 6 0 0 1 118 6 L 118 14 A 6 6 0 0 1 112 20 L 6 20 A 6 6 0 0 1 0 14 L 0 6 A 6 6 0 0 1 6 0 Z" class="sb-comment"/><text x="0" y="10" class="sb-label sb-comment-label" transform="translate(8 4)"> début du chiffre 4</text></g><g transform="translate(2 148)"><path d="M 0 3 L 3 0 L 13 0 L 16 3 L 24 3 L 27 0 L 151 0 L 154 3 L 154 19 L 151 22 L 27 22 L 24 25 L 16 25 L 13 22 L 3 22 L 0 19 Z" class="sb-pen sb-bevel"/><text x="0" y="10" class="sb-label " transform="translate(6 5)">stylo</text><text x="0" y="10" class="sb-label " transform="translate(35 5)">en</text><text x="0" y="10" class="sb-label " transform="translate(52 5)">position</text><text x="0" y="10" class="sb-label " transform="translate(98 5)">d'écriture</text></g><g transform="translate(2 170)"><path d="M 0 3 L 3 0 L 13 0 L 16 3 L 24 3 L 27 0 L 110 0 L 113 3 L 113 19 L 110 22 L 27 22 L 24 25 L 16 25 L 13 22 L 3 22 L 0 19 Z" class="sb-motion sb-bevel"/><text x="0" y="10" class="sb-label " transform="translate(6 5)">aller</text><text x="0" y="10" class="sb-label " transform="translate(33 5)">à</text><text x="0" y="10" class="sb-label " transform="translate(43 5)">x:</text><g transform="translate(55 4)"><path d="M 6.5 0 L 8.5 0 A 6.5 6.5 0 0 1 8.5 13 L 6.5 13 A 6.5 6.5 0 0 1 6.5 0 Z" class="sb-input sb-input-number"/><text x="0" y="10" class="sb-label sb-literal-number" transform="translate(5 0)">0</text></g><text x="0" y="10" class="sb-label " transform="translate(74 5)">y:</text><g transform="translate(86 4)"><path d="M 6.5 0 L 14.5 0 A 6.5 6.5 0 0 1 14.5 13 L 6.5 13 A 6.5 6.5 0 0 1 6.5 0 Z" class="sb-input sb-input-number"/><text x="0" y="10" class="sb-label sb-literal-number" transform="translate(5 0)">40</text></g></g><g transform="translate(2 192)"><path d="M 0 3 L 3 0 L 13 0 L 16 3 L 24 3 L 27 0 L 116 0 L 119 3 L 119 19 L 116 22 L 27 22 L 24 25 L 16 25 L 13 22 L 3 22 L 0 19 Z" class="sb-motion sb-bevel"/><text x="0" y="10" class="sb-label " transform="translate(6 5)">aller</text><text x="0" y="10" class="sb-label " transform="translate(33 5)">à</text><text x="0" y="10" class="sb-label " transform="translate(43 5)">x:</text><g transform="translate(55 4)"><path d="M 6.5 0 L 14.5 0 A 6.5 6.5 0 0 1 14.5 13 L 6.5 13 A 6.5 6.5 0 0 1 6.5 0 Z" class="sb-input sb-input-number"/><text x="0" y="10" class="sb-label sb-literal-number" transform="translate(5 0)">80</text></g><text x="0" y="10" class="sb-label " transform="translate(80 5)">y:</text><g transform="translate(92 4)"><path d="M 6.5 0 L 14.5 0 A 6.5 6.5 0 0 1 14.5 13 L 6.5 13 A 6.5 6.5 0 0 1 6.5 0 Z" class="sb-input sb-input-number"/><text x="0" y="10" class="sb-label sb-literal-number" transform="translate(5 0)">40</text></g></g><g transform="translate(2 214)"><path d="M 0 3 L 3 0 L 13 0 L 16 3 L 24 3 L 27 0 L 88 0 L 91 3 L 91 19 L 88 22 L 27 22 L 24 25 L 16 25 L 13 22 L 3 22 L 0 19 Z" class="sb-pen sb-bevel"/><text x="0" y="10" class="sb-label " transform="translate(6 5)">relever</text><text x="0" y="10" class="sb-label " transform="translate(47 5)">le</text><text x="0" y="10" class="sb-label " transform="translate(60 5)">stylo</text></g><g transform="translate(2 236)"><path d="M 0 3 L 3 0 L 13 0 L 16 3 L 24 3 L 27 0 L 116 0 L 119 3 L 119 19 L 116 22 L 27 22 L 24 25 L 16 25 L 13 22 L 3 22 L 0 19 Z" class="sb-motion sb-bevel"/><text x="0" y="10" class="sb-label " transform="translate(6 5)">aller</text><text x="0" y="10" class="sb-label " transform="translate(33 5)">à</text><text x="0" y="10" class="sb-label " transform="translate(43 5)">x:</text><g transform="translate(55 4)"><path d="M 6.5 0 L 14.5 0 A 6.5 6.5 0 0 1 14.5 13 L 6.5 13 A 6.5 6.5 0 0 1 6.5 0 Z" class="sb-input sb-input-number"/><text x="0" y="10" class="sb-label sb-literal-number" transform="translate(5 0)">60</text></g><text x="0" y="10" class="sb-label " transform="translate(80 5)">y:</text><g transform="translate(92 4)"><path d="M 6.5 0 L 14.5 0 A 6.5 6.5 0 0 1 14.5 13 L 6.5 13 A 6.5 6.5 0 0 1 6.5 0 Z" class="sb-input sb-input-number"/><text x="0" y="10" class="sb-label sb-literal-number" transform="translate(5 0)">20</text></g></g><g transform="translate(2 258)"><path d="M 0 3 L 3 0 L 13 0 L 16 3 L 24 3 L 27 0 L 151 0 L 154 3 L 154 19 L 151 22 L 27 22 L 24 25 L 16 25 L 13 22 L 3 22 L 0 19 Z" class="sb-pen sb-bevel"/><text x="0" y="10" class="sb-label " transform="translate(6 5)">stylo</text><text x="0" y="10" class="sb-label " transform="translate(35 5)">en</text><text x="0" y="10" class="sb-label " transform="translate(52 5)">position</text><text x="0" y="10" class="sb-label " transform="translate(98 5)">d'écriture</text></g><g transform="translate(2 280)"><path d="M 0 3 L 3 0 L 13 0 L 16 3 L 24 3 L 27 0 L 116 0 L 119 3 L 119 19 L 116 22 L 27 22 L 24 25 L 16 25 L 13 22 L 3 22 L 0 19 Z" class="sb-motion sb-bevel"/><text x="0" y="10" class="sb-label " transform="translate(6 5)">aller</text><text x="0" y="10" class="sb-label " transform="translate(33 5)">à</text><text x="0" y="10" class="sb-label " transform="translate(43 5)">x:</text><g transform="translate(55 4)"><path d="M 6.5 0 L 14.5 0 A 6.5 6.5 0 0 1 14.5 13 L 6.5 13 A 6.5 6.5 0 0 1 6.5 0 Z" class="sb-input sb-input-number"/><text x="0" y="10" class="sb-label sb-literal-number" transform="translate(5 0)">60</text></g><text x="0" y="10" class="sb-label " transform="translate(80 5)">y:</text><g transform="translate(92 4)"><path d="M 6.5 0 L 14.5 0 A 6.5 6.5 0 0 1 14.5 13 L 6.5 13 A 6.5 6.5 0 0 1 6.5 0 Z" class="sb-input sb-input-number"/><text x="0" y="10" class="sb-label sb-literal-number" transform="translate(5 0)">60</text></g></g></g><g transform="translate(0 315)"><g transform="translate(2 0)"><path d="M 0 3 L 3 0 L 13 0 L 16 3 L 24 3 L 27 0 L 88 0 L 91 3 L 91 19 L 88 22 L 27 22 L 24 25 L 16 25 L 13 22 L 3 22 L 0 19 Z" class="sb-pen sb-bevel"/><text x="0" y="10" class="sb-label " transform="translate(6 5)">relever</text><text x="0" y="10" class="sb-label " transform="translate(47 5)">le</text><text x="0" y="10" class="sb-label " transform="translate(60 5)">stylo</text></g><g transform="translate(2 22)"><path d="M 0 3 L 3 0 L 13 0 L 16 3 L 24 3 L 27 0 L 128 0 L 131 3 L 131 19 L 128 22 L 27 22 L 24 25 L 16 25 L 13 22 L 3 22 L 0 19 Z" class="sb-motion sb-bevel"/><text x="0" y="10" class="sb-label " transform="translate(6 5)">aller</text><text x="0" y="10" class="sb-label " transform="translate(33 5)">à</text><text x="0" y="10" class="sb-label " transform="translate(43 5)">x:</text><g transform="translate(55 4)"><path d="M 6.5 0 L 20.5 0 A 6.5 6.5 0 0 1 20.5 13 L 6.5 13 A 6.5 6.5 0 0 1 6.5 0 Z" class="sb-input sb-input-number"/><text x="0" y="10" class="sb-label sb-literal-number" transform="translate(5 0)">120</text></g><text x="0" y="10" class="sb-label " transform="translate(86 5)">y:</text><g transform="translate(98 4)"><path d="M 6.5 0 L 20.5 0 A 6.5 6.5 0 0 1 20.5 13 L 6.5 13 A 6.5 6.5 0 0 1 6.5 0 Z" class="sb-input sb-input-number"/><text x="0" y="10" class="sb-label sb-literal-number" transform="translate(5 0)">120</text></g></g><g transform="translate(145 23)"><rect x="0" y="0" width="12" height="2" class="sb-comment-line" transform="translate(-12 9)"/><path d="M 6 0 L 112 0 A 6 6 0 0 1 118 6 L 118 14 A 6 6 0 0 1 112 20 L 6 20 A 6 6 0 0 1 0 14 L 0 6 A 6 6 0 0 1 6 0 Z" class="sb-comment"/><text x="0" y="10" class="sb-label sb-comment-label" transform="translate(8 4)"> début du chiffre 7</text></g><g transform="translate(2 44)"><path d="M 0 3 L 3 0 L 13 0 L 16 3 L 24 3 L 27 0 L 151 0 L 154 3 L 154 19 L 151 22 L 27 22 L 24 25 L 16 25 L 13 22 L 3 22 L 0 19 Z" class="sb-pen sb-bevel"/><text x="0" y="10" class="sb-label " transform="translate(6 5)">stylo</text><text x="0" y="10" class="sb-label " transform="translate(35 5)">en</text><text x="0" y="10" class="sb-label " transform="translate(52 5)">position</text><text x="0" y="10" class="sb-label " transform="translate(98 5)">d'écriture</text></g><g transform="translate(2 66)"><path d="M 0 3 L 3 0 L 13 0 L 16 3 L 24 3 L 27 0 L 128 0 L 131 3 L 131 19 L 128 22 L 27 22 L 24 25 L 16 25 L 13 22 L 3 22 L 0 19 Z" class="sb-motion sb-bevel"/><text x="0" y="10" class="sb-label " transform="translate(6 5)">aller</text><text x="0" y="10" class="sb-label " transform="translate(33 5)">à</text><text x="0" y="10" class="sb-label " transform="translate(43 5)">x:</text><g transform="translate(55 4)"><path d="M 6.5 0 L 20.5 0 A 6.5 6.5 0 0 1 20.5 13 L 6.5 13 A 6.5 6.5 0 0 1 6.5 0 Z" class="sb-input sb-input-number"/><text x="0" y="10" class="sb-label sb-literal-number" transform="translate(5 0)">200</text></g><text x="0" y="10" class="sb-label " transform="translate(86 5)">y:</text><g transform="translate(98 4)"><path d="M 6.5 0 L 20.5 0 A 6.5 6.5 0 0 1 20.5 13 L 6.5 13 A 6.5 6.5 0 0 1 6.5 0 Z" class="sb-input sb-input-number"/><text x="0" y="10" class="sb-label sb-literal-number" transform="translate(5 0)">120</text></g></g><g transform="translate(2 88)"><path d="M 0 3 L 3 0 L 13 0 L 16 3 L 24 3 L 27 0 L 122 0 L 125 3 L 125 19 L 122 22 L 27 22 L 24 25 L 16 25 L 13 22 L 3 22 L 0 19 Z" class="sb-motion sb-bevel"/><text x="0" y="10" class="sb-label " transform="translate(6 5)">aller</text><text x="0" y="10" class="sb-label " transform="translate(33 5)">à</text><text x="0" y="10" class="sb-label " transform="translate(43 5)">x:</text><g transform="translate(55 4)"><path d="M 6.5 0 L 20.5 0 A 6.5 6.5 0 0 1 20.5 13 L 6.5 13 A 6.5 6.5 0 0 1 6.5 0 Z" class="sb-input sb-input-number"/><text x="0" y="10" class="sb-label sb-literal-number" transform="translate(5 0)">120</text></g><text x="0" y="10" class="sb-label " transform="translate(86 5)">y:</text><g transform="translate(98 4)"><path d="M 6.5 0 L 14.5 0 A 6.5 6.5 0 0 1 14.5 13 L 6.5 13 A 6.5 6.5 0 0 1 6.5 0 Z" class="sb-input sb-input-number"/><text x="0" y="10" class="sb-label sb-literal-number" transform="translate(5 0)">20</text></g></g><g transform="translate(2 110)"><path d="M 0 3 L 3 0 L 13 0 L 16 3 L 24 3 L 27 0 L 88 0 L 91 3 L 91 19 L 88 22 L 27 22 L 24 25 L 16 25 L 13 22 L 3 22 L 0 19 Z" class="sb-pen sb-bevel"/><text x="0" y="10" class="sb-label " transform="translate(6 5)">relever</text><text x="0" y="10" class="sb-label " transform="translate(47 5)">le</text><text x="0" y="10" class="sb-label " transform="translate(60 5)">stylo</text></g><g transform="translate(2 132)"><path d="M 0 3 L 3 0 L 13 0 L 16 3 L 24 3 L 27 0 L 122 0 L 125 3 L 125 19 L 122 22 L 27 22 L 24 25 L 16 25 L 13 22 L 3 22 L 0 19 Z" class="sb-motion sb-bevel"/><text x="0" y="10" class="sb-label " transform="translate(6 5)">aller</text><text x="0" y="10" class="sb-label " transform="translate(33 5)">à</text><text x="0" y="10" class="sb-label " transform="translate(43 5)">x:</text><g transform="translate(55 4)"><path d="M 6.5 0 L 20.5 0 A 6.5 6.5 0 0 1 20.5 13 L 6.5 13 A 6.5 6.5 0 0 1 6.5 0 Z" class="sb-input sb-input-number"/><text x="0" y="10" class="sb-label sb-literal-number" transform="translate(5 0)">140</text></g><text x="0" y="10" class="sb-label " transform="translate(86 5)">y:</text><g transform="translate(98 4)"><path d="M 6.5 0 L 14.5 0 A 6.5 6.5 0 0 1 14.5 13 L 6.5 13 A 6.5 6.5 0 0 1 6.5 0 Z" class="sb-input sb-input-number"/><text x="0" y="10" class="sb-label sb-literal-number" transform="translate(5 0)">70</text></g></g><g transform="translate(2 154)"><path d="M 0 3 L 3 0 L 13 0 L 16 3 L 24 3 L 27 0 L 151 0 L 154 3 L 154 19 L 151 22 L 27 22 L 24 25 L 16 25 L 13 22 L 3 22 L 0 19 Z" class="sb-pen sb-bevel"/><text x="0" y="10" class="sb-label " transform="translate(6 5)">stylo</text><text x="0" y="10" class="sb-label " transform="translate(35 5)">en</text><text x="0" y="10" class="sb-label " transform="translate(52 5)">position</text><text x="0" y="10" class="sb-label " transform="translate(98 5)">d'écriture</text></g><g transform="translate(2 176)"><path d="M 0 3 L 3 0 L 13 0 L 16 3 L 24 3 L 27 0 L 122 0 L 125 3 L 125 19 L 122 22 L 27 22 L 24 25 L 16 25 L 13 22 L 3 22 L 0 19 Z" class="sb-motion sb-bevel"/><text x="0" y="10" class="sb-label " transform="translate(6 5)">aller</text><text x="0" y="10" class="sb-label " transform="translate(33 5)">à</text><text x="0" y="10" class="sb-label " transform="translate(43 5)">x:</text><g transform="translate(55 4)"><path d="M 6.5 0 L 20.5 0 A 6.5 6.5 0 0 1 20.5 13 L 6.5 13 A 6.5 6.5 0 0 1 6.5 0 Z" class="sb-input sb-input-number"/><text x="0" y="10" class="sb-label sb-literal-number" transform="translate(5 0)">180</text></g><text x="0" y="10" class="sb-label " transform="translate(86 5)">y:</text><g transform="translate(98 4)"><path d="M 6.5 0 L 14.5 0 A 6.5 6.5 0 0 1 14.5 13 L 6.5 13 A 6.5 6.5 0 0 1 6.5 0 Z" class="sb-input sb-input-number"/><text x="0" y="10" class="sb-label sb-literal-number" transform="translate(5 0)">70</text></g></g></g></g></svg>