<svg xmlns="http://www.w3.org/2000/svg" version="1.1" width="259" height="494"><defs><filter id="bevelFilter" x0="-50%" y0="-50%" width="200%" height="200%"><feGaussianBlur result="blur-1" in="SourceAlpha" stdDeviation="1 1"/><feFlood result="flood-2" in="undefined" flood-color="#fff" flood-opacity="0.15"/><feOffset result="offset-3" in="blur-1" dx="1" dy="1"/><feComposite result="comp-4" operator="arithmetic" in="SourceAlpha" in2="offset-3" k2="1" k3="-1"/><feComposite result="comp-5" operator="in" in="flood-2" in2="comp-4"/><feFlood result="flood-6" in="undefined" flood-color="#000" flood-opacity="0.7"/><feOffset result="offset-7" in="blur-1" dx="-1" dy="-1"/><feComposite result="comp-8" operator="arithmetic" in="SourceAlpha" in2="offset-7" k2="1" k3="-1"/><feComposite result="comp-9" operator="in" in="flood-6" in2="comp-8"/><feMerge result="merge-10"><feMergeNode in="SourceGraphic"/><feMergeNode in="comp-5"/><feMergeNode in="comp-9"/></feMerge></filter><filter id="inputBevelFilter" x0="-50%" y0="-50%" width="200%" height="200%"><feGaussianBlur result="blur-1" in="SourceAlpha" stdDeviation="1 1"/><feFlood result="flood-2" in="undefined" flood-color="#fff" flood-opacity="0.15"/><feOffset result="offset-3" in="blur-1" dx="-1" dy="-1"/><feComposite result="comp-4" operator="arithmetic" in="SourceAlpha" in2="offset-3" k2="1" k3="-1"/><feComposite result="comp-5" operator="in" in="flood-2" in2="comp-4"/><feFlood result="flood-6" in="undefined" flood-color="#000" flood-opacity="0.7"/><feOffset result="offset-7" in="blur-1" dx="1" dy="1"/><feComposite result="comp-8" operator="arithmetic" in="SourceAlpha" in2="offset-7" k2="1" k3="-1"/><feComposite result="comp-9" operator="in" in="flood-6" in2="comp-8"/><feMerge result="merge-10"><feMergeNode in="SourceGraphic"/><feMergeNode in="comp-5"/><feMergeNode in="comp-9"/></feMerge></filter><filter id="inputDarkFilter" x0="-50%" y0="-50%" width="200%" height="200%"><feFlood result="flood-1" in="undefined" flood-color="#000" flood-opacity="0.2"/><feComposite result="comp-2" operator="in" in="flood-1" in2="SourceAlpha"/><feMerge result="merge-3"><feMergeNode in="SourceGraphic"/><feMergeNode in="comp-2"/></feMerge></filter><path d="M1.504 21L0 19.493 4.567 0h1.948l-.5 2.418s1.002-.502 3.006 0c2.006.503 3.008 2.01 6.517 2.01 3.508 0 4.463-.545 4.463-.545l-.823 9.892s-2.137 1.005-5.144.696c-3.007-.307-3.007-2.007-6.014-2.51-3.008-.502-4.512.503-4.512.503L1.504 21z" fill="#3f8d15" id="greenFlag"/><path d="M6.724 0C3.01 0 0 2.91 0 6.5c0 2.316 1.253 4.35 3.14 5.5H5.17v-1.256C3.364 10.126 2.07 8.46 2.07 6.5 2.07 4.015 4.152 2 6.723 2c1.14 0 2.184.396 2.993 1.053L8.31 4.13c-.45.344-.398.826.11 1.08L15 8.5 13.858.992c-.083-.547-.514-.714-.963-.37l-1.532 1.172A6.825 6.825 0 0 0 6.723 0z" fill="#fff" id="turnRight"/><path d="M3.637 1.794A6.825 6.825 0 0 1 8.277 0C11.99 0 15 2.91 15 6.5c0 2.316-1.253 4.35-3.14 5.5H9.83v-1.256c1.808-.618 3.103-2.285 3.103-4.244 0-2.485-2.083-4.5-4.654-4.5-1.14 0-2.184.396-2.993 1.053L6.69 4.13c.45.344.398.826-.11 1.08L0 8.5 1.142.992c.083-.547.514-.714.963-.37l1.532 1.172z" fill="#fff" id="turnLeft"/><path d="M0 0L4 4L0 8Z" fill="#111" id="addInput"/><path d="M4 0L4 8L0 4Z" fill="#111" id="delInput"/><g id="loopArrow"><path d="M8 0l2 -2l0 -3l3 0l-4 -5l-4 5l3 0l0 3l-8 0l0 2" fill="#000" opacity="0.3"/><path d="M8 0l2 -2l0 -3l3 0l-4 -5l-4 5l3 0l0 3l-8 0l0 2" fill="#fff" opacity="0.9" transform="translate(-1 -1)"/></g><style><![CDATA[.sb-label{font-family:Lucida Grande,Verdana,Arial,DejaVu Sans,sans-serif;font-weight:700;fill:#fff;font-size:10px;word-spacing:+1px}.sb-obsolete{fill:#d42828}.sb-motion{fill:#4a6cd4}.sb-looks{fill:#8a55d7}.sb-sound{fill:#bb42c3}.sb-pen{fill:#0e9a6c}.sb-events{fill:#c88330}.sb-control{fill:#e1a91a}.sb-sensing{fill:#2ca5e2}.sb-operators{fill:#5cb712}.sb-variables{fill:#ee7d16}.sb-list{fill:#cc5b22}.sb-custom{fill:#632d99}.sb-custom-arg{fill:#5947b1}.sb-extension{fill:#4b4a60}.sb-grey{fill:#969696}.sb-bevel{filter:url(#bevelFilter)}.sb-input{filter:url(#inputBevelFilter)}.sb-input-number,.sb-input-number-dropdown,.sb-input-string{fill:#fff}.sb-literal-dropdown,.sb-literal-number,.sb-literal-number-dropdown,.sb-literal-string{font-weight:400;font-size:9px;word-spacing:0}.sb-literal-number,.sb-literal-number-dropdown,.sb-literal-string{fill:#000}.sb-darker{filter:url(#inputDarkFilter)}.sb-outline{stroke:#fff;stroke-opacity:.2;stroke-width:2;fill:none}.sb-define-hat-cap{stroke:#632d99;stroke-width:1;fill:#8e2ec2}.sb-comment{fill:#ffffa5;stroke:#d0d1d2;stroke-width:1}.sb-comment-line{fill:#ffff80}.sb-comment-label{font-family:Helevetica,Arial,DejaVu Sans,sans-serif;font-weight:700;fill:#5c5d5f;word-spacing:0;font-size:12px}]]></style></defs><g><g transform="translate(0 0)"><g transform="translate(2 0)"><rect x="0" y="0" width="0" height="2" class="sb-comment-line" transform="translate(0 9)"/><path d="M 6 0 L 42 0 A 6 6 0 0 1 48 6 L 48 14 A 6 6 0 0 1 42 20 L 6 20 A 6 6 0 0 1 0 14 L 0 6 A 6 6 0 0 1 6 0 Z" class="sb-comment"/><text x="0" y="10" class="sb-label sb-comment-label" transform="translate(8 4)"> Balle</text></g></g><g transform="translate(0 33)"><g transform="translate(2 0)"><path d="M 0 12 L 0 12 A 80 80 0 0 1 80 10 L 157 10 L 160 13 L 160 30 L 157 33 L 27 33 L 24 36 L 16 36 L 13 33 L 3 33 L 0 30 Z" class="sb-events sb-bevel"/><text x="0" y="10" class="sb-label " transform="translate(6 16)">quand</text><g transform="translate(44 15)"><g width="50" height="14" class="sb-input sb-input-dropdown"><rect x="0" y="0" width="50" height="14" class="sb-events sb-darker"/></g><text x="0" y="10" class="sb-label sb-literal-dropdown" transform="translate(4 0)">espace</text><polygon points="7 0 3.5 4 0 0" fill="#000" opacity="0.6" transform="translate(40 5)"/></g><text x="0" y="10" class="sb-label " transform="translate(98 16)">est</text><text x="0" y="10" class="sb-label " transform="translate(118 16)">pressé</text></g><g transform="translate(2 33)"><path d="M 0 3 L 3 0 L 13 0 L 16 3 L 24 3 L 27 0 L 94 0 L 97 3 L 97 19 L 94 22 L 27 22 L 24 25 L 16 25 L 13 22 L 3 22 L 0 19 Z" class="sb-motion sb-bevel"/><text x="0" y="10" class="sb-label " transform="translate(6 5)">aller</text><text x="0" y="10" class="sb-label " transform="translate(33 5)">à</text><g transform="translate(43 4)"><g width="48" height="14" class="sb-input sb-input-dropdown"><rect x="0" y="0" width="48" height="14" class="sb-motion sb-darker"/></g><text x="0" y="10" class="sb-label sb-literal-dropdown" transform="translate(4 0)">Canon</text><polygon points="7 0 3.5 4 0 0" fill="#000" opacity="0.6" transform="translate(38 5)"/></g></g><g transform="translate(2 55)"><path d="M 0 3 L 3 0 L 13 0 L 16 3 L 24 3 L 27 0 L 118 0 L 121 3 L 121 23 L 118 26 L 27 26 L 24 29 L 16 29 L 13 26 L 3 26 L 0 23 Z" class="sb-motion sb-bevel"/><text x="0" y="10" class="sb-label " transform="translate(6 7)">s'orienter</text><text x="0" y="10" class="sb-label " transform="translate(60 7)">à</text><g transform="translate(70 3)"><path d="M 10 0 L 35 0 A 10 10 0 0 1 35 20 L 10 20 A 10 10 0 0 1 10 0 Z" class="sb-variables sb-bevel"/><text x="0" y="10" class="sb-label " transform="translate(8 4)">angle</text></g></g><g transform="translate(2 81)"><path d="M 0 3 L 3 0 L 13 0 L 16 3 L 24 3 L 27 0 L 135 0 L 138 3 L 138 19 L 135 22 L 27 22 L 24 25 L 16 25 L 13 22 L 3 22 L 0 19 Z" class="sb-variables sb-bevel"/><text x="0" y="10" class="sb-label " transform="translate(6 5)">mettre</text><g transform="translate(45 4)"><g width="59" height="14" class="sb-input sb-input-dropdown"><rect x="0" y="0" width="59" height="14" class="sb-variables sb-darker"/></g><text x="0" y="10" class="sb-label sb-literal-dropdown" transform="translate(4 0)">descente</text><polygon points="7 0 3.5 4 0 0" fill="#000" opacity="0.6" transform="translate(49 5)"/></g><text x="0" y="10" class="sb-label " transform="translate(108 5)">à</text><g transform="translate(118 4)"><rect x="0" y="0" width="14" height="14" class="sb-input sb-input-string"/><text x="0" y="10" class="sb-label sb-literal-string" transform="translate(4 0)">0</text></g></g><g transform="translate(2 103)"><path d="M 0 3 L 3 0 L 13 0 L 16 3 L 24 3 L 27 0 L 52 0 L 55 3 L 55 19 L 52 22 L 27 22 L 24 25 L 16 25 L 13 22 L 3 22 L 0 19 Z" class="sb-looks sb-bevel"/><text x="0" y="10" class="sb-label " transform="translate(6 5)">montrer</text></g><g transform="translate(2 125)"><path d="M 0 3 L 3 0 L 13 0 L 16 3 L 24 3 L 27 0 L 119 0 L 122 3 L 122 19 L 119 22 L 42 22 L 39 25 L 31 25 L 28 22 L 17 22 L 15 24 L 15 318 L 17 320 L 119 320 L 122 323 L 122 333 L 119 336 L 3 336 L 0 333" class="sb-control sb-bevel"/><text x="0" y="10" class="sb-label " transform="translate(6 5)">répéter</text><text x="0" y="10" class="sb-label " transform="translate(49 5)">indéfiniment</text><use a0:href="#loopArrow" xmlns:a0="http://www.w3.org/1999/xlink" transform="translate(107 333)"/><g transform="translate(15 22)"><g transform="translate(0 0)"><path d="M 0 3 L 3 0 L 13 0 L 16 3 L 24 3 L 27 0 L 185 0 L 188 3 L 188 27 L 185 30 L 27 30 L 24 33 L 16 33 L 13 30 L 3 30 L 0 27 Z" class="sb-motion sb-bevel"/><text x="0" y="10" class="sb-label " transform="translate(6 9)">avancer</text><text x="0" y="10" class="sb-label " transform="translate(51 9)">de</text><g transform="translate(68 3)"><path d="M 12 0 L 102 0 A 12 12 0 0 1 102 24 L 12 24 A 12 12 0 0 1 12 0 Z" class="sb-operators sb-bevel"/><g transform="translate(4 5)"><path d="M 6.5 0 L 17.5 0 A 6.5 6.5 0 0 1 17.5 13 L 6.5 13 A 6.5 6.5 0 0 1 6.5 0 Z" class="sb-input sb-input-number"/><text x="0" y="10" class="sb-label sb-literal-number" transform="translate(5 0)">0.1</text></g><text x="0" y="10" class="sb-label " transform="translate(32 6)">*</text><g transform="translate(41 2)"><path d="M 10 0 L 59 0 A 10 10 0 0 1 59 20 L 10 20 A 10 10 0 0 1 10 0 Z" class="sb-variables sb-bevel"/><text x="0" y="10" class="sb-label " transform="translate(8 4)">puissance</text></g></g></g><g transform="translate(0 30)"><path d="M 0 3 L 3 0 L 13 0 L 16 3 L 24 3 L 27 0 L 152 0 L 155 3 L 155 19 L 152 22 L 27 22 L 24 25 L 16 25 L 13 22 L 3 22 L 0 19 Z" class="sb-variables sb-bevel"/><text x="0" y="10" class="sb-label " transform="translate(6 5)">ajouter</text><text x="0" y="10" class="sb-label " transform="translate(47 5)">à</text><g transform="translate(57 4)"><g width="59" height="14" class="sb-input sb-input-dropdown"><rect x="0" y="0" width="59" height="14" class="sb-variables sb-darker"/></g><text x="0" y="10" class="sb-label sb-literal-dropdown" transform="translate(4 0)">descente</text><polygon points="7 0 3.5 4 0 0" fill="#000" opacity="0.6" transform="translate(49 5)"/></g><g transform="translate(120 4)"><path d="M 6.5 0 L 22.5 0 A 6.5 6.5 0 0 1 22.5 13 L 6.5 13 A 6.5 6.5 0 0 1 6.5 0 Z" class="sb-input sb-input-number"/><text x="0" y="10" class="sb-label sb-literal-number" transform="translate(5 0)">-0.1</text></g></g><g transform="translate(0 52)"><path d="M 0 3 L 3 0 L 13 0 L 16 3 L 24 3 L 27 0 L 133 0 L 136 3 L 136 23 L 133 26 L 27 26 L 24 29 L 16 29 L 13 26 L 3 26 L 0 23 Z" class="sb-motion sb-bevel"/><text x="0" y="10" class="sb-label " transform="translate(6 7)">ajouter</text><g transform="translate(47 3)"><path d="M 10 0 L 53 0 A 10 10 0 0 1 53 20 L 10 20 A 10 10 0 0 1 10 0 Z" class="sb-variables sb-bevel"/><text x="0" y="10" class="sb-label " transform="translate(8 4)">descente</text></g><text x="0" y="10" class="sb-label " transform="translate(114 7)">à</text><text x="0" y="10" class="sb-label " transform="translate(124 7)">y</text></g><g transform="translate(0 78)"><path d="M 0 3 L 3 0 L 13 0 L 16 3 L 24 3 L 27 0 L 237 0 L 240 3 L 240 23 L 237 26 L 42 26 L 39 29 L 31 29 L 28 26 L 17 26 L 15 28 L 15 48 L 17 50 L 237 50 L 240 53 L 240 63 L 237 66 L 27 66 L 24 69 L 16 69 L 13 66 L 3 66 L 0 63" class="sb-control sb-bevel"/><text x="0" y="10" class="sb-label " transform="translate(6 6)">si</text><g transform="translate(30 2)"><path d="M 10.5 0 L 163.5 0 174 10.5 L 174 10.5 163.5 21 L 10.5 21 0 10.5 L 0 10.5 10.5 0 Z" class="sb-sensing sb-bevel"/><text x="0" y="10" class="sb-label " transform="translate(11 4)">couleur</text><g transform="translate(54 3)"><g width="59" height="14" class="sb-input sb-input-dropdown"><rect x="0" y="0" width="59" height="14" class="sb-sensing sb-darker"/></g><text x="0" y="10" class="sb-label sb-literal-dropdown" transform="translate(4 0)">#00FF00</text><polygon points="7 0 3.5 4 0 0" fill="#000" opacity="0.6" transform="translate(49 5)"/></g><text x="0" y="10" class="sb-label " transform="translate(117 4)">touchée?</text></g><text x="0" y="10" class="sb-label " transform="translate(208 6)">alors</text><g transform="translate(15 26)"><g transform="translate(0 0)"><path d="M 0 3 L 3 0 L 13 0 L 16 3 L 24 3 L 27 0 L 73 0 L 76 3 L 76 21 L 73 24 L 3 24 L 0 21 Z" class="sb-control sb-bevel"/><text x="0" y="10" class="sb-label " transform="translate(6 7)">stop</text><g transform="translate(33 6)"><g width="37" height="14" class="sb-input sb-input-dropdown"><rect x="0" y="0" width="37" height="14" class="sb-control sb-darker"/></g><text x="0" y="10" class="sb-label sb-literal-dropdown" transform="translate(4 0)">tout</text><polygon points="7 0 3.5 4 0 0" fill="#000" opacity="0.6" transform="translate(27 5)"/></g></g></g></g><g transform="translate(0 144)"><path d="M 0 3 L 3 0 L 13 0 L 16 3 L 24 3 L 27 0 L 168 0 L 171 3 L 171 23 L 168 26 L 42 26 L 39 29 L 31 29 L 28 26 L 17 26 L 15 28 L 15 48 L 17 50 L 168 50 L 171 53 L 171 63 L 168 66 L 27 66 L 24 69 L 16 69 L 13 66 L 3 66 L 0 63" class="sb-control sb-bevel"/><text x="0" y="10" class="sb-label " transform="translate(6 6)">si</text><g transform="translate(30 2)"><path d="M 10.5 0 L 94.5 0 105 10.5 L 105 10.5 94.5 21 L 10.5 21 0 10.5 L 0 10.5 10.5 0 Z" class="sb-sensing sb-bevel"/><g transform="translate(9 3)"><g width="41" height="14" class="sb-input sb-input-dropdown"><rect x="0" y="0" width="41" height="14" class="sb-sensing sb-darker"/></g><text x="0" y="10" class="sb-label sb-literal-dropdown" transform="translate(4 0)">bord</text><polygon points="7 0 3.5 4 0 0" fill="#000" opacity="0.6" transform="translate(31 5)"/></g><text x="0" y="10" class="sb-label " transform="translate(54 4)">touché?</text></g><text x="0" y="10" class="sb-label " transform="translate(139 6)">alors</text><g transform="translate(15 26)"><g transform="translate(0 0)"><path d="M 0 3 L 3 0 L 13 0 L 16 3 L 24 3 L 27 0 L 73 0 L 76 3 L 76 21 L 73 24 L 3 24 L 0 21 Z" class="sb-control sb-bevel"/><text x="0" y="10" class="sb-label " transform="translate(6 7)">stop</text><g transform="translate(33 6)"><g width="37" height="14" class="sb-input sb-input-dropdown"><rect x="0" y="0" width="37" height="14" class="sb-control sb-darker"/></g><text x="0" y="10" class="sb-label sb-literal-dropdown" transform="translate(4 0)">tout</text><polygon points="7 0 3.5 4 0 0" fill="#000" opacity="0.6" transform="translate(27 5)"/></g></g></g></g><g transform="translate(0 210)"><path d="M 0 3 L 3 0 L 13 0 L 16 3 L 24 3 L 27 0 L 172 0 L 175 3 L 175 23 L 172 26 L 42 26 L 39 29 L 31 29 L 28 26 L 17 26 L 15 28 L 15 70 L 17 72 L 172 72 L 175 75 L 175 85 L 172 88 L 27 88 L 24 91 L 16 91 L 13 88 L 3 88 L 0 85" class="sb-control sb-bevel"/><text x="0" y="10" class="sb-label " transform="translate(6 6)">si</text><g transform="translate(30 2)"><path d="M 10.5 0 L 98.5 0 109 10.5 L 109 10.5 98.5 21 L 10.5 21 0 10.5 L 0 10.5 10.5 0 Z" class="sb-sensing sb-bevel"/><g transform="translate(9 3)"><g width="45" height="14" class="sb-input sb-input-dropdown"><rect x="0" y="0" width="45" height="14" class="sb-sensing sb-darker"/></g><text x="0" y="10" class="sb-label sb-literal-dropdown" transform="translate(4 0)">Chien</text><polygon points="7 0 3.5 4 0 0" fill="#000" opacity="0.6" transform="translate(35 5)"/></g><text x="0" y="10" class="sb-label " transform="translate(58 4)">touché?</text></g><text x="0" y="10" class="sb-label " transform="translate(143 6)">alors</text><g transform="translate(15 26)"><g transform="translate(0 0)"><path d="M 0 3 L 3 0 L 13 0 L 16 3 L 24 3 L 27 0 L 212 0 L 215 3 L 215 19 L 212 22 L 27 22 L 24 25 L 16 25 L 13 22 L 3 22 L 0 19 Z" class="sb-sound sb-bevel"/><text x="0" y="10" class="sb-label " transform="translate(6 5)">jouer</text><text x="0" y="10" class="sb-label " transform="translate(37 5)">le</text><text x="0" y="10" class="sb-label " transform="translate(50 5)">son</text><g transform="translate(73 4)"><g width="59" height="14" class="sb-input sb-input-dropdown"><rect x="0" y="0" width="59" height="14" class="sb-sound sb-darker"/></g><text x="0" y="10" class="sb-label sb-literal-dropdown" transform="translate(4 0)">clapping</text><polygon points="7 0 3.5 4 0 0" fill="#000" opacity="0.6" transform="translate(49 5)"/></g><text x="0" y="10" class="sb-label " transform="translate(136 5)">jusqu'au</text><text x="0" y="10" class="sb-label " transform="translate(185 5)">bout</text></g><g transform="translate(0 22)"><path d="M 0 3 L 3 0 L 13 0 L 16 3 L 24 3 L 27 0 L 73 0 L 76 3 L 76 21 L 73 24 L 3 24 L 0 21 Z" class="sb-control sb-bevel"/><text x="0" y="10" class="sb-label " transform="translate(6 7)">stop</text><g transform="translate(33 6)"><g width="37" height="14" class="sb-input sb-input-dropdown"><rect x="0" y="0" width="37" height="14" class="sb-control sb-darker"/></g><text x="0" y="10" class="sb-label sb-literal-dropdown" transform="translate(4 0)">tout</text><polygon points="7 0 3.5 4 0 0" fill="#000" opacity="0.6" transform="translate(27 5)"/></g></g></g></g></g></g></g></g></svg>