<svg xmlns="http://www.w3.org/2000/svg" version="1.1" width="298" height="447"><defs><filter id="bevelFilter" x0="-50%" y0="-50%" width="200%" height="200%"><feGaussianBlur result="blur-1" in="SourceAlpha" stdDeviation="1 1"/><feFlood result="flood-2" in="undefined" flood-color="#fff" flood-opacity="0.15"/><feOffset result="offset-3" in="blur-1" dx="1" dy="1"/><feComposite result="comp-4" operator="arithmetic" in="SourceAlpha" in2="offset-3" k2="1" k3="-1"/><feComposite result="comp-5" operator="in" in="flood-2" in2="comp-4"/><feFlood result="flood-6" in="undefined" flood-color="#000" flood-opacity="0.7"/><feOffset result="offset-7" in="blur-1" dx="-1" dy="-1"/><feComposite result="comp-8" operator="arithmetic" in="SourceAlpha" in2="offset-7" k2="1" k3="-1"/><feComposite result="comp-9" operator="in" in="flood-6" in2="comp-8"/><feMerge result="merge-10"><feMergeNode in="SourceGraphic"/><feMergeNode in="comp-5"/><feMergeNode in="comp-9"/></feMerge></filter><filter id="inputBevelFilter" x0="-50%" y0="-50%" width="200%" height="200%"><feGaussianBlur result="blur-1" in="SourceAlpha" stdDeviation="1 1"/><feFlood result="flood-2" in="undefined" flood-color="#fff" flood-opacity="0.15"/><feOffset result="offset-3" in="blur-1" dx="-1" dy="-1"/><feComposite result="comp-4" operator="arithmetic" in="SourceAlpha" in2="offset-3" k2="1" k3="-1"/><feComposite result="comp-5" operator="in" in="flood-2" in2="comp-4"/><feFlood result="flood-6" in="undefined" flood-color="#000" flood-opacity="0.7"/><feOffset result="offset-7" in="blur-1" dx="1" dy="1"/><feComposite result="comp-8" operator="arithmetic" in="SourceAlpha" in2="offset-7" k2="1" k3="-1"/><feComposite result="comp-9" operator="in" in="flood-6" in2="comp-8"/><feMerge result="merge-10"><feMergeNode in="SourceGraphic"/><feMergeNode in="comp-5"/><feMergeNode in="comp-9"/></feMerge></filter><filter id="inputDarkFilter" x0="-50%" y0="-50%" width="200%" height="200%"><feFlood result="flood-1" in="undefined" flood-color="#000" flood-opacity="0.2"/><feComposite result="comp-2" operator="in" in="flood-1" in2="SourceAlpha"/><feMerge result="merge-3"><feMergeNode in="SourceGraphic"/><feMergeNode in="comp-2"/></feMerge></filter><path d="M1.504 21L0 19.493 4.567 0h1.948l-.5 2.418s1.002-.502 3.006 0c2.006.503 3.008 2.01 6.517 2.01 3.508 0 4.463-.545 4.463-.545l-.823 9.892s-2.137 1.005-5.144.696c-3.007-.307-3.007-2.007-6.014-2.51-3.008-.502-4.512.503-4.512.503L1.504 21z" fill="#3f8d15" id="greenFlag"/><path d="M6.724 0C3.01 0 0 2.91 0 6.5c0 2.316 1.253 4.35 3.14 5.5H5.17v-1.256C3.364 10.126 2.07 8.46 2.07 6.5 2.07 4.015 4.152 2 6.723 2c1.14 0 2.184.396 2.993 1.053L8.31 4.13c-.45.344-.398.826.11 1.08L15 8.5 13.858.992c-.083-.547-.514-.714-.963-.37l-1.532 1.172A6.825 6.825 0 0 0 6.723 0z" fill="#fff" id="turnRight"/><path d="M3.637 1.794A6.825 6.825 0 0 1 8.277 0C11.99 0 15 2.91 15 6.5c0 2.316-1.253 4.35-3.14 5.5H9.83v-1.256c1.808-.618 3.103-2.285 3.103-4.244 0-2.485-2.083-4.5-4.654-4.5-1.14 0-2.184.396-2.993 1.053L6.69 4.13c.45.344.398.826-.11 1.08L0 8.5 1.142.992c.083-.547.514-.714.963-.37l1.532 1.172z" fill="#fff" id="turnLeft"/><path d="M0 0L4 4L0 8Z" fill="#111" id="addInput"/><path d="M4 0L4 8L0 4Z" fill="#111" id="delInput"/><g id="loopArrow"><path d="M8 0l2 -2l0 -3l3 0l-4 -5l-4 5l3 0l0 3l-8 0l0 2" fill="#000" opacity="0.3"/><path d="M8 0l2 -2l0 -3l3 0l-4 -5l-4 5l3 0l0 3l-8 0l0 2" fill="#fff" opacity="0.9" transform="translate(-1 -1)"/></g><style><![CDATA[.sb-label{font-family:Lucida Grande,Verdana,Arial,DejaVu Sans,sans-serif;font-weight:700;fill:#fff;font-size:10px;word-spacing:+1px}.sb-obsolete{fill:#d42828}.sb-motion{fill:#4a6cd4}.sb-looks{fill:#8a55d7}.sb-sound{fill:#bb42c3}.sb-pen{fill:#0e9a6c}.sb-events{fill:#c88330}.sb-control{fill:#e1a91a}.sb-sensing{fill:#2ca5e2}.sb-operators{fill:#5cb712}.sb-variables{fill:#ee7d16}.sb-list{fill:#cc5b22}.sb-custom{fill:#632d99}.sb-custom-arg{fill:#5947b1}.sb-extension{fill:#4b4a60}.sb-grey{fill:#969696}.sb-bevel{filter:url(#bevelFilter)}.sb-input{filter:url(#inputBevelFilter)}.sb-input-number,.sb-input-number-dropdown,.sb-input-string{fill:#fff}.sb-literal-dropdown,.sb-literal-number,.sb-literal-number-dropdown,.sb-literal-string{font-weight:400;font-size:9px;word-spacing:0}.sb-literal-number,.sb-literal-number-dropdown,.sb-literal-string{fill:#000}.sb-darker{filter:url(#inputDarkFilter)}.sb-outline{stroke:#fff;stroke-opacity:.2;stroke-width:2;fill:none}.sb-define-hat-cap{stroke:#632d99;stroke-width:1;fill:#8e2ec2}.sb-comment{fill:#ffffa5;stroke:#d0d1d2;stroke-width:1}.sb-comment-line{fill:#ffff80}.sb-comment-label{font-family:Helevetica,Arial,DejaVu Sans,sans-serif;font-weight:700;fill:#5c5d5f;word-spacing:0;font-size:12px}]]></style></defs><g><g transform="translate(0 0)"><g transform="translate(2 0)"><rect x="0" y="0" width="0" height="2" class="sb-comment-line" transform="translate(0 9)"/><path d="M 6 0 L 40 0 A 6 6 0 0 1 46 6 L 46 14 A 6 6 0 0 1 40 20 L 6 20 A 6 6 0 0 1 0 14 L 0 6 A 6 6 0 0 1 6 0 Z" class="sb-comment"/><text x="0" y="10" class="sb-label sb-comment-label" transform="translate(8 4)"> Chat</text></g></g><g transform="translate(0 33)"><g transform="translate(2 0)"><path d="M 0 12 L 0 12 A 80 80 0 0 1 80 10 L 122 10 L 125 13 L 125 35 L 122 38 L 27 38 L 24 41 L 16 41 L 13 38 L 3 38 L 0 35 Z" class="sb-events sb-bevel"/><text x="0" y="10" class="sb-label " transform="translate(6 18)">quand</text><use a0:href="#greenFlag" xmlns:a0="http://www.w3.org/1999/xlink" transform="translate(44 12)"/><text x="0" y="10" class="sb-label " transform="translate(68 18)">est</text><text x="0" y="10" class="sb-label " transform="translate(88 18)">cliqué</text></g><g transform="translate(2 38)"><path d="M 0 3 L 3 0 L 13 0 L 16 3 L 24 3 L 27 0 L 291 0 L 294 3 L 294 23 L 291 26 L 27 26 L 24 29 L 16 29 L 13 26 L 3 26 L 0 23 Z" class="sb-variables sb-bevel"/><text x="0" y="10" class="sb-label " transform="translate(6 7)">mettre</text><g transform="translate(45 6)"><g width="37" height="14" class="sb-input sb-input-dropdown"><rect x="0" y="0" width="37" height="14" class="sb-variables sb-darker"/></g><text x="0" y="10" class="sb-label sb-literal-dropdown" transform="translate(4 0)">nb1</text><polygon points="7 0 3.5 4 0 0" fill="#000" opacity="0.6" transform="translate(27 5)"/></g><text x="0" y="10" class="sb-label " transform="translate(86 7)">à</text><g transform="translate(96 3)"><path d="M 10 0 L 182 0 A 10 10 0 0 1 182 20 L 10 20 A 10 10 0 0 1 10 0 Z" class="sb-operators sb-bevel"/><text x="0" y="10" class="sb-label " transform="translate(8 4)">nombre</text><text x="0" y="10" class="sb-label " transform="translate(53 4)">aléatoire</text><text x="0" y="10" class="sb-label " transform="translate(102 4)">entre</text><g transform="translate(134 3)"><path d="M 6.5 0 L 8.5 0 A 6.5 6.5 0 0 1 8.5 13 L 6.5 13 A 6.5 6.5 0 0 1 6.5 0 Z" class="sb-input sb-input-number"/><text x="0" y="10" class="sb-label sb-literal-number" transform="translate(5 0)">5</text></g><text x="0" y="10" class="sb-label " transform="translate(153 4)">et</text><g transform="translate(167 3)"><path d="M 6.5 0 L 14.5 0 A 6.5 6.5 0 0 1 14.5 13 L 6.5 13 A 6.5 6.5 0 0 1 6.5 0 Z" class="sb-input sb-input-number"/><text x="0" y="10" class="sb-label sb-literal-number" transform="translate(5 0)">15</text></g></g></g><g transform="translate(2 64)"><path d="M 0 3 L 3 0 L 13 0 L 16 3 L 24 3 L 27 0 L 291 0 L 294 3 L 294 23 L 291 26 L 27 26 L 24 29 L 16 29 L 13 26 L 3 26 L 0 23 Z" class="sb-variables sb-bevel"/><text x="0" y="10" class="sb-label " transform="translate(6 7)">mettre</text><g transform="translate(45 6)"><g width="37" height="14" class="sb-input sb-input-dropdown"><rect x="0" y="0" width="37" height="14" class="sb-variables sb-darker"/></g><text x="0" y="10" class="sb-label sb-literal-dropdown" transform="translate(4 0)">nb2</text><polygon points="7 0 3.5 4 0 0" fill="#000" opacity="0.6" transform="translate(27 5)"/></g><text x="0" y="10" class="sb-label " transform="translate(86 7)">à</text><g transform="translate(96 3)"><path d="M 10 0 L 182 0 A 10 10 0 0 1 182 20 L 10 20 A 10 10 0 0 1 10 0 Z" class="sb-operators sb-bevel"/><text x="0" y="10" class="sb-label " transform="translate(8 4)">nombre</text><text x="0" y="10" class="sb-label " transform="translate(53 4)">aléatoire</text><text x="0" y="10" class="sb-label " transform="translate(102 4)">entre</text><g transform="translate(134 3)"><path d="M 6.5 0 L 8.5 0 A 6.5 6.5 0 0 1 8.5 13 L 6.5 13 A 6.5 6.5 0 0 1 6.5 0 Z" class="sb-input sb-input-number"/><text x="0" y="10" class="sb-label sb-literal-number" transform="translate(5 0)">5</text></g><text x="0" y="10" class="sb-label " transform="translate(153 4)">et</text><g transform="translate(167 3)"><path d="M 6.5 0 L 14.5 0 A 6.5 6.5 0 0 1 14.5 13 L 6.5 13 A 6.5 6.5 0 0 1 6.5 0 Z" class="sb-input sb-input-number"/><text x="0" y="10" class="sb-label sb-literal-number" transform="translate(5 0)">15</text></g></g></g><g transform="translate(2 90)"><path d="M 0 3 L 3 0 L 13 0 L 16 3 L 24 3 L 27 0 L 210 0 L 213 3 L 213 27 L 210 30 L 27 30 L 24 33 L 16 33 L 13 30 L 3 30 L 0 27 Z" class="sb-variables sb-bevel"/><text x="0" y="10" class="sb-label " transform="translate(6 9)">mettre</text><g transform="translate(45 8)"><g width="53" height="14" class="sb-input sb-input-dropdown"><rect x="0" y="0" width="53" height="14" class="sb-variables sb-darker"/></g><text x="0" y="10" class="sb-label sb-literal-dropdown" transform="translate(4 0)">produit</text><polygon points="7 0 3.5 4 0 0" fill="#000" opacity="0.6" transform="translate(43 5)"/></g><text x="0" y="10" class="sb-label " transform="translate(102 9)">à</text><g transform="translate(112 3)"><path d="M 12 0 L 83 0 A 12 12 0 0 1 83 24 L 12 24 A 12 12 0 0 1 12 0 Z" class="sb-operators sb-bevel"/><g transform="translate(4 2)"><path d="M 10 0 L 27 0 A 10 10 0 0 1 27 20 L 10 20 A 10 10 0 0 1 10 0 Z" class="sb-variables sb-bevel"/><text x="0" y="10" class="sb-label " transform="translate(8 4)">nb1</text></g><text x="0" y="10" class="sb-label " transform="translate(45 6)">*</text><g transform="translate(54 2)"><path d="M 10 0 L 27 0 A 10 10 0 0 1 27 20 L 10 20 A 10 10 0 0 1 10 0 Z" class="sb-variables sb-bevel"/><text x="0" y="10" class="sb-label " transform="translate(8 4)">nb2</text></g></g></g><g transform="translate(2 120)"><path d="M 0 3 L 3 0 L 13 0 L 16 3 L 24 3 L 27 0 L 241 0 L 244 3 L 244 31 L 241 34 L 27 34 L 24 37 L 16 37 L 13 34 L 3 34 L 0 31 Z" class="sb-variables sb-bevel"/><text x="0" y="10" class="sb-label " transform="translate(6 11)">mettre</text><g transform="translate(45 10)"><g width="45" height="14" class="sb-input sb-input-dropdown"><rect x="0" y="0" width="45" height="14" class="sb-variables sb-darker"/></g><text x="0" y="10" class="sb-label sb-literal-dropdown" transform="translate(4 0)">faux1</text><polygon points="7 0 3.5 4 0 0" fill="#000" opacity="0.6" transform="translate(35 5)"/></g><text x="0" y="10" class="sb-label " transform="translate(94 11)">à</text><g transform="translate(104 3)"><path d="M 14 0 L 120 0 A 14 14 0 0 1 120 28 L 14 28 A 14 14 0 0 1 14 0 Z" class="sb-operators sb-bevel"/><g transform="translate(4 2)"><path d="M 12 0 L 64 0 A 12 12 0 0 1 64 24 L 12 24 A 12 12 0 0 1 12 0 Z" class="sb-operators sb-bevel"/><g transform="translate(4 2)"><path d="M 10 0 L 27 0 A 10 10 0 0 1 27 20 L 10 20 A 10 10 0 0 1 10 0 Z" class="sb-variables sb-bevel"/><text x="0" y="10" class="sb-label " transform="translate(8 4)">nb1</text></g><text x="0" y="10" class="sb-label " transform="translate(45 6)">+</text><g transform="translate(57 5)"><path d="M 6.5 0 L 8.5 0 A 6.5 6.5 0 0 1 8.5 13 L 6.5 13 A 6.5 6.5 0 0 1 6.5 0 Z" class="sb-input sb-input-number"/><text x="0" y="10" class="sb-label sb-literal-number" transform="translate(5 0)">1</text></g></g><text x="0" y="10" class="sb-label " transform="translate(84 8)">*</text><g transform="translate(93 4)"><path d="M 10 0 L 27 0 A 10 10 0 0 1 27 20 L 10 20 A 10 10 0 0 1 10 0 Z" class="sb-variables sb-bevel"/><text x="0" y="10" class="sb-label " transform="translate(8 4)">nb2</text></g></g></g><g transform="translate(2 154)"><path d="M 0 3 L 3 0 L 13 0 L 16 3 L 24 3 L 27 0 L 239 0 L 242 3 L 242 31 L 239 34 L 27 34 L 24 37 L 16 37 L 13 34 L 3 34 L 0 31 Z" class="sb-variables sb-bevel"/><text x="0" y="10" class="sb-label " transform="translate(6 11)">mettre</text><g transform="translate(45 10)"><g width="45" height="14" class="sb-input sb-input-dropdown"><rect x="0" y="0" width="45" height="14" class="sb-variables sb-darker"/></g><text x="0" y="10" class="sb-label sb-literal-dropdown" transform="translate(4 0)">faux1</text><polygon points="7 0 3.5 4 0 0" fill="#000" opacity="0.6" transform="translate(35 5)"/></g><text x="0" y="10" class="sb-label " transform="translate(94 11)">à</text><g transform="translate(104 3)"><path d="M 14 0 L 118 0 A 14 14 0 0 1 118 28 L 14 28 A 14 14 0 0 1 14 0 Z" class="sb-operators sb-bevel"/><g transform="translate(4 2)"><path d="M 12 0 L 62 0 A 12 12 0 0 1 62 24 L 12 24 A 12 12 0 0 1 12 0 Z" class="sb-operators sb-bevel"/><g transform="translate(4 2)"><path d="M 10 0 L 27 0 A 10 10 0 0 1 27 20 L 10 20 A 10 10 0 0 1 10 0 Z" class="sb-variables sb-bevel"/><text x="0" y="10" class="sb-label " transform="translate(8 4)">nb1</text></g><text x="0" y="10" class="sb-label " transform="translate(45 6)">-</text><g transform="translate(55 5)"><path d="M 6.5 0 L 8.5 0 A 6.5 6.5 0 0 1 8.5 13 L 6.5 13 A 6.5 6.5 0 0 1 6.5 0 Z" class="sb-input sb-input-number"/><text x="0" y="10" class="sb-label sb-literal-number" transform="translate(5 0)">1</text></g></g><text x="0" y="10" class="sb-label " transform="translate(82 8)">*</text><g transform="translate(91 4)"><path d="M 10 0 L 27 0 A 10 10 0 0 1 27 20 L 10 20 A 10 10 0 0 1 10 0 Z" class="sb-variables sb-bevel"/><text x="0" y="10" class="sb-label " transform="translate(8 4)">nb2</text></g></g></g><g transform="translate(2 188)"><path d="M 0 3 L 3 0 L 13 0 L 16 3 L 24 3 L 27 0 L 121 0 L 124 3 L 124 19 L 121 22 L 27 22 L 24 25 L 16 25 L 13 22 L 3 22 L 0 19 Z" class="sb-motion sb-bevel"/><text x="0" y="10" class="sb-label " transform="translate(6 5)">aller</text><text x="0" y="10" class="sb-label " transform="translate(33 5)">à</text><text x="0" y="10" class="sb-label " transform="translate(43 5)">x:</text><g transform="translate(55 4)"><path d="M 6.5 0 L 25.5 0 A 6.5 6.5 0 0 1 25.5 13 L 6.5 13 A 6.5 6.5 0 0 1 6.5 0 Z" class="sb-input sb-input-number"/><text x="0" y="10" class="sb-label sb-literal-number" transform="translate(5 0)">-200</text></g><text x="0" y="10" class="sb-label " transform="translate(91 5)">y:</text><g transform="translate(103 4)"><path d="M 6.5 0 L 8.5 0 A 6.5 6.5 0 0 1 8.5 13 L 6.5 13 A 6.5 6.5 0 0 1 6.5 0 Z" class="sb-input sb-input-number"/><text x="0" y="10" class="sb-label sb-literal-number" transform="translate(5 0)">0</text></g></g><g transform="translate(2 210)"><path d="M 0 3 L 3 0 L 13 0 L 16 3 L 24 3 L 27 0 L 260 0 L 263 3 L 263 31 L 260 34 L 27 34 L 24 37 L 16 37 L 13 34 L 3 34 L 0 31 Z" class="sb-looks sb-bevel"/><text x="0" y="10" class="sb-label " transform="translate(6 11)">dire</text><g transform="translate(31 3)"><path d="M 14 0 L 212 0 A 14 14 0 0 1 212 28 L 14 28 A 14 14 0 0 1 14 0 Z" class="sb-operators sb-bevel"/><text x="0" y="10" class="sb-label " transform="translate(8 8)">regroupe</text><g transform="translate(61 4)"><path d="M 10 0 L 27 0 A 10 10 0 0 1 27 20 L 10 20 A 10 10 0 0 1 10 0 Z" class="sb-variables sb-bevel"/><text x="0" y="10" class="sb-label " transform="translate(8 4)">nb1</text></g><g transform="translate(102 2)"><path d="M 12 0 L 108 0 A 12 12 0 0 1 108 24 L 12 24 A 12 12 0 0 1 12 0 Z" class="sb-operators sb-bevel"/><text x="0" y="10" class="sb-label " transform="translate(8 6)">regroupe</text><g transform="translate(61 5)"><rect x="0" y="0" width="14" height="14" class="sb-input sb-input-string"/><text x="0" y="10" class="sb-label sb-literal-string" transform="translate(4 0)">*</text></g><g transform="translate(79 2)"><path d="M 10 0 L 27 0 A 10 10 0 0 1 27 20 L 10 20 A 10 10 0 0 1 10 0 Z" class="sb-variables sb-bevel"/><text x="0" y="10" class="sb-label " transform="translate(8 4)">nb2</text></g></g></g></g><g transform="translate(2 244)"><path d="M 0 3 L 3 0 L 13 0 L 16 3 L 24 3 L 27 0 L 119 0 L 122 3 L 122 19 L 119 22 L 42 22 L 39 25 L 31 25 L 28 22 L 17 22 L 15 24 L 15 152 L 17 154 L 119 154 L 122 157 L 122 167 L 119 170 L 3 170 L 0 167" class="sb-control sb-bevel"/><text x="0" y="10" class="sb-label " transform="translate(6 5)">répéter</text><text x="0" y="10" class="sb-label " transform="translate(49 5)">indéfiniment</text><use a1:href="#loopArrow" xmlns:a1="http://www.w3.org/1999/xlink" transform="translate(107 167)"/><g transform="translate(15 22)"><g transform="translate(0 0)"><path d="M 0 3 L 3 0 L 13 0 L 16 3 L 24 3 L 27 0 L 194 0 L 197 3 L 197 19 L 194 22 L 27 22 L 24 25 L 16 25 L 13 22 L 3 22 L 0 19 Z" class="sb-motion sb-bevel"/><text x="0" y="10" class="sb-label " transform="translate(6 5)">s'orienter</text><text x="0" y="10" class="sb-label " transform="translate(60 5)">vers</text><g transform="translate(87 4)"><g width="104" height="14" class="sb-input sb-input-dropdown"><rect x="0" y="0" width="104" height="14" class="sb-motion sb-darker"/></g><text x="0" y="10" class="sb-label sb-literal-dropdown" transform="translate(4 0)">pointeur de souris</text><polygon points="7 0 3.5 4 0 0" fill="#000" opacity="0.6" transform="translate(94 5)"/></g></g><g transform="translate(0 22)"><path d="M 0 3 L 3 0 L 13 0 L 16 3 L 24 3 L 27 0 L 86 0 L 89 3 L 89 19 L 86 22 L 27 22 L 24 25 L 16 25 L 13 22 L 3 22 L 0 19 Z" class="sb-motion sb-bevel"/><text x="0" y="10" class="sb-label " transform="translate(6 5)">avancer</text><text x="0" y="10" class="sb-label " transform="translate(51 5)">de</text><g transform="translate(68 4)"><path d="M 6.5 0 L 8.5 0 A 6.5 6.5 0 0 1 8.5 13 L 6.5 13 A 6.5 6.5 0 0 1 6.5 0 Z" class="sb-input sb-input-number"/><text x="0" y="10" class="sb-label sb-literal-number" transform="translate(5 0)">3</text></g></g><g transform="translate(0 44)"><path d="M 0 3 L 3 0 L 13 0 L 16 3 L 24 3 L 27 0 L 181 0 L 184 3 L 184 23 L 181 26 L 42 26 L 39 29 L 31 29 L 28 26 L 17 26 L 15 28 L 15 70 L 17 72 L 181 72 L 184 75 L 184 85 L 181 88 L 27 88 L 24 91 L 16 91 L 13 88 L 3 88 L 0 85" class="sb-control sb-bevel"/><text x="0" y="10" class="sb-label " transform="translate(6 6)">si</text><g transform="translate(30 2)"><path d="M 10.5 0 L 107.5 0 118 10.5 L 118 10.5 107.5 21 L 10.5 21 0 10.5 L 0 10.5 10.5 0 Z" class="sb-sensing sb-bevel"/><g transform="translate(9 3)"><g width="54" height="14" class="sb-input sb-input-dropdown"><rect x="0" y="0" width="54" height="14" class="sb-sensing sb-darker"/></g><text x="0" y="10" class="sb-label sb-literal-dropdown" transform="translate(4 0)">Souris1</text><polygon points="7 0 3.5 4 0 0" fill="#000" opacity="0.6" transform="translate(44 5)"/></g><text x="0" y="10" class="sb-label " transform="translate(67 4)">touché?</text></g><text x="0" y="10" class="sb-label " transform="translate(152 6)">alors</text><g transform="translate(15 26)"><g transform="translate(0 0)"><path d="M 0 3 L 3 0 L 13 0 L 16 3 L 24 3 L 27 0 L 176 0 L 179 3 L 179 19 L 176 22 L 27 22 L 24 25 L 16 25 L 13 22 L 3 22 L 0 19 Z" class="sb-looks sb-bevel"/><text x="0" y="10" class="sb-label " transform="translate(6 5)">dire</text><g transform="translate(31 4)"><rect x="0" y="0" width="22" height="14" class="sb-input sb-input-string"/><text x="0" y="10" class="sb-label sb-literal-string" transform="translate(4 0)">Oui</text></g><text x="0" y="10" class="sb-label " transform="translate(57 5)">pendant</text><g transform="translate(105 4)"><path d="M 6.5 0 L 8.5 0 A 6.5 6.5 0 0 1 8.5 13 L 6.5 13 A 6.5 6.5 0 0 1 6.5 0 Z" class="sb-input sb-input-number"/><text x="0" y="10" class="sb-label sb-literal-number" transform="translate(5 0)">2</text></g><text x="0" y="10" class="sb-label " transform="translate(124 5)">secondes</text></g><g transform="translate(0 22)"><path d="M 0 3 L 3 0 L 13 0 L 16 3 L 24 3 L 27 0 L 73 0 L 76 3 L 76 21 L 73 24 L 3 24 L 0 21 Z" class="sb-control sb-bevel"/><text x="0" y="10" class="sb-label " transform="translate(6 7)">stop</text><g transform="translate(33 6)"><g width="37" height="14" class="sb-input sb-input-dropdown"><rect x="0" y="0" width="37" height="14" class="sb-control sb-darker"/></g><text x="0" y="10" class="sb-label sb-literal-dropdown" transform="translate(4 0)">tout</text><polygon points="7 0 3.5 4 0 0" fill="#000" opacity="0.6" transform="translate(27 5)"/></g></g></g></g></g></g></g></g></svg>